<?xml version="1.0" encoding="utf-8"?>
<!-- Generator: Adobe Illustrator 26.0.2, SVG Export Plug-In . SVG Version: 6.00 Build 0)  -->
<svg version="1.1" id="Layer_1" xmlns="http://www.w3.org/2000/svg" xmlns:xlink="http://www.w3.org/1999/xlink" x="0px" y="0px"
	 viewBox="0 0 150 58" style="enable-background:new 0 0 150 58;" xml:space="preserve">
<style type="text/css">
	.st0{fill:#FFFFFF;stroke:#EAD434;stroke-miterlimit:10;}
</style>
<g>
	<path class="st0" d="M26.85,31.12c0.45,0.16,0.84,0.41,1.19,0.73c0.35,0.33,0.54,0.75,0.58,1.28c0.04,0.2,0.04,0.42,0,0.64
		c-0.04,0.22-0.08,0.44-0.12,0.64c-0.33,1.3-0.72,2.58-1.19,3.84c-0.47,1.26-1.05,2.46-1.74,3.6c-0.2,0.45-0.45,0.85-0.73,1.22
		c-0.29,0.37-0.59,0.73-0.92,1.1c-1.3,1.42-2.89,2.39-4.76,2.9c-1.87,0.51-3.76,0.48-5.68-0.09c-1.99-0.61-3.72-1.77-5.19-3.48
		c-1.42-1.63-2.39-3.46-2.9-5.49c-0.51-2.03-0.8-4.11-0.88-6.22c-0.04-0.94-0.03-1.87,0.03-2.81c0.06-0.94,0.15-1.87,0.27-2.81
		c0.2-1.3,0.44-2.61,0.7-3.94c0.26-1.32,0.68-2.59,1.25-3.81c0.41-0.94,0.93-1.84,1.56-2.72c0.63-0.87,1.35-1.65,2.17-2.32
		c0.81-0.67,1.71-1.21,2.69-1.62c0.98-0.41,2.01-0.61,3.11-0.61c0.41,0,0.8,0.04,1.19,0.12c0.39,0.08,0.76,0.18,1.13,0.31
		c1.91,0.57,3.48,1.69,4.7,3.36c0.69,0.9,1.17,1.86,1.43,2.9c0.26,1.04,0.42,2.13,0.46,3.27c0.04,0.57,0.04,1.17,0,1.8
		c-0.04,0.63-0.16,1.23-0.37,1.8c-0.33,0.77-0.9,1.23-1.71,1.37c-0.81,0.14-1.57,0.07-2.26-0.21c-0.41-0.2-0.77-0.45-1.1-0.73
		c-0.33-0.28-0.57-0.63-0.73-1.04c-0.16-0.45-0.23-0.93-0.21-1.43c0.02-0.51,0.03-0.99,0.03-1.43c0-0.69-0.05-1.38-0.15-2.08
		c-0.1-0.69-0.38-1.32-0.82-1.89c0-0.04-0.02-0.08-0.06-0.12H17.7c-0.29,0.08-0.51,0.23-0.67,0.46c-0.16,0.22-0.33,0.46-0.49,0.7
		c-0.41,0.69-0.7,1.43-0.88,2.23c-0.18,0.79-0.38,1.54-0.58,2.23c-0.04,0.12-0.06,0.22-0.06,0.31c-0.61,3.5-0.69,7.1-0.24,10.8
		c0.16,1.18,0.41,2.44,0.73,3.78l0.55,1.89c0.04,0.12,0.09,0.28,0.15,0.46c0.06,0.18,0.12,0.35,0.18,0.49s0.15,0.26,0.27,0.37
		s0.28,0.13,0.49,0.09c0.16,0,0.37-0.08,0.61-0.24c0.69-0.41,1.29-0.92,1.8-1.56c0.51-0.63,0.97-1.29,1.37-1.98
		c0.45-0.81,0.87-1.64,1.28-2.47c0.41-0.83,0.85-1.64,1.34-2.41c0.73-1.06,1.71-1.46,2.93-1.22c0.08,0,0.14,0.01,0.18,0.03
		C26.71,31.11,26.77,31.12,26.85,31.12z"/>
	<path class="st0" d="M51.32,39.42c0.04,0.61-0.09,1.12-0.4,1.53c-0.3,0.41-0.68,0.68-1.13,0.82c-0.45,0.14-0.94,0.17-1.46,0.09
		c-0.53-0.08-1-0.3-1.4-0.67c-0.57-0.49-0.98-1.11-1.22-1.86s-0.45-1.47-0.61-2.17l-0.49-2.75c-0.08-0.41-0.13-0.85-0.15-1.34
		c-0.02-0.49-0.11-0.92-0.27-1.28c-0.37,0.33-0.68,0.71-0.95,1.16c-0.27,0.45-0.52,0.88-0.76,1.28c-0.24,0.45-0.48,0.88-0.7,1.28
		c-0.22,0.41-0.44,0.83-0.64,1.28c-0.45,0.9-0.84,1.78-1.19,2.66c-0.35,0.88-0.68,1.78-1.01,2.71c-0.08,0.08-0.14,0.24-0.18,0.49
		s-0.1,0.41-0.18,0.49c-0.12,0.33-0.27,0.61-0.46,0.85s-0.44,0.43-0.76,0.55c-0.61,0.2-1.19,0.27-1.74,0.21
		c-0.55-0.06-1.07-0.22-1.56-0.49s-0.92-0.62-1.28-1.07c-0.37-0.45-0.65-0.96-0.85-1.53c-0.29-0.81-0.46-1.65-0.52-2.5
		c-0.06-0.85-0.13-1.69-0.21-2.5c-0.2-1.91-0.31-3.81-0.34-5.71c-0.02-1.89,0.05-3.81,0.21-5.77c0.12-1.83,0.31-3.67,0.58-5.52
		c0.26-1.85,0.7-3.63,1.31-5.34c0.2-0.53,0.46-1,0.76-1.4c0.3-0.41,0.74-0.65,1.31-0.73c0.49-0.08,1-0.03,1.53,0.15
		c0.53,0.18,0.98,0.46,1.34,0.82c0.49,0.53,0.72,1.14,0.7,1.83c-0.02,0.69-0.05,1.36-0.09,2.01c-0.04,0.81-0.1,1.6-0.18,2.35
		c-0.08,0.75-0.16,1.54-0.24,2.35c-0.33,2.69-0.45,5.39-0.37,8.12c0,0.16-0.01,0.32-0.03,0.46c-0.02,0.14-0.01,0.27,0.03,0.4
		c0.41-0.49,0.77-1.01,1.1-1.56c0.33-0.55,0.71-1.07,1.16-1.56c0.45-0.45,0.94-0.85,1.46-1.22c0.53-0.37,1.12-0.61,1.77-0.73
		c0.85-0.16,1.66-0.12,2.41,0.12c0.75,0.24,1.42,0.62,2.01,1.13c0.59,0.51,1.08,1.13,1.46,1.86c0.39,0.73,0.66,1.49,0.82,2.26
		c0.24,1.38,0.51,2.75,0.79,4.09c0.28,1.34,0.49,2.73,0.61,4.15V39.42z"/>
	<path class="st0" d="M61.45,38.02c0,0.16-0.01,0.32-0.03,0.46s-0.05,0.32-0.09,0.52c0,0.12-0.04,0.26-0.12,0.43
		c-0.08,0.37-0.27,0.66-0.58,0.88c-0.31,0.22-0.62,0.42-0.95,0.58c-0.41,0.16-0.81,0.21-1.22,0.15c-0.41-0.06-0.81-0.15-1.22-0.27
		c-0.69-0.2-1.28-0.59-1.77-1.16c-0.49-0.57-0.81-1.2-0.98-1.89c-0.08-0.37-0.13-0.73-0.15-1.1s-0.05-0.73-0.09-1.1
		c-0.12-1.02-0.18-2.08-0.18-3.17c0-1.18,0.06-2.34,0.18-3.48c0.12-1.14,0.33-2.28,0.61-3.42c0.08-0.37,0.28-0.66,0.58-0.88
		c0.3-0.22,0.62-0.4,0.95-0.52c0.33-0.12,0.66-0.18,1.01-0.18c0.34,0,0.68,0.04,1.01,0.12c0.73,0.2,1.34,0.55,1.83,1.04
		c0.24,0.2,0.46,0.5,0.64,0.89c0.18,0.39,0.25,0.74,0.21,1.07c-0.08,1.71-0.11,3.39-0.09,5.03c0.02,1.65,0.13,3.31,0.33,4.97
		L61.45,38.02z M62,16.91c0.37,0.69,0.52,1.41,0.46,2.17c-0.06,0.75-0.44,1.43-1.13,2.04c-0.49,0.45-1.05,0.72-1.68,0.82
		c-0.63,0.1-1.23,0.03-1.8-0.21c-0.69-0.24-1.24-0.69-1.65-1.34c-0.41-0.65-0.64-1.33-0.7-2.04c-0.06-0.71,0.06-1.38,0.37-2.01
		c0.31-0.63,0.86-1.07,1.68-1.31c0.94-0.28,1.8-0.22,2.59,0.18C60.93,15.6,61.55,16.17,62,16.91z"/>
	<path class="st0" d="M86.96,36.74c0.08,0.45,0.11,0.88,0.09,1.31c-0.02,0.43-0.15,0.82-0.4,1.19c-0.24,0.33-0.56,0.57-0.95,0.73
		c-0.39,0.16-0.78,0.26-1.19,0.3c-0.69,0.08-1.3-0.01-1.83-0.27c-0.53-0.26-0.99-0.61-1.37-1.04c-0.39-0.43-0.7-0.92-0.95-1.5
		c-0.24-0.57-0.43-1.14-0.55-1.71c-0.12-0.45-0.2-0.91-0.24-1.37c-0.04-0.47-0.1-0.92-0.18-1.37l-0.24-1.34
		c0-0.08-0.04-0.28-0.12-0.61c-0.04-0.16-0.06-0.33-0.06-0.49c-0.24,0.16-0.48,0.33-0.7,0.49c-0.22,0.16-0.44,0.35-0.64,0.55
		c-0.57,0.53-1.12,1.09-1.65,1.68c-0.53,0.59-1.04,1.19-1.53,1.8l-1.28,1.46c-0.16,0.2-0.36,0.42-0.58,0.64
		c-0.22,0.22-0.33,0.46-0.33,0.7c-0.04,0.08-0.05,0.16-0.03,0.24c0.02,0.08,0.03,0.16,0.03,0.24c0.12,0.57,0.04,1.11-0.24,1.62
		c-0.29,0.51-0.69,0.91-1.22,1.19c-0.85,0.49-1.8,0.57-2.84,0.24c-1.04-0.33-1.84-0.85-2.41-1.59c-0.33-0.45-0.54-0.91-0.64-1.37
		c-0.1-0.47-0.19-0.97-0.28-1.5c-0.04-0.33-0.07-0.62-0.09-0.88c-0.02-0.26-0.03-0.54-0.03-0.82c-0.12-1.87-0.02-3.8,0.31-5.8
		c0.12-0.77,0.25-1.56,0.4-2.35s0.36-1.56,0.64-2.29c0.41-1.02,1.05-1.81,1.92-2.38c0.87-0.57,1.86-0.59,2.96-0.06
		c0.41,0.2,0.76,0.48,1.07,0.82c0.31,0.35,0.5,0.74,0.58,1.19c0.04,0.16,0.05,0.33,0.03,0.49c-0.02,0.16-0.03,0.33-0.03,0.49
		c-0.04,0.37-0.09,0.74-0.15,1.13c-0.06,0.39-0.07,0.76-0.03,1.13c0.33-0.2,0.61-0.44,0.85-0.7c0.24-0.26,0.53-0.5,0.85-0.7
		c0.28-0.24,0.58-0.46,0.88-0.64c0.31-0.18,0.62-0.38,0.95-0.58c1.42-0.73,2.83-0.98,4.21-0.73c1.79,0.33,3.15,1.15,4.09,2.47
		c0.94,1.32,1.55,2.82,1.83,4.49c0.16,0.9,0.33,1.77,0.49,2.62c0.16,0.85,0.34,1.73,0.55,2.62c0,0.08,0.01,0.13,0.03,0.15
		C86.95,36.67,86.96,36.7,86.96,36.74z"/>
	<path class="st0" d="M97.7,38.02c0,0.16-0.01,0.32-0.03,0.46s-0.05,0.32-0.09,0.52c0,0.12-0.04,0.26-0.12,0.43
		c-0.08,0.37-0.27,0.66-0.58,0.88c-0.31,0.22-0.62,0.42-0.95,0.58c-0.41,0.16-0.81,0.21-1.22,0.15c-0.41-0.06-0.81-0.15-1.22-0.27
		c-0.69-0.2-1.28-0.59-1.77-1.16c-0.49-0.57-0.81-1.2-0.98-1.89c-0.08-0.37-0.13-0.73-0.15-1.1s-0.05-0.73-0.09-1.1
		c-0.12-1.02-0.18-2.08-0.18-3.17c0-1.18,0.06-2.34,0.18-3.48c0.12-1.14,0.33-2.28,0.61-3.42c0.08-0.37,0.28-0.66,0.58-0.88
		c0.3-0.22,0.62-0.4,0.95-0.52c0.33-0.12,0.66-0.18,1.01-0.18c0.34,0,0.68,0.04,1.01,0.12c0.73,0.2,1.34,0.55,1.83,1.04
		c0.24,0.2,0.46,0.5,0.64,0.89c0.18,0.39,0.25,0.74,0.21,1.07c-0.08,1.71-0.11,3.39-0.09,5.03c0.02,1.65,0.13,3.31,0.33,4.97
		L97.7,38.02z M98.25,16.91c0.37,0.69,0.52,1.41,0.46,2.17c-0.06,0.75-0.44,1.43-1.13,2.04c-0.49,0.45-1.05,0.72-1.68,0.82
		c-0.63,0.1-1.23,0.03-1.8-0.21c-0.69-0.24-1.24-0.69-1.65-1.34c-0.41-0.65-0.64-1.33-0.7-2.04c-0.06-0.71,0.06-1.38,0.37-2.01
		c0.31-0.63,0.86-1.07,1.68-1.31c0.94-0.28,1.8-0.22,2.59,0.18C97.18,15.6,97.8,16.17,98.25,16.91z"/>
	<path class="st0" d="M108.19,42.96c-0.2,0.57-0.49,0.98-0.85,1.22c-0.57,0.45-1.21,0.64-1.92,0.58c-0.71-0.06-1.35-0.29-1.92-0.7
		c-0.57-0.45-1.01-0.99-1.31-1.62c-0.3-0.63-0.52-1.29-0.64-1.98c-0.65-3.74-0.94-7.46-0.85-11.14c0.08-3.68,0.45-7.37,1.1-11.08
		c0.08-0.45,0.16-0.94,0.24-1.46c0.08-0.53,0.2-1.06,0.37-1.59c0.16-0.53,0.37-1.02,0.61-1.46c0.24-0.45,0.55-0.81,0.92-1.1
		c0.57-0.45,1.22-0.59,1.95-0.43c0.73,0.16,1.34,0.49,1.83,0.98c0.37,0.37,0.61,0.81,0.73,1.34c0.12,0.53,0.17,1.07,0.15,1.62
		s-0.07,1.1-0.15,1.65c-0.08,0.55-0.14,1.07-0.18,1.56c-0.08,1.42-0.18,2.83-0.31,4.21c-0.12,1.38-0.22,2.79-0.3,4.21
		c-0.04,1.18-0.05,2.34-0.03,3.48c0.02,1.14,0.07,2.3,0.15,3.48c0.08,0.94,0.2,1.84,0.37,2.71c0.16,0.88,0.28,1.76,0.37,2.66
		c0,0.45-0.01,0.93-0.03,1.43C108.45,42.04,108.36,42.51,108.19,42.96z"/>
	<path class="st0" d="M119.61,42.96c-0.2,0.57-0.49,0.98-0.85,1.22c-0.57,0.45-1.21,0.64-1.92,0.58c-0.71-0.06-1.35-0.29-1.92-0.7
		c-0.57-0.45-1.01-0.99-1.31-1.62c-0.3-0.63-0.52-1.29-0.64-1.98c-0.65-3.74-0.94-7.46-0.85-11.14c0.08-3.68,0.45-7.37,1.1-11.08
		c0.08-0.45,0.16-0.94,0.24-1.46c0.08-0.53,0.2-1.06,0.37-1.59c0.16-0.53,0.37-1.02,0.61-1.46c0.24-0.45,0.55-0.81,0.92-1.1
		c0.57-0.45,1.22-0.59,1.95-0.43c0.73,0.16,1.34,0.49,1.83,0.98c0.37,0.37,0.61,0.81,0.73,1.34c0.12,0.53,0.17,1.07,0.15,1.62
		s-0.07,1.1-0.15,1.65c-0.08,0.55-0.14,1.07-0.18,1.56c-0.08,1.42-0.18,2.83-0.31,4.21c-0.12,1.38-0.22,2.79-0.3,4.21
		c-0.04,1.18-0.05,2.34-0.03,3.48c0.02,1.14,0.07,2.3,0.15,3.48c0.08,0.94,0.2,1.84,0.37,2.71c0.16,0.88,0.28,1.76,0.37,2.66
		c0,0.45-0.01,0.93-0.03,1.43C119.86,42.04,119.77,42.51,119.61,42.96z"/>
	<path class="st0" d="M145.54,35.94c0.2,0.61,0.14,1.14-0.18,1.59c-0.33,0.45-0.77,0.75-1.34,0.92c-0.65,0.16-1.27,0.13-1.86-0.09
		c-0.59-0.22-1.11-0.56-1.56-1.01c-0.37-0.33-0.73-0.77-1.1-1.34c-0.12-0.2-0.26-0.43-0.43-0.67c-0.16-0.24-0.24-0.49-0.24-0.73
		c-0.04,0.08-0.16,0.22-0.37,0.43c-0.2,0.2-0.35,0.35-0.43,0.43l-0.85,0.85c-0.33,0.33-0.64,0.63-0.95,0.92
		c-0.3,0.29-0.62,0.55-0.95,0.79c-0.65,0.45-1.3,0.88-1.95,1.28c-0.65,0.41-1.36,0.71-2.14,0.92c-1.18,0.33-2.39,0.35-3.63,0.06
		c-1.24-0.28-2.25-0.92-3.02-1.89c-0.49-0.65-0.8-1.36-0.95-2.14c-0.14-0.77-0.13-1.57,0.03-2.38c0.24-1.3,0.75-2.64,1.53-4.03
		c1.06-1.83,2.42-3.4,4.09-4.7c1.67-1.3,3.52-2.24,5.55-2.81c0.69-0.2,1.4-0.34,2.14-0.4s1.44,0.01,2.14,0.21
		c0.12-0.12,0.24-0.22,0.37-0.31c0.12-0.08,0.24-0.18,0.37-0.31c0.2-0.08,0.51-0.16,0.92-0.24c0.69-0.08,1.3,0,1.83,0.24
		c0.57,0.24,1.08,0.64,1.53,1.19c0.45,0.55,0.57,1.17,0.37,1.86c-0.16,0.65-0.3,1.29-0.43,1.92c-0.12,0.63-0.18,1.29-0.18,1.98
		c-0.04,0.69-0.02,1.38,0.06,2.07c0.08,0.69,0.18,1.38,0.3,2.08c0.08,0.41,0.19,0.79,0.34,1.16c0.14,0.37,0.31,0.71,0.52,1.04
		c0.08,0.2,0.16,0.39,0.24,0.55C145.38,35.56,145.46,35.74,145.54,35.94z M134.44,29.9c0.94-1.22,1.81-2.52,2.62-3.91l-0.49,0.18
		c-0.57,0.33-1.11,0.65-1.62,0.98c-0.51,0.33-0.99,0.71-1.43,1.16c-0.57,0.49-1.07,1.02-1.5,1.59c-0.43,0.57-0.84,1.16-1.25,1.77
		c-0.24,0.49-0.47,0.98-0.67,1.46c-0.2,0.49-0.37,1.02-0.49,1.59c0.33-0.2,0.63-0.42,0.92-0.64c0.28-0.22,0.57-0.46,0.85-0.7
		c0.57-0.53,1.11-1.09,1.62-1.68C133.51,31.11,133.99,30.51,134.44,29.9z"/>
</g>
</svg>
