<?xml version="1.0" encoding="utf-8"?>
<!-- Generator: Adobe Illustrator 26.0.3, SVG Export Plug-In . SVG Version: 6.00 Build 0)  -->
<svg version="1.1" id="Layer_1" xmlns="http://www.w3.org/2000/svg" xmlns:xlink="http://www.w3.org/1999/xlink" x="0px" y="0px"
	 viewBox="0 0 841.9 595.3" style="enable-background:new 0 0 841.9 595.3;" xml:space="preserve">
<style type="text/css">
	.st0{fill:#FFF5D1;}
	.st1{fill:#886E55;}
	.st2{fill:#B6D783;}
	.st3{fill:#3F3118;}
</style>
<g>
	<path class="st0" d="M421,293c7.3-14.5,14.2-27.8,20.8-41.2c2-4,2.7-8.3,1.3-13.1c-0.9-3-0.1-6.6-0.1-9.1
		c-6.4-3.9-12.6-7.7-18.1-11.1c0.4,7.9,1.5,17.3,1,26.6c-0.7,13-2.5,25.9-3.9,38.8l-1.5,0.4c0.1,0.3,0.2,0.7,0.3,1.1
		c0.1,0.3,0.7,0.5,1,0.7C421.7,288,421.4,290,421,293z"/>
	<path class="st0" d="M535.4,201c3.8-5.4,9.4-10.2,13.9-15c7.5-7.8,15.4-15.3,23.1-22.9c-8.1,8-19.9,12.1-28.1,20.9
		c-4.4,4.7-8.1,9.9-11.6,15.4c-0.4,0.6-8.5,15-1.9,12.2C530.2,211.9,534.7,202.1,535.4,201z M456.1,321.6l-1.4,0.2
		c-0.3-1.3-1.1-3-0.6-3.9c2.8-5.4,5.6-10.8,9.1-15.8c4.6-6.6,9.4-13,14.8-18.8c4.1-4.4,9.2-7.9,14.1-11.3c1.2-0.8,3.9-0.6,5.4,0.2
		c5.4,2.7,10.9,3.9,16.9,3.2c7.1-0.8,11.8-4.6,13.9-11.4c0.6-1.8,1.1-3.6,1.8-5.9c2.2,0.3,4.2,0.7,6.3,0.9c3.4,0.4,6.9,1.1,10.4,1.2
		c4.9,0,9.3-1.6,11.6-6.3c2.4-4.8,2.1-9.8-1.2-14c-3.8-4.9-8.2-9.4-12.3-14.1c-1-1.2-1.7-2.7-2.9-3.7c-0.9-0.8-2.4-0.9-3.5-1.6
		c-8.9-6-17.9-11.9-26.6-18.2c-7.4-5.4-14.9-7-23.7-3.4c-8.1,3.2-16,3.1-21.8-5c13.6-17.8,39.1-44.8,56.7-56.1
		c18.4-11.8,38.5-20,58.9-27.2c15.7-5.6,32.4-5,48.7-2.3c8.8,1.5,17.5,4.2,26.1,7c-16.1,0.6-31.2,4.4-45.3,11.8
		c-5.1,2.7-9.4,7.1-13.8,11.1c20.9-13.4,44.6-14.2,68.3-15.3c-4.3,2.4-8.6,4.6-12.8,7.1c-14.1,8.6-23.6,21.5-30.9,35.9
		c-6.9,13.7-12,28-14.7,43.2c-2.4,13.1-4.2,26.6-8.7,39.1c-4,10.9-10.2,21.7-23.5,24.8c-7.3,1.7-14.5,3.8-21.7,5.7
		c-0.5,0.1-1.2,0-1.7-0.1c-12.6-2.8-24.8,0.5-37.1,2.7c-14.6,2.5-28,7.7-40.4,15.7c-6.1,3.9-10.5,9.2-13.7,15.5
		c-0.3,0.5-0.5,1-0.8,1.5C458.8,316.5,457.4,319,456.1,321.6z M563.7,156c-16.3,12.4-31.8,25.5-40.7,44.8
		c13.8-14.7,27.7-29.4,41.5-44.1C564.2,156.5,563.9,156.3,563.7,156z M548.2,223c8.6-12.5,17.1-24.9,25.7-37.4
		C562.2,195.8,553.1,208,548.2,223z"/>
	<path class="st0" d="M398.9,163.8c0.5-0.2,0.9-0.4,1.4-0.7c6.5,12.5,13,25,19.4,37.4c4-15.3,23.4-24.8,39.1-13.4
		c1,0.7,2.1,1.2,3.2,1.8c0-0.2,0-0.3,0-0.5c-0.4-1.7-0.9-3.5-1.1-5.3c-1.7-17.6-7.2-34-17-48.5c-16.6-24.5-39-42.9-65.2-56.5
		c-15.4-7.9-31.2-15-46.8-22.4c-0.3-0.1-0.7-0.1-2.5-0.4c27.6,19.5,39.4,47.6,48.9,77.1c-2.6-4.3-5.2-8.7-7.5-13.2
		c-13.8-28-33.2-51.4-57.6-70.7c-1.6-1.3-3.5-2.2-5.4-3.3c4.8,9.1,9.6,17.8,14.1,26.5c7,13.5,11.2,27.6,9.2,43.2
		c-1.1,8.6-0.6,17.4-0.9,26.1c-0.2,6,0.5,12,2.3,17.7c1.6,5,10.6,21.3,13.7,28.9c18.1,9.8,34.2,23.1,47.8,40.4
		c6.8,8.6,11.4,18.9,17.1,28.3c0.5,0.8,1.7,1.2,2.6,1.8c0-0.1,0-0.2,0-0.3c-0.4-1.4-0.8-2.8-1-4.2c-2.2-15.9-4.1-31.9-6.7-47.8
		c-1.5-9.2-4.2-18.3-6.4-27.4c0.5-0.1,1-0.3,1.5-0.4c3.5,13.3,7.5,26.5,10.3,40c2.7,13.1,3.8,26.4,2.4,39.9c0,0.1,0.1,0.2,0.1,0.3
		c0,0,0,0,0,0l0,0c0,0,0,0,0,0c0,0-0.1,0-0.1,0c2.3,8.7,4.6,17.4,6.9,26.2l1.5-0.4c0-1.2-0.2-2.3-0.1-3.5
		c1.3-17.4,0.2-34.8-1.7-52.2c-2.1-19.1-9.3-36.5-16.7-54C402.2,170.8,400.5,167.3,398.9,163.8z"/>
	<path class="st1" d="M78.1,492.7c-1.6,1.9-3.2,4.7-1.8,6.8c0.8,1.2,2.3,1.6,3.7,2c6.5,1.7,15,2.7,18.5-3.1
		c2.3-3.7,1.2-8.5,1.8-12.8c1.4-9.5,10.8-15.4,19.4-19.7c13.3-6.7,27-12.7,40.9-17.9c7.9-3,31.9-6.3,34.7-14.9
		c-21.4,4.8-43.2,12-63.2,20.9C111.8,463.1,92.5,475.6,78.1,492.7z"/>
	<path class="st1" d="M103.1,514.6c-1,5.2,4.5,9.3,9.5,11c9,3.1,22.4,4.3,30.6-1.1c-4-2.4-8.9-3.6-13-6.3c-4.4-3-8-7.5-8.6-12.7
		c-0.8-7,3.7-13.3,7.9-18.9c4.7-6.2,9.3-12.3,14-18.5c-7.4,3.6-14.6,7.5-21.6,11.9c-3.1,1.9-6.2,4-7.7,7.3c-2.2,5,0.3,11.3-2.3,16.1
		C109.7,507.6,103.9,509.9,103.1,514.6z"/>
	<path class="st1" d="M189.1,448.7c13.2-3.1,27.1-7,41.2-9.4c6.5-1.1,9.7-3.8,11.3-9.6c0.6-2.1,1.4-4.2,2.1-6.3
		c-0.4-0.3-0.7-0.6-1.1-0.9C224.5,431.3,206.4,440.2,189.1,448.7z"/>
	<path class="st1" d="M75.7,424.6c0.1,0.3,0.1,0.6,0.1,1c9.9-1,19.8-1.8,29.7-3c32.3-3.9,64.7-6.8,97.3-6c3.4,0.1,6.8-1.3,10.2-1.7
		c11.1-1.3,22.2-2.4,33.3-3.8c1.2-0.1,2.7-0.9,3.4-1.9c6.1-8.3,13.8-14.5,23.9-18.4c-3.5-1.8-6.4-2.7-10.3-1.3
		c-24.6,8.8-50.2,12.9-76.1,16.5c-36.5,5.1-72.8,11.8-109.2,17.8C77.3,424,76.5,424.4,75.7,424.6z"/>
	<path class="st1" d="M596.1,271.9c3.2,1.5,5.8,1.6,9-0.1c22.5-11.9,42.3-27.6,62.9-42.3c2.7-1.9,5.4-3.9,8-6
		c-13.5,5.4-25.1,13.8-36.7,22.2c-4.6,3.3-8.9,7.1-13.7,10c-5.2,3.1-10.6,6.2-16.3,7.9C603.8,265.1,599.5,267.3,596.1,271.9z"/>
	<path class="st1" d="M724,191.6c10.6-1.7,40.2-25.5,43.7-35.5C745.1,158.6,735.8,176.4,724,191.6z"/>
	<path class="st1" d="M580.4,283.6c4.3,1.4,8.1,2.9,12.9,1.8c17.3-4,34.8-6.7,51.2-13.9c36.3-16,72.7-31.8,109.1-47.8
		c10.9-4.8,30.8-19.7,38.6-28.5c-5.3,2.2-10.7,3.6-15.3,6.3c-29.6,17.5-60.9,31.7-92.3,45.6c-23.8,10.5-47.2,22.1-72.7,28.2
		C601.5,277.7,591.1,280.7,580.4,283.6z"/>
	<path class="st1" d="M606.4,292.4c3.1-0.5,6.3-1.2,9.4-1.5c17.2-1.3,33.7-5.8,50-11.3c23.4-7.9,46.9-15.5,70.4-23.3
		c9.7-3.2,19.2-6.9,28.8-10.1c11-3.7,22.2-7,33.2-10.5c1.3-0.4,2.5-1.2,3.6-2.9c-3.2-0.1-6.4-0.5-9.6-0.4c-13.2,0.4-25.8,4.2-38.3,8
		c-2.4,0.7-4.7,1.5-7.2,1.9c-12.8,1.7-23.9,7.9-35.5,12.8c-18.1,7.6-36.2,15.3-54.4,22.6c-14.5,5.8-29.6,8.3-45.2,8.3
		c-6.8,0-13.6,0.1-20.7,1.1c4.4,2,8.9,4,13.3,6.1c0.3,0.2,0.5,0.5,0.7,0.7L606.4,292.4z"/>
	<path class="st2" d="M488.7,446.4c0.4,1.7,1.9,3,3.2,4.2c24.3,21.6,24.2,71.3,54.1,85.8c10.1-20.8,11-51.9,13.8-74.8
		c1.3-10.9,1.5-24-7.5-30.3c-4-2.8-9.1-3.6-13.8-4.7c-16.5-4-31.5-13.8-41.8-27.2c0.5,14.3-1.9,28.7-7.1,42
		C489,443,488.3,444.7,488.7,446.4z"/>
	<path class="st2" d="M252.2,423.9c-7.6,19.8-15.3,39.6-22.9,59.4c31.2-16.2,65.6-24.9,95.6-42.8c1.7-1,3.4-2,4.5-3.7
		c1.5-2.3,1.5-5.2,1.4-7.9c-0.4-12.4-0.9-24.8-1.4-37.3c-10.6,2.4-21.6,3.5-32.5,3.1c-8.6-0.3-17.6-1.4-25.4,2.2
		C261.2,401.9,256.3,413.4,252.2,423.9z"/>
	<path class="st2" d="M183.9,343.7l64.6,28.1c18.9,8.2,38.3,16.6,58.9,18.9c11.1,1.3,19.7,3.4,23.9-7.7c4-10.6,5.5-23.1,7.5-34.2
		c-19.5,0.3-34.3-18.2-53.3-22.5c-7.9-1.8-16.1-1-24.2,0C235.1,329.7,209.1,335.5,183.9,343.7z"/>
	<path class="st0" d="M192.5,177.5c0,0,0.1,0,0.1,0c31.6,6.7,61.1,23.1,83.5,46.4c-31.3-21.6-66.5-37.5-103.4-46.8
		c33.5,21.6,54.8,57.2,77.4,90.1c19,27.7,41.3,55.9,72.3,70.8c8.6,4.1,13.9,7.7,20.9,1.3c6.1-5.6,10-13.1,16.9-18.4
		c6.8-5.2,33.7-21.3,43.1-15.4l0,0c-33.1-24-79.8-23.7-111.5-49.5c23.1,7,46.4,13.3,69.8,19.1c-16.8-10.3-33.6-20.5-50.4-30.8
		c32.9,9.9,63.1,28.3,87,53c2.1,2.2,4.3,4.5,6.7,6.2c1.9,1.4,4,2.4,6.3,2.7c-3.9-11.8-12.1-21.7-21.1-30.3
		c-20.1-19.3-44.7-33.9-71.3-42.2c42,3.5,83.5,31.2,94.5,71.9c0,0,0,0.1,0,0.1c1.9,0.1,3.9,0.2,5.8,0.3c0-11.9-3.9-23.4-8.9-34.2
		c-19.7-42.2-58.1-75.2-102.7-88.3C270.5,172.4,231,174.8,192.5,177.5z"/>
	<path class="st0" d="M419.2,305.6c0.6-0.6,1.2-1.2,1.8-1.8c8.9,4.5,17.9,8.9,26.6,13.3c7.4-22.7,19.7-40.8,42.8-50.5
		c-1.5-3-4.4-4.8-8.2-5c-3.9-0.2-7.8-0.1-11.7-0.4c-8.6-0.6-16.6-2.9-22.4-11.7c-2.4,18.7-15,30.5-23.3,44.6
		C422.5,297.7,421,301.7,419.2,305.6z"/>
	<path class="st0" d="M436.8,197c3.8-3,9.5-1.8,13.4,1c4,2.7,6.9,6.7,10.7,9.7c7.1,5.5,17.1,7,25.5,3.8c4.3-1.6,8.4-4.5,13-4.6
		c3-0.1,5.8,1,8.6,2c17.7,6.7,37.1,15,44.9,32.2c1.4,3,2.2,6.9,0,9.3c-1.4,1.5-3.7,2-5.7,1.9c-8.1-0.3-17-7-23.4-2
		c-5.6,4.4-4.5,13.1-12.6,13.8c-7.7,0.7-14-9-20.3-12.1c-6.1-3-13.3-2.3-20-3.4c-6.7-1.2-14-6-13.5-12.8c0.4-5.3,5.5-10.6,2.8-15.2
		c-1.9-3.4-6.6-3.6-10.5-4c-5-0.5-10.2-2.2-13.4-6.1c-0.9-1.1-1.5-2.4-1.9-3.8C433.3,203.3,433.9,199.3,436.8,197z M512.9,241.2
		c2.6-0.5,5.2-1.9,7.2-3.6c2.2-1.9,1.8-4.2-1.8-6.7c2.7,4.5,0.7,5.9-2.3,6.6c-1.8,0.4-3.8,0.5-5.6,0.3c-11.1-0.9-20.8-5.5-30.9-11.7
		c10.1-4.6,18.8-1.1,27.9,1.3c-6.2-7.3-21-11.8-29.2-8.6c-2.6,1-5.3,3.7-6.5,6.3c-1.5,3.2,1.3,5.7,3.9,7.4
		C487,240.1,499.3,243.7,512.9,241.2z"/>
	<path class="st0" d="M501.2,319.6c36,7.2,70.5,21.7,100.8,42.4c-18.5-18.2-39.8-33.9-63.9-43.4c-24.1-9.5-51.2-12.5-76.2-5.6
		c13-13.1,31.8-18.6,50-21.2c22.3-3.2,45.5-2.9,66.9,4.3c30.8,10.3,55.6,34.1,73.2,61.3c15.6,24.1,34.4,57.9,38.8,86.5
		c-9.4-14.8-15.7-29.8-28.8-42.5c-13.7-13.3-29.5-17.6-44.8-27.4c26.4,16.9,48.8,40,64.9,66.9c-14.1-19.7-34.3-34.4-56.1-44.8
		c-21.8-10.5-45.3-16.9-68.9-22.3C593.8,386.7,629,404,661.8,425c-0.1,0-0.1,0-0.2-0.1c-50.7-16.5-110.5,2.8-156.8-23.7
		c-2.7-1.5-5.4-3.3-7-5.9c-1.7-2.9-1.9-6.4-2.2-9.8c-2.6-25.8-17.7-50.1-39.7-63.8c0.1,0,0.2-0.1,0.3-0.1
		C469.9,315,486.2,316.6,501.2,319.6z M501,331.8c12.4,4.4,24.7,9,37.1,13.5c-19.7-11.4-39-23.8-62.9-24.1
		c-4.2-0.1-8.5,0.7-12.7,1.7C476,323.2,488.5,327.4,501,331.8z M522.5,303.5c42.2,12,83.1,26.3,115.2,58.1
		C609.3,322.4,569.3,306.2,522.5,303.5z"/>
	<path class="st0" d="M342.6,379.1c-7.1,54.6,11.9,109,32.9,159.9c5.6,13.5,7.5,12.1,7-1.3c-0.3-9.7,0.3-19.4,1.9-28.9
		c1.6-9.6,4.1-19,7.6-28c3.1-8.2,9.7-16.3,12.1-24.5c-9.1,31-18.3,62.5-18.4,94.7c10.8-21.3,25.4-40.5,43.1-56.6
		c15.4-14,33.4-26,44.3-43.7c9.1-14.8,12.5-32.6,13.7-50c1-15,0.5-30.5-4.7-44.6c-5.2-14.1-15.7-26.9-29.9-32c0,0.1-0.1,0.2-0.1,0.2
		c-1.2,2.6-1.1,5.6-1.1,8.4c0.2,32.2-12.2,64.4-34.1,88c13.3-24.4,23.4-50.5,30.1-77.5c0.6-2.6-3.3-25.9-12.7-27
		c4.8,40.9-12.6,80.7-29.5,118.2c6-32.4,14.6-64.3,25.6-95.3c-19.9,25.4-40.2,51.6-49.6,82.5c-1.3-15.1,4.8-29.9,13-42.6
		c8.2-12.7,18.7-23.8,27.7-36c4.7-6.4,9.1-13.4,9.8-21.2c0.2-1.8,0.1-3.8-1-5.3c-1.5-2-4.3-2.5-6.8-2.7c-20-1.9-41.8,0.8-57.2,13.7
		C351.5,339.9,345.1,359.8,342.6,379.1z"/>
	<g>
		<path class="st3" d="M48.8,451.9c-2.5-2.2-2.7-4.9,0.4-6.3c4.2-1.9,8.6-3.9,13-4.4c26-3,52-5.5,78-8.3c6.9-0.7,13.8-1.8,20.7-2.5
			c-7.3,2.3-14.7,4.2-21.8,6.9c-24.7,9.4-47.3,22.3-66.1,41.2c-3.3,3.3-6.3,7.3-8.6,11.5c-5.9,11-1.8,20.4,10.2,24.1
			c8.8,2.7,17.5,1.7,26.7-1.6c-1.6,5.6-0.6,10.7,3.6,14c3.7,3,8.3,5.5,12.9,6.8c12.4,3.6,38.4,6.3,49.4-2.7c2.7-2.2,4.3-5.9,3.5-9.3
			c-1.6-6.6-13.7-7.7-19-9.6c-3.8-1.4-7.5-3.1-11.3-4.7c-3-1.2-3.3-3.3-1.9-5.9c0.4-0.8,0.7-1.6,1.2-2.3c8.8-12.4,17.9-24.4,32.3-31
			c19.8-9,39.7-18.1,59.6-27c1.4-0.6,3-0.9,5-1.6c-0.3,1.3-0.4,1.9-0.7,2.5c-5.5,11.1-11,22.1-16.4,33.3c-4.7,9.7-11,18-18.8,25.4
			c-2.5,2.4-3,5.3-1,8.3c2.1,3.1,6.2,3.6,9.7,1.1c29.3-20.3,62.7-34.7,95.3-48.7c10.9-4.7,18.7-12.9,25.7-21.1
			c3,11.9,6.1,24.1,9.2,36.3c2.6,11.1,8.4,20.6,12.3,31.1c4.5,11.7,9.2,23.4,14.2,34.8c5.3,12,9.1,25.7,16.8,36.4
			c2.3,3.2,7.4,0.9,7-2.8c-0.8-8.8,1.3-17.4,6.3-24.7c0.1-0.2,0.2-0.3,0.3-0.5c11.1-16.8,26.6-29.5,40.5-43.7
			c8.6-8.8,18.5-16.3,27.5-24.7c9.8-9.1,17-20.1,23.3-32.2c5.7,4.9,9.6,11.1,12.1,17.8c3.5,9.2,6.6,18.6,9.2,28.2
			c5.3,19.2,15.4,35.2,29.6,49.1c5.5,5.4,10.4,11.3,15.5,17c0.8,0.9,1.5,1.8,2.2,2.7c3.8,4.5,6.9,5.6,10,3.6c3.1-2,3.5-5.2,0.3-10.4
			c-4.7-7.8-4.1-16.8-6.2-25.2c-1.6-6.2-0.6-12.3,0.5-18.5c2.6-13.6,4.9-27.2,6.5-40.9c1.8-15,0.3-29.7-10-42.6
			c2.9,0.1,5,0.3,7.1,0.3c13.8,0.1,27.6-0.2,41.3,0.3c12.6,0.5,25.6,0.4,37.7,3.4c22.4,5.5,41.7,21.7,43.1,49.5c0.2,4,1.2,7.4,5.6,8
			c4.4,0.6,7-2.2,7.8-6c1.4-6.6,2.5-13.3,3.1-20.1c0.4-4.3-0.6-8.7-0.2-13c0.8-9-1.5-17.1-4.5-25.4c-10.5-28.2-23.4-55.2-39.1-80.8
			c-13.1-21.2-31.1-37.9-52.1-51.2c-0.8-0.5-1.5-1.3-2.2-2c-0.2-0.2-0.5-0.5-0.7-0.7c-4.4-2-8.9-4-13.3-6.1c7.1-1,13.9-1.1,20.7-1.1
			c15.6,0,30.7-2.5,45.2-8.3c18.2-7.3,36.3-14.9,54.4-22.6c11.6-4.9,22.8-11.1,35.5-12.8c2.4-0.3,4.8-1.1,7.2-1.9
			c12.5-3.8,25-7.7,38.3-8c3.2-0.1,6.4,0.3,9.6,0.4c-1.2,1.7-2.3,2.5-3.6,2.9c-11.1,3.5-22.2,6.9-33.2,10.5
			c-9.7,3.2-19.2,6.8-28.8,10.1c-23.4,7.8-47,15.4-70.4,23.3c-16.3,5.5-32.8,10-50,11.3c-3.2,0.2-6.3,1-9.4,1.5
			c31.1,1.2,61.3-3,90.9-13.1c32.2-10.9,64.8-20.9,97.1-31.3c5.3-1.7,10.4-3.7,15.5-5.8c3.9-1.7,6.9-4.4,7-9.1
			c0.1-4.7-2.5-8.1-6.5-9.5c-5.1-1.7-10.7-2.8-16-3c-5.9-0.1-11.8,1.1-18.1,1.8c6.7-5.4,13.3-10.6,19.5-16c3.3-2.8,6.4-5.9,9.1-9.3
			c3.3-4.2,3.3-8.5,0.8-12.1c-2.6-3.7-7.7-5.6-12.5-3.6c-8.1,3.3-16.4,6.4-23.8,10.9c-27.1,16.6-56.8,27.4-85.5,40.6
			c-0.2,0.1-0.5,0-1.3-0.6c8.1-6,15.8-12.5,24.2-18c16.5-10.8,33.6-20.9,50-31.7c5.6-3.7,10.4-8.8,15.1-13.7c2.3-2.3,4-5.4,5.3-8.4
			c3.4-8.2-0.5-15.2-9.3-15.4c-6-0.1-12.4,1.4-18.2,3.4c-8.2,2.9-15,8.2-20.3,15.3c-3.6,4.8-7.8,9.1-10.9,14.2
			c-7.2,11.7-18.2,18.4-30.2,24.1c-12,5.6-24.2,10.9-35.4,17.8c-13.4,8.1-23.3,20.4-33.7,32c-2.7,3-6.2,5.4-10.2,8.7
			c6.4-19.2,12.1-37.1,15.4-55.7c3.8-20.9,11.7-40.4,27.4-55.5c11.5-11.1,25.4-18.4,42.2-18c4.9,0.1,8.1-2,8.9-5.8
			c0.8-4-1.3-7-5.9-8.8c-10.1-4.1-20.2-8.3-30.2-12.7c-26.1-11.6-53.3-14.6-81.5-10.5c-3.3,0.5-6.6,1.2-9.7,2.4
			c-22.5,8.9-44.3,18.9-62.9,35.1c-8.2,7.2-16.6,14.2-24,22.2c-5.8,6.3-21.2,31.8-22.6,40.6c13.6-17.8,39.1-44.8,56.7-56.1
			c18.4-11.8,38.5-20,58.9-27.2c15.7-5.6,32.4-5,48.7-2.3c8.8,1.5,17.5,4.2,26.1,7c-16.1,0.6-31.2,4.4-45.3,11.8
			c-5.1,2.7-9.4,7.1-13.8,11.1c20.9-13.4,44.6-14.2,68.3-15.3c-4.3,2.4-8.6,4.6-12.8,7.1c-14.1,8.6-23.6,21.5-30.9,35.9
			c-6.9,13.7-12,28-14.7,43.2c-2.4,13.1-4.2,26.6-8.7,39.1c-4,10.9-10.2,21.7-23.5,24.8c-7.3,1.7-14.5,3.8-21.7,5.7
			c-0.5,0.1-1.2,0-1.7-0.1c-12.6-2.8-24.8,0.5-37.1,2.7c-14.6,2.5-28,7.7-40.4,15.7c-6.1,3.9-10.5,9.2-13.7,15.5l1.1,0.6
			c13-13.1,31.8-18.6,50-21.2c22.3-3.2,45.5-2.9,66.9,4.3c30.8,10.3,55.6,34.1,73.2,61.3c15.6,24.1,34.4,57.9,38.8,86.5
			c-9.4-14.8-15.7-29.8-28.8-42.5c-13.7-13.3-29.5-17.6-44.8-27.4c26.4,16.9,48.8,40,64.9,66.9c-14.1-19.7-34.3-34.4-56.1-44.8
			c-21.8-10.5-45.3-16.9-68.9-22.3C593.8,386.7,629,404,661.8,425c-0.1,0-0.1,0-0.2-0.1c-50.7-16.5-110.5,2.8-156.8-23.7
			c-2.7-1.5-5.4-3.3-7-5.9c-1.7-2.9-1.9-6.4-2.2-9.8c-2.6-25.8-17.7-50.1-39.7-63.8c0.1,0,0.2-0.1,0.3-0.1l-0.1-0.1l-1.4,0.2
			c-0.3-1.3-1.1-3-0.6-3.9c2.8-5.4,5.6-10.8,9.1-15.8c4.6-6.6,9.4-13,14.8-18.8c4.1-4.4,9.2-7.9,14.1-11.3c1.2-0.8,3.9-0.6,5.4,0.2
			c5.4,2.7,10.9,3.9,16.9,3.2c7.1-0.8,11.8-4.6,13.9-11.4c0.6-1.8,1.1-3.6,1.8-5.9c2.2,0.3,4.2,0.7,6.3,0.9
			c3.4,0.4,6.9,1.1,10.4,1.2c4.9,0,9.3-1.6,11.6-6.3c2.4-4.8,2.1-9.8-1.2-14c-3.8-4.9-8.2-9.4-12.3-14.1c-1-1.2-1.7-2.7-2.9-3.7
			c-0.9-0.8-2.4-0.9-3.5-1.6c-8.9-6-17.9-11.9-26.6-18.2c-7.4-5.4-14.9-7-23.7-3.4c-8.1,3.2-16,3.1-21.8-5c-1.3-1.7-2.9-3.2-4.3-4.8
			c-1.1-0.6-2.3-1.1-3.2-1.8c-15.7-11.5-35.1-1.9-39.1,13.4c-6.4-12.4-12.9-24.9-19.4-37.4c-0.5,0.2-0.9,0.4-1.4,0.7
			c1.6,3.5,3.3,7,4.8,10.6c7.4,17.4,14.6,34.9,16.7,54c1.9,17.3,2.9,34.7,1.7,52.2c-0.1,1.1,0,2.3,0.1,3.5
			c1.3-12.9,3.2-25.8,3.9-38.8c0.5-9.3-0.7-18.7-1-26.6c5.5,3.4,11.8,7.2,18.1,11.1c0,2.6-0.8,6.1,0.1,9.1c1.4,4.7,0.6,9-1.3,13.1
			c-6.6,13.4-13.5,26.7-20.8,41.2c0.4-3,0.7-5,0.9-6.9c-0.3-0.2-0.9-0.4-1-0.7c-0.1-0.3-0.2-0.7-0.3-1.1c-2.3-8.7-4.6-17.4-6.9-26.2
			c0,0,0,0,0,0c-0.9-0.6-2.1-1-2.6-1.8c-5.7-9.4-10.3-19.7-17.1-28.3c-13.6-17.3-29.7-30.6-47.8-40.4c0.4,1,0.7,1.9,0.9,2.5
			c-1.1-1-2.3-2.4-3.6-3.9c-15.4-7.9-32.1-13.5-50-16.8c-13.4-2.5-27.4-3.2-41.1-3.3c-29.9-0.4-59.8,0.3-89.7,0.2
			c-5,0-10-2.2-15-3.5c-2.8-0.7-5.5-2-8.3-2.6c-3-0.7-5.5,0.5-6.6,3.6c-1.1,3.1,0,5.7,2.7,7c3.5,1.7,7.3,2.7,11,4
			c4,1.5,8.3,2.5,12,4.6c29.4,16,50,40.4,66.8,68.8c11.9,20.1,25,39.6,40.7,57c4.7,5.2,9.9,9.7,15,14.6c1.1,1.1,2.3,2.1,3.4,3.1
			c-8.6-0.5-16.9-1.3-25.3-1.4c-19.7-0.4-38.5,4.9-57.5,8.9c-12.3,2.6-25,3.4-37.5,4.6c-2.9,0.3-6-0.8-9-1.4
			c-2.1-0.4-4.2-1.1-6.4-1.4c-3-0.4-5.1,1.1-5.6,4.2c-0.5,2.9,1,4.7,3.8,5.5c25.7,6.9,49.9,17.6,74.4,27.7
			c13.5,5.6,26.8,11.9,40.1,17.9c-0.8,0.2-2.1,0.5-3.4,0.7c-24.1,4.3-48.4,6-72.8,6.9c-20,0.7-39.4,5.3-59,8.8
			c-22.4,4-44.9,7.9-67.3,12.1c-10.9,2-20.6,6.8-28.6,14.8C16.9,444,20,461,37.3,468.3c4,1.7,8.3,2.6,12.6,3.2
			c4,0.5,8.1-0.4,9.7-4.8c1.6-4.4-1.2-7.1-4.2-9.6C53.2,455.3,50.9,453.7,48.8,451.9z M724,191.6c11.9-15.2,21.1-33,43.7-35.5
			C764.2,166.1,734.6,189.9,724,191.6z M675.9,223.5c-2.6,2.1-5.3,4-8,6c-20.5,14.7-40.4,30.4-62.9,42.3c-3.3,1.7-5.8,1.6-9,0.1
			c3.4-4.6,7.8-6.8,13.1-8.3c5.7-1.7,11.2-4.8,16.3-7.9c4.8-2.9,9.1-6.7,13.7-10C650.8,237.3,662.4,228.9,675.9,223.5z M580.4,283.6
			c10.7-2.9,21.1-5.9,31.6-8.4c25.5-6.1,48.9-17.7,72.7-28.2c31.4-13.9,62.6-28.1,92.3-45.6c4.6-2.7,10-4.1,15.3-6.3
			c-7.8,8.8-27.7,23.7-38.6,28.5c-36.3,16-72.7,31.9-109.1,47.8c-16.4,7.2-34,9.9-51.2,13.9C588.5,286.4,584.7,285,580.4,283.6z
			 M338.8,348.8c-2,11.1-3.5,23.6-7.5,34.2c-4.1,11.1-12.7,8.9-23.9,7.7c-20.6-2.4-40-10.8-58.9-18.9l-64.6-28.1
			c25.2-8.2,51.1-14,77.4-17.3c8-1,16.3-1.8,24.2,0C304.5,330.6,319.3,349.1,338.8,348.8z M419.2,305.9c-1.9-0.1-3.9-0.2-5.8-0.3
			c0,0,0-0.1,0-0.1l-2.1,0.6c-2.3-0.4-4.4-1.4-6.3-2.7l-1.6,2c0.1,0.1,0.3,0.2,0.4,0.3c-0.1-0.1-0.3-0.2-0.4-0.3
			c-9.4-5.9-36.4,10.2-43.1,15.4c-6.9,5.3-10.7,12.8-16.9,18.4c-7,6.4-12.4,2.8-20.9-1.3c-30.9-14.9-53.2-43.1-72.3-70.8
			c-22.6-32.9-43.9-68.5-77.4-90.1c36.9,9.3,72.1,25.3,103.4,46.8c-22.4-23.3-51.9-39.7-83.5-46.4c0,0-0.1,0-0.1,0
			c38.5-2.7,78-5.1,115,5.9c44.6,13.2,83,46.2,102.7,88.3C415.2,282.5,419.1,294,419.2,305.9z M470.8,248.7c-6.7-1.2-14-6-13.5-12.8
			c0.4-5.3,5.5-10.6,2.8-15.2c-1.9-3.4-6.6-3.6-10.5-4c-5-0.5-10.2-2.2-13.4-6.1c-0.9-1.1-1.5-2.4-1.9-3.8c-1-3.5-0.3-7.6,2.5-9.8
			c3.8-3,9.5-1.8,13.4,1c4,2.7,6.9,6.7,10.7,9.7c7.1,5.5,17.1,7,25.5,3.8c4.3-1.6,8.4-4.5,13-4.6c3-0.1,5.8,1,8.6,2
			c17.7,6.7,37.1,15,44.9,32.2c1.4,3,2.2,6.9,0,9.3c-1.4,1.5-3.7,2-5.7,1.9c-8.1-0.3-17-7-23.4-2c-5.6,4.4-4.5,13.1-12.6,13.8
			c-7.7,0.7-14-9-20.3-12.1C484.7,249.1,477.5,249.8,470.8,248.7z M447.6,317c-8.7-4.4-17.6-8.8-26.6-13.3c-0.6,0.6-1.2,1.2-1.8,1.8
			c1.8-3.8,3.3-7.9,5.4-11.5c8.4-14.1,20.9-25.9,23.3-44.6c5.8,8.8,13.8,11.1,22.4,11.7c3.9,0.3,7.8,0.2,11.7,0.4
			c3.8,0.2,6.7,2,8.2,5C467.3,276.2,455,294.3,447.6,317z M488.7,446.4c-0.4-1.7,0.3-3.4,0.9-5c5.2-13.3,7.6-27.7,7.1-42
			c10.4,13.4,25.4,23.2,41.8,27.2c4.8,1.2,9.8,1.9,13.8,4.7c9,6.3,8.8,19.4,7.5,30.3c-2.8,22.9-3.7,54-13.8,74.8
			c-29.8-14.5-29.8-64.2-54.1-85.8C490.7,449.3,489.2,448.1,488.7,446.4z M369.8,525.1c-18.6-46.8-33.7-96.3-27.2-146
			c2.5-19.3,8.9-39.2,23.8-51.8c15.4-13,37.1-15.6,57.2-13.7c2.5,0.2,5.3,0.7,6.8,2.7c1.1,1.5,1.2,3.5,1,5.3
			c-0.7,7.9-5.1,14.9-9.8,21.2c-9,12.2-19.4,23.3-27.7,36c-8.2,12.7-14.3,27.6-13,42.6c9.3-30.9,29.7-57.1,49.6-82.5
			c-11.1,31-19.6,62.9-25.6,95.3c17-37.5,34.3-77.3,29.5-118.2c9.4,1.1,13.3,24.4,12.7,27c-6.7,27-16.9,53.1-30.1,77.5
			c21.9-23.7,34.3-55.8,34.1-88c0-2.9-0.1-5.9,1.1-8.4c0-0.1,0.1-0.2,0.1-0.2c14.2,5.1,24.7,17.9,29.9,32
			c5.2,14.1,5.7,29.6,4.7,44.6c-1.2,17.4-4.6,35.1-13.7,50c-10.9,17.7-28.9,29.7-44.3,43.7c-17.6,16-32.3,35.3-43.1,56.6
			c0.1-32.3,9.3-63.8,18.4-94.7c-2.4,8.2-9,16.3-12.1,24.5c-3.4,9.1-6,18.5-7.6,28c-1.6,9.6-2.2,19.3-1.9,28.9
			c0.4,11.1-0.8,14-4.4,7.1c-0.2-0.8-0.4-1.6-0.6-2.4C375.8,536.3,373,530.6,369.8,525.1z M252.2,423.9c4.1-10.6,9-22.1,19.2-26.9
			c7.8-3.7,16.8-2.5,25.4-2.2c10.9,0.4,21.9-0.6,32.5-3.1c0.4,12.4,0.9,24.8,1.4,37.3c0.1,2.7,0.1,5.6-1.4,7.9
			c-1.1,1.6-2.8,2.7-4.5,3.7c-30,17.9-64.5,26.6-95.6,42.8C236.9,463.5,244.5,443.7,252.2,423.9z M189.1,448.7
			c17.3-8.5,35.4-17.3,53.5-26.2c0.3,0.3,0.7,0.6,1.1,0.9c-0.7,2.1-1.5,4.1-2.1,6.3c-1.6,5.8-4.8,8.5-11.3,9.6
			C216.1,441.6,202.3,445.6,189.1,448.7z M103.1,514.6c0.9-4.8,6.6-7,8.8-11.3c2.6-4.8,0.1-11.1,2.3-16.1c1.4-3.3,4.6-5.4,7.7-7.3
			c7-4.3,14.2-8.3,21.6-11.9c-4.7,6.2-9.3,12.3-14,18.5c-4.2,5.6-8.7,12-7.9,18.9c0.6,5.2,4.2,9.8,8.6,12.7c4.1,2.7,8.9,4,13,6.3
			c-8.2,5.4-21.6,4.1-30.6,1.1C107.6,523.9,102.1,519.8,103.1,514.6z M195.3,433c-2.7,8.6-26.7,11.9-34.7,14.9
			c-13.9,5.3-27.6,11.2-40.9,17.9c-8.6,4.3-18,10.2-19.4,19.7c-0.6,4.3,0.5,9.1-1.8,12.8c-3.5,5.7-12,4.8-18.5,3.1
			c-1.4-0.4-2.9-0.8-3.7-2c-1.4-2.1,0.2-4.8,1.8-6.8c14.4-17.1,33.7-29.6,54.1-38.7C152.2,445,174,437.8,195.3,433z M75.9,425.6
			c0-0.3-0.1-0.6-0.1-1c0.8-0.3,1.6-0.7,2.4-0.8c36.4-6,72.7-12.7,109.2-17.8c25.8-3.6,51.4-7.7,76.1-16.5c3.9-1.4,6.8-0.5,10.3,1.3
			c-10.1,4-17.7,10.2-23.9,18.4c-0.7,1-2.2,1.8-3.4,1.9c-11.1,1.3-22.2,2.5-33.3,3.8c-3.4,0.4-6.9,1.8-10.2,1.7
			c-32.6-0.9-65,2.1-97.3,6C95.7,423.8,85.8,424.6,75.9,425.6z"/>
		<path class="st3" d="M462.1,189C462.1,189,462.1,189,462.1,189c0,0,0.2,0.1,0.2,0.1c0-0.2-0.1-0.4-0.1-0.6
			C462.1,188.6,462.1,188.8,462.1,189z"/>
		<path class="st3" d="M343.5,186.3c1.3,1.6,2.5,2.9,3.6,3.9c-0.2-0.7-0.5-1.5-0.9-2.5C345.4,187.2,344.5,186.7,343.5,186.3z"/>
		<path class="st3" d="M313.2,48.5c24.4,19.3,43.8,42.7,57.6,70.7c2.2,4.5,4.9,8.8,7.5,13.2c-9.5-29.5-21.2-57.6-48.9-77.1
			c1.8,0.3,2.2,0.2,2.5,0.4c15.6,7.4,31.5,14.5,46.8,22.4c26.2,13.6,48.6,32,65.2,56.5c9.8,14.5,15.3,30.9,17,48.5
			c0.2,1.8,0.7,3.5,1.1,5.3c2.2-35.6-10.7-64.8-36.6-89c-14.4-13.4-30.1-24.6-48-32.8c-25.9-11.9-51.8-23.9-77.5-36.1
			c-4.5-2.1-8.3-5.7-12.5-8.4c-2.5-1.7-5.1-3.1-7.7-4.7c-1.6,0.7-3.2,1.3-4.9,2c-2.5,5.1-1.9,7.8,2.3,11
			c12.1,9.3,20.5,21.6,28.2,34.5c2.1,3.6,3.6,7.6,5.5,11.4c5.3,11.3,8.3,23,8.6,35.7c0.3,12.8,2.4,25.7,4.6,38.4
			c1.5,8.4,11.7,26.4,19.5,35.9c0.9,0.5,1.8,0.9,2.7,1.4c-3.1-7.6-12.2-23.9-13.7-28.9c-1.8-5.7-2.5-11.7-2.3-17.7
			c0.3-8.7-0.2-17.5,0.9-26.1c2-15.6-2.3-29.7-9.2-43.2c-4.5-8.8-9.2-17.4-14.1-26.5C309.7,46.3,311.6,47.2,313.2,48.5z"/>
		<path class="st3" d="M311.3,244.2c16.8,10.3,33.6,20.5,50.4,30.8c-23.4-5.8-46.7-12.2-69.8-19.1c31.7,25.8,78.4,25.6,111.5,49.5
			l1.6-2c-2.4-1.7-4.6-4-6.7-6.2C374.4,272.5,344.1,254.1,311.3,244.2z"/>
		<path class="st3" d="M390.1,275.8c9,8.6,17.2,18.5,21.1,30.3l2.1-0.6c-11-40.7-52.5-68.4-94.5-71.9
			C345.4,242,370,256.5,390.1,275.8z"/>
		<path class="st3" d="M413.7,258.2C413.7,258.2,413.7,258.2,413.7,258.2C413.7,258.2,413.8,258.2,413.7,258.2l0.1,0.1
			C413.8,258.2,413.8,258.2,413.7,258.2z"/>
		<path class="st3" d="M413.7,257.9c0,0.1,0,0.2,0,0.3c0,0,0.1,0,0.1,0.1C413.8,258.1,413.8,258,413.7,257.9z"/>
		<path class="st3" d="M413.8,258.2C413.8,258.2,413.8,258.3,413.8,258.2L413.8,258.2L413.8,258.2z"/>
		<path class="st3" d="M413.8,258.2L413.8,258.2L413.8,258.2C413.8,258.2,413.8,258.2,413.8,258.2z"/>
		<path class="st3" d="M411.4,218.1c-2.8-13.4-6.8-26.7-10.3-40c-0.5,0.1-1,0.2-1.5,0.4c2.2,9.1,4.8,18.2,6.4,27.4
			c2.6,15.9,4.5,31.9,6.7,47.8c0.2,1.4,0.7,2.8,1,4.2C415.2,244.5,414.1,231.1,411.4,218.1z"/>
		<path class="st3" d="M460.1,313.9c-1.2,2.6-2.6,5.1-4,7.7l0.1,0.1c13.8-6.7,30.1-5.1,45.1-2.1c36,7.2,70.5,21.7,100.8,42.4
			c-18.5-18.2-39.8-33.9-63.9-43.4c-24.1-9.5-51.2-12.5-76.2-5.6l-1.1-0.6C460.6,312.8,460.3,313.3,460.1,313.9z"/>
		<path class="st3" d="M475.2,321.2c-4.2-0.1-8.5,0.7-12.7,1.7c13.5,0.3,26.1,4.4,38.5,8.9c12.4,4.4,24.7,9,37.1,13.5
			C518.4,333.9,499,321.6,475.2,321.2z"/>
		<path class="st3" d="M512.9,241.2c2.6-0.5,5.2-1.9,7.2-3.6c2.2-1.9,1.8-4.2-1.8-6.7c2.7,4.5,0.7,5.9-2.3,6.6
			c-1.8,0.4-3.8,0.5-5.6,0.3c-11.1-0.9-20.8-5.5-30.9-11.7c10.1-4.6,18.8-1.1,27.9,1.3c-6.2-7.3-21-11.8-29.2-8.6
			c-2.6,1-5.3,3.7-6.5,6.3c-1.5,3.2,1.3,5.7,3.9,7.4C487,240.1,499.3,243.7,512.9,241.2z"/>
		<path class="st3" d="M523,200.9c13.8-14.7,27.7-29.4,41.5-44.1c-0.3-0.3-0.5-0.5-0.8-0.7C547.4,168.5,531.9,181.6,523,200.9z"/>
		<path class="st3" d="M532.8,199.5c-0.4,0.6-8.5,15-1.9,12.2c-0.7,0.3,3.8-9.6,4.6-10.6c3.8-5.4,9.4-10.2,13.9-15
			c7.5-7.8,15.4-15.3,23.1-22.9c-8.1,8-19.9,12.1-28.1,20.9C540,188.8,536.2,194,532.8,199.5z"/>
		<path class="st3" d="M522.5,303.5c42.2,12,83.1,26.3,115.2,58.1C609.3,322.4,569.3,306.2,522.5,303.5z"/>
		<path class="st3" d="M548.2,223c8.6-12.5,17.1-24.9,25.7-37.4C562.2,195.8,553.1,208,548.2,223z"/>
	</g>
</g>
</svg>
