<?xml version="1.0" encoding="utf-8"?>
<!-- Generator: Adobe Illustrator 26.0.3, SVG Export Plug-In . SVG Version: 6.00 Build 0)  -->
<svg version="1.1" id="Layer_1" xmlns="http://www.w3.org/2000/svg" xmlns:xlink="http://www.w3.org/1999/xlink" x="0px" y="0px"
	 viewBox="0 0 150 58" style="enable-background:new 0 0 150 58;" xml:space="preserve">
<style type="text/css">
	.st0{fill:#FFF5D1;}
	.st1{fill:#886E55;}
	.st2{fill:#B6D783;}
	.st3{fill:#3F3118;}
</style>
<g>
	<path class="st0" d="M73.8,28.5c0.7-1.5,1.4-2.8,2.1-4.2c0.2-0.4,0.3-0.8,0.1-1.3c-0.1-0.3,0-0.7,0-0.9c-0.6-0.4-1.3-0.8-1.8-1.1
		c0,0.8,0.2,1.8,0.1,2.7c-0.1,1.3-0.3,2.6-0.4,3.9l-0.2,0c0,0,0,0.1,0,0.1c0,0,0.1,0,0.1,0.1C73.9,28,73.8,28.2,73.8,28.5z"/>
	<path class="st0" d="M85.4,19.1c0.4-0.5,1-1,1.4-1.5c0.8-0.8,1.6-1.6,2.3-2.3c-0.8,0.8-2,1.2-2.9,2.1c-0.4,0.5-0.8,1-1.2,1.6
		c0,0.1-0.9,1.5-0.2,1.2C84.9,20.2,85.3,19.2,85.4,19.1z M77.4,31.4l-0.1,0c0-0.1-0.1-0.3-0.1-0.4c0.3-0.5,0.6-1.1,0.9-1.6
		c0.5-0.7,1-1.3,1.5-1.9c0.4-0.4,0.9-0.8,1.4-1.1c0.1-0.1,0.4-0.1,0.6,0c0.5,0.3,1.1,0.4,1.7,0.3c0.7-0.1,1.2-0.5,1.4-1.2
		c0.1-0.2,0.1-0.4,0.2-0.6c0.2,0,0.4,0.1,0.6,0.1c0.4,0,0.7,0.1,1.1,0.1c0.5,0,0.9-0.2,1.2-0.6c0.2-0.5,0.2-1-0.1-1.4
		c-0.4-0.5-0.8-1-1.2-1.4c-0.1-0.1-0.2-0.3-0.3-0.4c-0.1-0.1-0.2-0.1-0.4-0.2c-0.9-0.6-1.8-1.2-2.7-1.8c-0.8-0.5-1.5-0.7-2.4-0.3
		c-0.8,0.3-1.6,0.3-2.2-0.5c1.4-1.8,4-4.6,5.8-5.7c1.9-1.2,3.9-2,6-2.8c1.6-0.6,3.3-0.5,5-0.2c0.9,0.1,1.8,0.4,2.7,0.7
		c-1.6,0.1-3.2,0.4-4.6,1.2c-0.5,0.3-1,0.7-1.4,1.1c2.1-1.4,4.5-1.4,6.9-1.6c-0.4,0.2-0.9,0.5-1.3,0.7c-1.4,0.9-2.4,2.2-3.1,3.6
		c-0.7,1.4-1.2,2.9-1.5,4.4c-0.2,1.3-0.4,2.7-0.9,4c-0.4,1.1-1,2.2-2.4,2.5c-0.7,0.2-1.5,0.4-2.2,0.6c-0.1,0-0.1,0-0.2,0
		c-1.3-0.3-2.5,0.1-3.8,0.3c-1.5,0.3-2.8,0.8-4.1,1.6c-0.6,0.4-1.1,0.9-1.4,1.6c0,0.1-0.1,0.1-0.1,0.2
		C77.6,30.9,77.5,31.1,77.4,31.4z M88.3,14.6c-1.7,1.3-3.2,2.6-4.1,4.6C85.6,17.6,87,16.1,88.3,14.6C88.3,14.6,88.3,14.6,88.3,14.6z
		 M86.7,21.4c0.9-1.3,1.7-2.5,2.6-3.8C88.1,18.6,87.2,19.8,86.7,21.4z"/>
	<path class="st0" d="M71.5,15.4c0,0,0.1,0,0.1-0.1c0.7,1.3,1.3,2.5,2,3.8c0.4-1.6,2.4-2.5,4-1.4c0.1,0.1,0.2,0.1,0.3,0.2
		c0,0,0,0,0-0.1c0-0.2-0.1-0.4-0.1-0.5c-0.2-1.8-0.7-3.5-1.7-4.9c-1.7-2.5-4-4.4-6.6-5.7c-1.6-0.8-3.2-1.5-4.8-2.3c0,0-0.1,0-0.3,0
		c2.8,2,4,4.8,5,7.8c-0.3-0.4-0.5-0.9-0.8-1.3c-1.4-2.8-3.4-5.2-5.9-7.2c-0.2-0.1-0.4-0.2-0.5-0.3c0.5,0.9,1,1.8,1.4,2.7
		c0.7,1.4,1.1,2.8,0.9,4.4c-0.1,0.9-0.1,1.8-0.1,2.7c0,0.6,0,1.2,0.2,1.8c0.2,0.5,1.1,2.2,1.4,2.9c1.8,1,3.5,2.3,4.9,4.1
		c0.7,0.9,1.2,1.9,1.7,2.9c0,0.1,0.2,0.1,0.3,0.2c0,0,0,0,0,0c0-0.1-0.1-0.3-0.1-0.4c-0.2-1.6-0.4-3.2-0.7-4.9
		c-0.2-0.9-0.4-1.9-0.6-2.8c0,0,0.1,0,0.1,0c0.4,1.4,0.8,2.7,1,4.1c0.3,1.3,0.4,2.7,0.2,4.1c0,0,0,0,0,0c0,0,0,0,0,0l0,0
		c0,0,0,0,0,0c0,0,0,0,0,0c0.2,0.9,0.5,1.8,0.7,2.7l0.2,0c0-0.1,0-0.2,0-0.4c0.1-1.8,0-3.5-0.2-5.3c-0.2-1.9-0.9-3.7-1.7-5.5
		C71.9,16.1,71.7,15.7,71.5,15.4z"/>
	<path class="st1" d="M38.9,48.8c-0.2,0.2-0.3,0.5-0.2,0.7c0.1,0.1,0.2,0.2,0.4,0.2c0.7,0.2,1.5,0.3,1.9-0.3
		c0.2-0.4,0.1-0.9,0.2-1.3c0.1-1,1.1-1.6,2-2c1.4-0.7,2.7-1.3,4.2-1.8c0.8-0.3,3.2-0.6,3.5-1.5c-2.2,0.5-4.4,1.2-6.4,2.1
		C42.4,45.8,40.4,47,38.9,48.8z"/>
	<path class="st1" d="M41.5,51c-0.1,0.5,0.5,0.9,1,1.1c0.9,0.3,2.3,0.4,3.1-0.1c-0.4-0.2-0.9-0.4-1.3-0.6c-0.4-0.3-0.8-0.8-0.9-1.3
		c-0.1-0.7,0.4-1.4,0.8-1.9c0.5-0.6,0.9-1.3,1.4-1.9c-0.8,0.4-1.5,0.8-2.2,1.2c-0.3,0.2-0.6,0.4-0.8,0.7c-0.2,0.5,0,1.1-0.2,1.6
		C42.1,50.3,41.6,50.5,41.5,51z"/>
	<path class="st1" d="M50.2,44.3c1.3-0.3,2.8-0.7,4.2-1c0.7-0.1,1-0.4,1.1-1c0.1-0.2,0.1-0.4,0.2-0.6c0,0-0.1-0.1-0.1-0.1
		C53.8,42.5,52,43.4,50.2,44.3z"/>
	<path class="st1" d="M38.7,41.9C38.7,41.9,38.7,41.9,38.7,41.9c1,0,2-0.1,3-0.2c3.3-0.4,6.6-0.7,9.9-0.6c0.3,0,0.7-0.1,1-0.2
		c1.1-0.1,2.3-0.2,3.4-0.4c0.1,0,0.3-0.1,0.3-0.2c0.6-0.8,1.4-1.5,2.4-1.9c-0.4-0.2-0.7-0.3-1-0.1c-2.5,0.9-5.1,1.3-7.7,1.7
		c-3.7,0.5-7.4,1.2-11.1,1.8C38.9,41.8,38.8,41.8,38.7,41.9z"/>
	<path class="st1" d="M91.6,26.3c0.3,0.2,0.6,0.2,0.9,0c2.3-1.2,4.3-2.8,6.4-4.3c0.3-0.2,0.5-0.4,0.8-0.6c-1.4,0.5-2.6,1.4-3.7,2.3
		c-0.5,0.3-0.9,0.7-1.4,1c-0.5,0.3-1.1,0.6-1.7,0.8C92.4,25.7,91.9,25.9,91.6,26.3z"/>
	<path class="st1" d="M104.6,18.2c1.1-0.2,4.1-2.6,4.4-3.6C106.7,14.8,105.8,16.6,104.6,18.2z"/>
	<path class="st1" d="M90,27.5c0.4,0.1,0.8,0.3,1.3,0.2c1.8-0.4,3.5-0.7,5.2-1.4c3.7-1.6,7.4-3.2,11.1-4.9c1.1-0.5,3.1-2,3.9-2.9
		c-0.5,0.2-1.1,0.4-1.6,0.6c-3,1.8-6.2,3.2-9.4,4.6c-2.4,1.1-4.8,2.2-7.4,2.9C92.1,26.9,91.1,27.2,90,27.5z"/>
	<path class="st1" d="M92.6,28.4c0.3-0.1,0.6-0.1,1-0.1c1.8-0.1,3.4-0.6,5.1-1.2c2.4-0.8,4.8-1.6,7.2-2.4c1-0.3,1.9-0.7,2.9-1
		c1.1-0.4,2.3-0.7,3.4-1.1c0.1,0,0.3-0.1,0.4-0.3c-0.3,0-0.7,0-1,0c-1.3,0-2.6,0.4-3.9,0.8c-0.2,0.1-0.5,0.2-0.7,0.2
		c-1.3,0.2-2.4,0.8-3.6,1.3c-1.8,0.8-3.7,1.6-5.5,2.3c-1.5,0.6-3,0.8-4.6,0.8c-0.7,0-1.4,0-2.1,0.1c0.5,0.2,0.9,0.4,1.4,0.6
		c0,0,0,0,0.1,0.1L92.6,28.4z"/>
	<path class="st2" d="M80.7,44.1c0,0.2,0.2,0.3,0.3,0.4c2.5,2.2,2.5,7.3,5.5,8.7c1-2.1,1.1-5.3,1.4-7.6c0.1-1.1,0.1-2.4-0.8-3.1
		c-0.4-0.3-0.9-0.4-1.4-0.5c-1.7-0.4-3.2-1.4-4.3-2.8c0.1,1.5-0.2,2.9-0.7,4.3C80.7,43.7,80.6,43.9,80.7,44.1z"/>
	<path class="st2" d="M56.6,41.8c-0.8,2-1.6,4-2.3,6c3.2-1.6,6.7-2.5,9.7-4.3c0.2-0.1,0.3-0.2,0.5-0.4c0.2-0.2,0.1-0.5,0.1-0.8
		c0-1.3-0.1-2.5-0.1-3.8c-1.1,0.2-2.2,0.4-3.3,0.3c-0.9,0-1.8-0.1-2.6,0.2C57.5,39.6,57,40.7,56.6,41.8z"/>
	<path class="st2" d="M49.7,33.6l6.6,2.9c1.9,0.8,3.9,1.7,6,1.9c1.1,0.1,2,0.3,2.4-0.8c0.4-1.1,0.6-2.3,0.8-3.5
		c-2,0-3.5-1.9-5.4-2.3c-0.8-0.2-1.6-0.1-2.5,0C54.9,32.2,52.2,32.8,49.7,33.6z"/>
	<path class="st0" d="M50.6,16.7C50.6,16.7,50.6,16.7,50.6,16.7c3.2,0.7,6.2,2.4,8.5,4.7c-3.2-2.2-6.8-3.8-10.5-4.8
		c3.4,2.2,5.6,5.8,7.9,9.2c1.9,2.8,4.2,5.7,7.3,7.2c0.9,0.4,1.4,0.8,2.1,0.1c0.6-0.6,1-1.3,1.7-1.9c0.7-0.5,3.4-2.2,4.4-1.6l0,0
		c-3.4-2.4-8.1-2.4-11.3-5c2.3,0.7,4.7,1.4,7.1,1.9c-1.7-1-3.4-2.1-5.1-3.1c3.3,1,6.4,2.9,8.8,5.4c0.2,0.2,0.4,0.5,0.7,0.6
		c0.2,0.1,0.4,0.2,0.6,0.3c-0.4-1.2-1.2-2.2-2.1-3.1c-2-2-4.5-3.4-7.2-4.3c4.3,0.4,8.5,3.2,9.6,7.3c0,0,0,0,0,0c0.2,0,0.4,0,0.6,0
		c0-1.2-0.4-2.4-0.9-3.5c-2-4.3-5.9-7.6-10.4-9C58.5,16.2,54.5,16.5,50.6,16.7z"/>
	<path class="st0" d="M73.6,29.8c0.1-0.1,0.1-0.1,0.2-0.2c0.9,0.5,1.8,0.9,2.7,1.3c0.8-2.3,2-4.2,4.3-5.1c-0.2-0.3-0.4-0.5-0.8-0.5
		c-0.4,0-0.8,0-1.2,0c-0.9-0.1-1.7-0.3-2.3-1.2c-0.2,1.9-1.5,3.1-2.4,4.5C73.9,29,73.8,29.4,73.6,29.8z"/>
	<path class="st0" d="M75.4,18.7c0.4-0.3,1-0.2,1.4,0.1s0.7,0.7,1.1,1c0.7,0.6,1.7,0.7,2.6,0.4c0.4-0.2,0.8-0.5,1.3-0.5
		c0.3,0,0.6,0.1,0.9,0.2c1.8,0.7,3.8,1.5,4.6,3.3c0.1,0.3,0.2,0.7,0,0.9c-0.1,0.2-0.4,0.2-0.6,0.2c-0.8,0-1.7-0.7-2.4-0.2
		c-0.6,0.4-0.5,1.3-1.3,1.4c-0.8,0.1-1.4-0.9-2.1-1.2c-0.6-0.3-1.4-0.2-2-0.4c-0.7-0.1-1.4-0.6-1.4-1.3c0-0.5,0.6-1.1,0.3-1.5
		c-0.2-0.3-0.7-0.4-1.1-0.4c-0.5-0.1-1-0.2-1.4-0.6c-0.1-0.1-0.2-0.2-0.2-0.4C75,19.4,75.1,19,75.4,18.7z M83.1,23.2
		c0.3,0,0.5-0.2,0.7-0.4c0.2-0.2,0.2-0.4-0.2-0.7c0.3,0.5,0.1,0.6-0.2,0.7c-0.2,0-0.4,0.1-0.6,0c-1.1-0.1-2.1-0.6-3.1-1.2
		c1-0.5,1.9-0.1,2.8,0.1c-0.6-0.7-2.1-1.2-3-0.9c-0.3,0.1-0.5,0.4-0.7,0.6c-0.2,0.3,0.1,0.6,0.4,0.8C80.5,23.1,81.7,23.5,83.1,23.2z
		"/>
	<path class="st0" d="M81.9,31.2c3.7,0.7,7.2,2.2,10.2,4.3c-1.9-1.8-4-3.4-6.5-4.4c-2.5-1-5.2-1.3-7.7-0.6c1.3-1.3,3.2-1.9,5.1-2.2
		c2.3-0.3,4.6-0.3,6.8,0.4c3.1,1,5.6,3.5,7.4,6.2c1.6,2.4,3.5,5.9,3.9,8.8c-1-1.5-1.6-3-2.9-4.3c-1.4-1.3-3-1.8-4.6-2.8
		c2.7,1.7,5,4.1,6.6,6.8c-1.4-2-3.5-3.5-5.7-4.6s-4.6-1.7-7-2.3c3.7,1.3,7.3,3.1,10.6,5.2c0,0,0,0,0,0c-5.2-1.7-11.2,0.3-15.9-2.4
		c-0.3-0.2-0.5-0.3-0.7-0.6c-0.2-0.3-0.2-0.7-0.2-1c-0.3-2.6-1.8-5.1-4-6.5c0,0,0,0,0,0C78.8,30.7,80.4,30.9,81.9,31.2z M81.9,32.4
		c1.3,0.4,2.5,0.9,3.8,1.4c-2-1.2-4-2.4-6.4-2.4c-0.4,0-0.9,0.1-1.3,0.2C79.4,31.6,80.6,32,81.9,32.4z M84.1,29.5
		c4.3,1.2,8.5,2.7,11.7,5.9C92.9,31.5,88.9,29.8,84.1,29.5z"/>
	<path class="st0" d="M65.8,37.2c-0.7,5.5,1.2,11.1,3.3,16.3c0.6,1.4,0.8,1.2,0.7-0.1c0-1,0-2,0.2-2.9c0.2-1,0.4-1.9,0.8-2.8
		c0.3-0.8,1-1.7,1.2-2.5c-0.9,3.1-1.9,6.3-1.9,9.6c1.1-2.2,2.6-4.1,4.4-5.8c1.6-1.4,3.4-2.6,4.5-4.4c0.9-1.5,1.3-3.3,1.4-5.1
		c0.1-1.5,0.1-3.1-0.5-4.5c-0.5-1.4-1.6-2.7-3-3.3c0,0,0,0,0,0c-0.1,0.3-0.1,0.6-0.1,0.9c0,3.3-1.2,6.5-3.5,8.9
		c1.4-2.5,2.4-5.1,3.1-7.9c0.1-0.3-0.3-2.6-1.3-2.7c0.5,4.2-1.3,8.2-3,12c0.6-3.3,1.5-6.5,2.6-9.7c-2,2.6-4.1,5.2-5,8.4
		c-0.1-1.5,0.5-3,1.3-4.3c0.8-1.3,1.9-2.4,2.8-3.7c0.5-0.6,0.9-1.4,1-2.2c0-0.2,0-0.4-0.1-0.5c-0.1-0.2-0.4-0.3-0.7-0.3
		c-2-0.2-4.2,0.1-5.8,1.4C66.7,33.2,66.1,35.3,65.8,37.2z"/>
	<g>
		<path class="st3" d="M36,44.6c-0.3-0.2-0.3-0.5,0-0.6c0.4-0.2,0.9-0.4,1.3-0.4c2.6-0.3,5.3-0.6,7.9-0.8c0.7-0.1,1.4-0.2,2.1-0.3
			c-0.7,0.2-1.5,0.4-2.2,0.7c-2.5,1-4.8,2.3-6.7,4.2c-0.3,0.3-0.6,0.7-0.9,1.2c-0.6,1.1-0.2,2.1,1,2.5c0.9,0.3,1.8,0.2,2.7-0.2
			c-0.2,0.6-0.1,1.1,0.4,1.4c0.4,0.3,0.8,0.6,1.3,0.7c1.3,0.4,3.9,0.6,5-0.3c0.3-0.2,0.4-0.6,0.4-0.9c-0.2-0.7-1.4-0.8-1.9-1
			c-0.4-0.1-0.8-0.3-1.1-0.5c-0.3-0.1-0.3-0.3-0.2-0.6c0-0.1,0.1-0.2,0.1-0.2c0.9-1.3,1.8-2.5,3.3-3.2c2-0.9,4-1.8,6.1-2.7
			c0.1-0.1,0.3-0.1,0.5-0.2c0,0.1,0,0.2-0.1,0.3c-0.6,1.1-1.1,2.3-1.7,3.4c-0.5,1-1.1,1.8-1.9,2.6c-0.3,0.2-0.3,0.5-0.1,0.8
			c0.2,0.3,0.6,0.4,1,0.1c3-2.1,6.4-3.5,9.7-5c1.1-0.5,1.9-1.3,2.6-2.1c0.3,1.2,0.6,2.4,0.9,3.7c0.3,1.1,0.9,2.1,1.3,3.2
			c0.5,1.2,0.9,2.4,1.4,3.5c0.5,1.2,0.9,2.6,1.7,3.7c0.2,0.3,0.8,0.1,0.7-0.3c-0.1-0.9,0.1-1.8,0.6-2.5c0,0,0,0,0-0.1
			c1.1-1.7,2.7-3,4.1-4.4c0.9-0.9,1.9-1.7,2.8-2.5c1-0.9,1.7-2,2.4-3.3c0.6,0.5,1,1.1,1.2,1.8c0.4,0.9,0.7,1.9,0.9,2.9
			c0.5,1.9,1.6,3.6,3,5c0.6,0.5,1.1,1.2,1.6,1.7c0.1,0.1,0.2,0.2,0.2,0.3c0.4,0.5,0.7,0.6,1,0.4c0.3-0.2,0.4-0.5,0-1.1
			c-0.5-0.8-0.4-1.7-0.6-2.6c-0.2-0.6-0.1-1.2,0.1-1.9c0.3-1.4,0.5-2.8,0.7-4.2c0.2-1.5,0-3-1-4.3c0.3,0,0.5,0,0.7,0
			c1.4,0,2.8,0,4.2,0c1.3,0.1,2.6,0,3.8,0.3c2.3,0.6,4.2,2.2,4.4,5c0,0.4,0.1,0.7,0.6,0.8c0.5,0.1,0.7-0.2,0.8-0.6
			c0.1-0.7,0.3-1.4,0.3-2c0-0.4-0.1-0.9,0-1.3c0.1-0.9-0.1-1.7-0.5-2.6c-1.1-2.9-2.4-5.6-4-8.2c-1.3-2.2-3.2-3.8-5.3-5.2
			c-0.1-0.1-0.2-0.1-0.2-0.2c0,0,0,0-0.1-0.1c-0.5-0.2-0.9-0.4-1.4-0.6c0.7-0.1,1.4-0.1,2.1-0.1c1.6,0,3.1-0.3,4.6-0.8
			c1.9-0.7,3.7-1.5,5.5-2.3c1.2-0.5,2.3-1.1,3.6-1.3c0.2,0,0.5-0.1,0.7-0.2c1.3-0.4,2.5-0.8,3.9-0.8c0.3,0,0.7,0,1,0
			c-0.1,0.2-0.2,0.3-0.4,0.3c-1.1,0.4-2.3,0.7-3.4,1.1c-1,0.3-1.9,0.7-2.9,1c-2.4,0.8-4.8,1.6-7.2,2.4c-1.7,0.6-3.3,1-5.1,1.2
			c-0.3,0-0.6,0.1-1,0.1c3.2,0.1,6.2-0.3,9.2-1.3c3.3-1.1,6.6-2.1,9.9-3.2c0.5-0.2,1.1-0.4,1.6-0.6c0.4-0.2,0.7-0.4,0.7-0.9
			c0-0.5-0.3-0.8-0.7-1c-0.5-0.2-1.1-0.3-1.6-0.3c-0.6,0-1.2,0.1-1.8,0.2c0.7-0.6,1.3-1.1,2-1.6c0.3-0.3,0.7-0.6,0.9-0.9
			c0.3-0.4,0.3-0.9,0.1-1.2c-0.3-0.4-0.8-0.6-1.3-0.4c-0.8,0.3-1.7,0.6-2.4,1.1c-2.8,1.7-5.8,2.8-8.7,4.1c0,0-0.1,0-0.1-0.1
			c0.8-0.6,1.6-1.3,2.5-1.8c1.7-1.1,3.4-2.1,5.1-3.2c0.6-0.4,1.1-0.9,1.5-1.4c0.2-0.2,0.4-0.5,0.5-0.9c0.3-0.8-0.1-1.5-0.9-1.6
			c-0.6,0-1.3,0.1-1.8,0.3c-0.8,0.3-1.5,0.8-2.1,1.6c-0.4,0.5-0.8,0.9-1.1,1.4c-0.7,1.2-1.8,1.9-3.1,2.4c-1.2,0.6-2.5,1.1-3.6,1.8
			C96,21.9,95,23.1,94,24.3c-0.3,0.3-0.6,0.5-1,0.9c0.6-2,1.2-3.8,1.6-5.7c0.4-2.1,1.2-4.1,2.8-5.6c1.2-1.1,2.6-1.9,4.3-1.8
			c0.5,0,0.8-0.2,0.9-0.6c0.1-0.4-0.1-0.7-0.6-0.9c-1-0.4-2.1-0.8-3.1-1.3c-2.7-1.2-5.4-1.5-8.3-1.1c-0.3,0-0.7,0.1-1,0.2
			c-2.3,0.9-4.5,1.9-6.4,3.6c-0.8,0.7-1.7,1.4-2.4,2.3c-0.6,0.6-2.2,3.2-2.3,4.1c1.4-1.8,4-4.6,5.8-5.7c1.9-1.2,3.9-2,6-2.8
			c1.6-0.6,3.3-0.5,5-0.2c0.9,0.1,1.8,0.4,2.7,0.7c-1.6,0.1-3.2,0.4-4.6,1.2c-0.5,0.3-1,0.7-1.4,1.1c2.1-1.4,4.5-1.4,6.9-1.6
			c-0.4,0.2-0.9,0.5-1.3,0.7c-1.4,0.9-2.4,2.2-3.1,3.6c-0.7,1.4-1.2,2.9-1.5,4.4c-0.2,1.3-0.4,2.7-0.9,4c-0.4,1.1-1,2.2-2.4,2.5
			c-0.7,0.2-1.5,0.4-2.2,0.6c-0.1,0-0.1,0-0.2,0c-1.3-0.3-2.5,0.1-3.8,0.3c-1.5,0.3-2.8,0.8-4.1,1.6c-0.6,0.4-1.1,0.9-1.4,1.6
			l0.1,0.1c1.3-1.3,3.2-1.9,5.1-2.2c2.3-0.3,4.6-0.3,6.8,0.4c3.1,1,5.6,3.5,7.4,6.2c1.6,2.4,3.5,5.9,3.9,8.8c-1-1.5-1.6-3-2.9-4.3
			c-1.4-1.3-3-1.8-4.6-2.8c2.7,1.7,5,4.1,6.6,6.8c-1.4-2-3.5-3.5-5.7-4.6s-4.6-1.7-7-2.3c3.7,1.3,7.3,3.1,10.6,5.2c0,0,0,0,0,0
			c-5.2-1.7-11.2,0.3-15.9-2.4c-0.3-0.2-0.5-0.3-0.7-0.6c-0.2-0.3-0.2-0.7-0.2-1c-0.3-2.6-1.8-5.1-4-6.5c0,0,0,0,0,0l0,0l-0.1,0
			c0-0.1-0.1-0.3-0.1-0.4c0.3-0.5,0.6-1.1,0.9-1.6c0.5-0.7,1-1.3,1.5-1.9c0.4-0.4,0.9-0.8,1.4-1.1c0.1-0.1,0.4-0.1,0.6,0
			c0.5,0.3,1.1,0.4,1.7,0.3c0.7-0.1,1.2-0.5,1.4-1.2c0.1-0.2,0.1-0.4,0.2-0.6c0.2,0,0.4,0.1,0.6,0.1c0.4,0,0.7,0.1,1.1,0.1
			c0.5,0,0.9-0.2,1.2-0.6c0.2-0.5,0.2-1-0.1-1.4c-0.4-0.5-0.8-1-1.2-1.4c-0.1-0.1-0.2-0.3-0.3-0.4c-0.1-0.1-0.2-0.1-0.4-0.2
			c-0.9-0.6-1.8-1.2-2.7-1.8c-0.8-0.5-1.5-0.7-2.4-0.3c-0.8,0.3-1.6,0.3-2.2-0.5c-0.1-0.2-0.3-0.3-0.4-0.5c-0.1-0.1-0.2-0.1-0.3-0.2
			c-1.6-1.2-3.6-0.2-4,1.4c-0.7-1.3-1.3-2.5-2-3.8c0,0-0.1,0-0.1,0.1c0.2,0.4,0.3,0.7,0.5,1.1c0.8,1.8,1.5,3.5,1.7,5.5
			c0.2,1.8,0.3,3.5,0.2,5.3c0,0.1,0,0.2,0,0.4c0.1-1.3,0.3-2.6,0.4-3.9c0-0.9-0.1-1.9-0.1-2.7c0.6,0.3,1.2,0.7,1.8,1.1
			c0,0.3-0.1,0.6,0,0.9c0.1,0.5,0.1,0.9-0.1,1.3c-0.7,1.4-1.4,2.7-2.1,4.2c0-0.3,0.1-0.5,0.1-0.7c0,0-0.1,0-0.1-0.1c0,0,0-0.1,0-0.1
			c-0.2-0.9-0.5-1.8-0.7-2.7c0,0,0,0,0,0c-0.1-0.1-0.2-0.1-0.3-0.2c-0.6-1-1-2-1.7-2.9c-1.4-1.8-3-3.1-4.9-4.1
			c0,0.1,0.1,0.2,0.1,0.3c-0.1-0.1-0.2-0.2-0.4-0.4c-1.6-0.8-3.3-1.4-5.1-1.7c-1.4-0.3-2.8-0.3-4.2-0.3c-3,0-6.1,0-9.1,0
			c-0.5,0-1-0.2-1.5-0.4c-0.3-0.1-0.6-0.2-0.8-0.3c-0.3-0.1-0.6,0.1-0.7,0.4c-0.1,0.3,0,0.6,0.3,0.7c0.4,0.2,0.7,0.3,1.1,0.4
			c0.4,0.1,0.8,0.3,1.2,0.5c3,1.6,5.1,4.1,6.8,7c1.2,2,2.5,4,4.1,5.8c0.5,0.5,1,1,1.5,1.5c0.1,0.1,0.2,0.2,0.3,0.3
			c-0.9-0.1-1.7-0.1-2.6-0.1c-2,0-3.9,0.5-5.8,0.9c-1.2,0.3-2.5,0.3-3.8,0.5c-0.3,0-0.6-0.1-0.9-0.1c-0.2,0-0.4-0.1-0.6-0.1
			c-0.3,0-0.5,0.1-0.6,0.4c-0.1,0.3,0.1,0.5,0.4,0.6c2.6,0.7,5.1,1.8,7.6,2.8c1.4,0.6,2.7,1.2,4.1,1.8c-0.1,0-0.2,0-0.3,0.1
			c-2.4,0.4-4.9,0.6-7.4,0.7c-2,0.1-4,0.5-6,0.9c-2.3,0.4-4.6,0.8-6.8,1.2c-1.1,0.2-2.1,0.7-2.9,1.5c-1.4,1.3-1,3.1,0.7,3.8
			c0.4,0.2,0.8,0.3,1.3,0.3c0.4,0.1,0.8,0,1-0.5c0.2-0.4-0.1-0.7-0.4-1C36.4,45,36.2,44.8,36,44.6z M104.6,18.2
			c1.2-1.5,2.1-3.4,4.4-3.6C108.7,15.6,105.7,18,104.6,18.2z M99.7,21.4c-0.3,0.2-0.5,0.4-0.8,0.6c-2.1,1.5-4.1,3.1-6.4,4.3
			c-0.3,0.2-0.6,0.2-0.9,0c0.3-0.5,0.8-0.7,1.3-0.8c0.6-0.2,1.1-0.5,1.7-0.8c0.5-0.3,0.9-0.7,1.4-1C97.1,22.8,98.3,22,99.7,21.4z
			 M90,27.5c1.1-0.3,2.1-0.6,3.2-0.9c2.6-0.6,5-1.8,7.4-2.9c3.2-1.4,6.4-2.9,9.4-4.6c0.5-0.3,1-0.4,1.6-0.6
			c-0.8,0.9-2.8,2.4-3.9,2.9c-3.7,1.6-7.4,3.2-11.1,4.9c-1.7,0.7-3.5,1-5.2,1.4C90.8,27.8,90.4,27.7,90,27.5z M65.4,34.2
			c-0.2,1.1-0.4,2.4-0.8,3.5c-0.4,1.1-1.3,0.9-2.4,0.8c-2.1-0.2-4.1-1.1-6-1.9l-6.6-2.9c2.6-0.8,5.2-1.4,7.9-1.8
			c0.8-0.1,1.7-0.2,2.5,0C61.9,32.3,63.4,34.2,65.4,34.2z M73.6,29.8c-0.2,0-0.4,0-0.6,0c0,0,0,0,0,0l-0.2,0.1
			c-0.2,0-0.4-0.1-0.6-0.3L72,29.7c0,0,0,0,0,0c0,0,0,0,0,0c-1-0.6-3.7,1-4.4,1.6c-0.7,0.5-1.1,1.3-1.7,1.9
			c-0.7,0.7-1.3,0.3-2.1-0.1c-3.1-1.5-5.4-4.4-7.3-7.2c-2.3-3.3-4.5-7-7.9-9.2c3.8,0.9,7.3,2.6,10.5,4.8c-2.3-2.4-5.3-4-8.5-4.7
			c0,0,0,0,0,0c3.9-0.3,7.9-0.5,11.7,0.6c4.5,1.3,8.4,4.7,10.4,9C73.2,27.4,73.6,28.6,73.6,29.8z M78.8,24c-0.7-0.1-1.4-0.6-1.4-1.3
			c0-0.5,0.6-1.1,0.3-1.5c-0.2-0.3-0.7-0.4-1.1-0.4c-0.5-0.1-1-0.2-1.4-0.6c-0.1-0.1-0.2-0.2-0.2-0.4c-0.1-0.4,0-0.8,0.3-1
			c0.4-0.3,1-0.2,1.4,0.1s0.7,0.7,1.1,1c0.7,0.6,1.7,0.7,2.6,0.4c0.4-0.2,0.8-0.5,1.3-0.5c0.3,0,0.6,0.1,0.9,0.2
			c1.8,0.7,3.8,1.5,4.6,3.3c0.1,0.3,0.2,0.7,0,0.9c-0.1,0.2-0.4,0.2-0.6,0.2c-0.8,0-1.7-0.7-2.4-0.2c-0.6,0.4-0.5,1.3-1.3,1.4
			c-0.8,0.1-1.4-0.9-2.1-1.2C80.3,24,79.5,24.1,78.8,24z M76.5,30.9c-0.9-0.4-1.8-0.9-2.7-1.3c-0.1,0.1-0.1,0.1-0.2,0.2
			c0.2-0.4,0.3-0.8,0.6-1.2c0.9-1.4,2.1-2.6,2.4-4.5c0.6,0.9,1.4,1.1,2.3,1.2c0.4,0,0.8,0,1.2,0c0.4,0,0.7,0.2,0.8,0.5
			C78.5,26.8,77.2,28.6,76.5,30.9z M80.7,44.1c0-0.2,0-0.3,0.1-0.5c0.5-1.4,0.8-2.8,0.7-4.3c1.1,1.4,2.6,2.4,4.3,2.8
			c0.5,0.1,1,0.2,1.4,0.5c0.9,0.6,0.9,2,0.8,3.1c-0.3,2.3-0.4,5.5-1.4,7.6c-3-1.5-3-6.5-5.5-8.7C80.9,44.4,80.7,44.3,80.7,44.1z
			 M68.6,52.1c-1.9-4.8-3.4-9.8-2.8-14.8c0.3-2,0.9-4,2.4-5.3c1.6-1.3,3.8-1.6,5.8-1.4c0.3,0,0.5,0.1,0.7,0.3
			c0.1,0.2,0.1,0.4,0.1,0.5c-0.1,0.8-0.5,1.5-1,2.2c-0.9,1.2-2,2.4-2.8,3.7s-1.5,2.8-1.3,4.3c0.9-3.1,3-5.8,5-8.4
			c-1.1,3.2-2,6.4-2.6,9.7c1.7-3.8,3.5-7.9,3-12c1,0.1,1.4,2.5,1.3,2.7c-0.7,2.7-1.7,5.4-3.1,7.9c2.2-2.4,3.5-5.7,3.5-8.9
			c0-0.3,0-0.6,0.1-0.9c0,0,0,0,0,0c1.4,0.5,2.5,1.8,3,3.3c0.5,1.4,0.6,3,0.5,4.5c-0.1,1.8-0.5,3.6-1.4,5.1c-1.1,1.8-2.9,3-4.5,4.4
			c-1.8,1.6-3.3,3.6-4.4,5.8c0-3.3,0.9-6.5,1.9-9.6c-0.2,0.8-0.9,1.7-1.2,2.5c-0.3,0.9-0.6,1.9-0.8,2.8c-0.2,1-0.2,2-0.2,2.9
			c0,1.1-0.1,1.4-0.4,0.7c0-0.1,0-0.2-0.1-0.2C69.2,53.2,68.9,52.6,68.6,52.1z M56.6,41.8c0.4-1.1,0.9-2.2,2-2.7
			c0.8-0.4,1.7-0.3,2.6-0.2c1.1,0,2.2-0.1,3.3-0.3c0,1.3,0.1,2.5,0.1,3.8c0,0.3,0,0.6-0.1,0.8c-0.1,0.2-0.3,0.3-0.5,0.4
			c-3,1.8-6.6,2.7-9.7,4.3C55.1,45.8,55.8,43.8,56.6,41.8z M50.2,44.3c1.8-0.9,3.6-1.8,5.4-2.7c0,0,0.1,0.1,0.1,0.1
			c-0.1,0.2-0.2,0.4-0.2,0.6c-0.2,0.6-0.5,0.9-1.1,1C53,43.6,51.6,44,50.2,44.3z M41.5,51c0.1-0.5,0.7-0.7,0.9-1.1
			c0.3-0.5,0-1.1,0.2-1.6c0.1-0.3,0.5-0.6,0.8-0.7c0.7-0.4,1.4-0.8,2.2-1.2c-0.5,0.6-0.9,1.3-1.4,1.9c-0.4,0.6-0.9,1.2-0.8,1.9
			c0.1,0.5,0.4,1,0.9,1.3c0.4,0.3,0.9,0.4,1.3,0.6c-0.8,0.5-2.2,0.4-3.1,0.1C41.9,52,41.4,51.5,41.5,51z M50.8,42.7
			c-0.3,0.9-2.7,1.2-3.5,1.5c-1.4,0.5-2.8,1.1-4.2,1.8c-0.9,0.4-1.8,1-2,2c-0.1,0.4,0,0.9-0.2,1.3c-0.4,0.6-1.2,0.5-1.9,0.3
			c-0.1,0-0.3-0.1-0.4-0.2c-0.1-0.2,0-0.5,0.2-0.7c1.5-1.7,3.4-3,5.5-3.9C46.5,43.9,48.7,43.2,50.8,42.7z M38.7,42
			C38.7,41.9,38.7,41.9,38.7,42c0.1-0.1,0.1-0.2,0.2-0.2c3.7-0.6,7.4-1.3,11.1-1.8c2.6-0.4,5.2-0.8,7.7-1.7c0.4-0.1,0.7,0,1,0.1
			c-1,0.4-1.8,1-2.4,1.9c-0.1,0.1-0.2,0.2-0.3,0.2c-1.1,0.1-2.3,0.2-3.4,0.4c-0.3,0-0.7,0.2-1,0.2c-3.3-0.1-6.6,0.2-9.9,0.6
			C40.7,41.8,39.7,41.9,38.7,42z"/>
		<path class="st3" d="M78,17.9C78,17.9,78,17.9,78,17.9C78,17.9,78,17.9,78,17.9C78,17.9,78,17.9,78,17.9C78,17.9,78,17.9,78,17.9z
			"/>
		<path class="st3" d="M65.9,17.6c0.1,0.2,0.3,0.3,0.4,0.4c0-0.1,0-0.2-0.1-0.3C66.1,17.7,66,17.7,65.9,17.6z"/>
		<path class="st3" d="M62.8,3.6c2.5,2,4.5,4.3,5.9,7.2c0.2,0.5,0.5,0.9,0.8,1.3c-1-3-2.2-5.9-5-7.8c0.2,0,0.2,0,0.3,0
			c1.6,0.8,3.2,1.5,4.8,2.3c2.7,1.4,4.9,3.2,6.6,5.7c1,1.5,1.6,3.1,1.7,4.9c0,0.2,0.1,0.4,0.1,0.5c0.2-3.6-1.1-6.6-3.7-9
			c-1.5-1.4-3.1-2.5-4.9-3.3c-2.6-1.2-5.3-2.4-7.9-3.7C61,1.6,60.6,1.2,60.2,1c-0.3-0.2-0.5-0.3-0.8-0.5c-0.2,0.1-0.3,0.1-0.5,0.2
			c-0.2,0.5-0.2,0.8,0.2,1.1C60.4,2.7,61.3,4,62,5.3c0.2,0.4,0.4,0.8,0.6,1.2c0.5,1.1,0.8,2.3,0.9,3.6c0,1.3,0.2,2.6,0.5,3.9
			c0.1,0.9,1.2,2.7,2,3.6c0.1,0,0.2,0.1,0.3,0.1c-0.3-0.8-1.2-2.4-1.4-2.9c-0.2-0.6-0.2-1.2-0.2-1.8c0-0.9,0-1.8,0.1-2.7
			c0.2-1.6-0.2-3-0.9-4.4c-0.5-0.9-0.9-1.8-1.4-2.7C62.5,3.4,62.7,3.5,62.8,3.6z"/>
		<path class="st3" d="M62.6,23.5c1.7,1,3.4,2.1,5.1,3.1c-2.4-0.6-4.7-1.2-7.1-1.9c3.2,2.6,8,2.6,11.3,5l0.2-0.2
			c-0.2-0.2-0.5-0.4-0.7-0.6C69,26.4,66,24.5,62.6,23.5z"/>
		<path class="st3" d="M70.6,26.7c0.9,0.9,1.8,1.9,2.1,3.1l0.2-0.1c-1.1-4.1-5.3-7-9.6-7.3C66.1,23.3,68.6,24.8,70.6,26.7z"/>
		<polygon class="st3" points="73,24.9 73,24.9 73.1,25 73.1,25 		"/>
		<path class="st3" d="M73,24.9C73,24.9,73,24.9,73,24.9C73,24.9,73.1,25,73,24.9C73.1,24.9,73.1,24.9,73,24.9z"/>
		<polygon class="st3" points="73.1,25 73.1,25 73.1,25 		"/>
		<polygon class="st3" points="73.1,25 73.1,25 73.1,25 		"/>
		<path class="st3" d="M72.8,20.9c-0.3-1.4-0.7-2.7-1-4.1c0,0-0.1,0-0.1,0c0.2,0.9,0.5,1.8,0.6,2.8c0.3,1.6,0.5,3.2,0.7,4.9
			c0,0.1,0.1,0.3,0.1,0.4C73.2,23.6,73.1,22.2,72.8,20.9z"/>
		<path class="st3" d="M77.8,30.6c-0.1,0.3-0.3,0.5-0.4,0.8l0,0c1.4-0.7,3.1-0.5,4.6-0.2c3.7,0.7,7.2,2.2,10.2,4.3
			c-1.9-1.8-4-3.4-6.5-4.4c-2.5-1-5.2-1.3-7.7-0.6l-0.1-0.1C77.8,30.5,77.8,30.6,77.8,30.6z"/>
		<path class="st3" d="M79.3,31.4c-0.4,0-0.9,0.1-1.3,0.2c1.4,0,2.6,0.5,3.9,0.9c1.3,0.4,2.5,0.9,3.8,1.4
			C83.7,32.6,81.7,31.4,79.3,31.4z"/>
		<path class="st3" d="M83.1,23.2c0.3,0,0.5-0.2,0.7-0.4c0.2-0.2,0.2-0.4-0.2-0.7c0.3,0.5,0.1,0.6-0.2,0.7c-0.2,0-0.4,0.1-0.6,0
			c-1.1-0.1-2.1-0.6-3.1-1.2c1-0.5,1.9-0.1,2.8,0.1c-0.6-0.7-2.1-1.2-3-0.9c-0.3,0.1-0.5,0.4-0.7,0.6c-0.2,0.3,0.1,0.6,0.4,0.8
			C80.5,23.1,81.7,23.5,83.1,23.2z"/>
		<path class="st3" d="M84.1,19.1c1.4-1.5,2.8-3,4.2-4.5c0,0-0.1-0.1-0.1-0.1C86.6,15.8,85.1,17.2,84.1,19.1z"/>
		<path class="st3" d="M85.2,19c0,0.1-0.9,1.5-0.2,1.2c-0.1,0,0.4-1,0.5-1.1c0.4-0.5,1-1,1.4-1.5c0.8-0.8,1.6-1.6,2.3-2.3
			c-0.8,0.8-2,1.2-2.9,2.1C85.9,17.9,85.5,18.4,85.2,19z"/>
		<path class="st3" d="M84.1,29.5c4.3,1.2,8.5,2.7,11.7,5.9C92.9,31.5,88.9,29.8,84.1,29.5z"/>
		<path class="st3" d="M86.7,21.4c0.9-1.3,1.7-2.5,2.6-3.8C88.1,18.6,87.2,19.8,86.7,21.4z"/>
	</g>
</g>
</svg>
