<?xml version="1.0" encoding="utf-8"?>
<!-- Generator: Adobe Illustrator 26.0.2, SVG Export Plug-In . SVG Version: 6.00 Build 0)  -->
<svg version="1.1" id="Layer_1" xmlns="http://www.w3.org/2000/svg" xmlns:xlink="http://www.w3.org/1999/xlink" x="0px" y="0px"
	 viewBox="0 0 1024 1024" style="enable-background:new 0 0 1024 1024;" xml:space="preserve">
<style type="text/css">
	.st0{display:none;}
	.st1{display:inline;fill:#32A752;}
	.st2{fill-rule:evenodd;clip-rule:evenodd;fill:#7A5145;}
	.st3{fill-rule:evenodd;clip-rule:evenodd;fill:#8A614C;}
	.st4{fill-rule:evenodd;clip-rule:evenodd;fill:#BB8A58;}
	.st5{fill-rule:evenodd;clip-rule:evenodd;fill:#3E2A1F;}
	.st6{fill-rule:evenodd;clip-rule:evenodd;fill:#718D3B;}
	.st7{fill-rule:evenodd;clip-rule:evenodd;fill:#4B6D33;}
	.st8{fill-rule:evenodd;clip-rule:evenodd;fill:#E7CF24;}
	.st9{fill-rule:evenodd;clip-rule:evenodd;fill:#F0DF4A;}
	.st10{fill-rule:evenodd;clip-rule:evenodd;fill:#F7EC98;}
	.st11{fill-rule:evenodd;clip-rule:evenodd;fill:#F4E967;}
	.st12{fill-rule:evenodd;clip-rule:evenodd;fill:#E5B821;}
	.st13{fill-rule:evenodd;clip-rule:evenodd;fill:#FBE375;}
	.st14{fill-rule:evenodd;clip-rule:evenodd;fill:#BDB138;}
	.st15{fill-rule:evenodd;clip-rule:evenodd;fill:#FBF7C4;}
	.st16{fill-rule:evenodd;clip-rule:evenodd;fill:#F3E9A3;}
	.st17{fill-rule:evenodd;clip-rule:evenodd;fill:#DAC74D;}
	.st18{fill-rule:evenodd;clip-rule:evenodd;fill:#F8DD59;}
	.st19{fill-rule:evenodd;clip-rule:evenodd;fill:#F7CF4A;}
</style>
<g class="st0">
	<path class="st1" d="M461,744.9c-14-0.6-23.2-1.4-29.6-2.4c-1.7-0.3-5.3-0.7-8-1s-7.4-1-10.4-1.7c-3-0.6-6.2-1.2-7-1.3
		s-2.8-0.7-4.3-1.4c-1.6-0.6-3.5-1.1-4.4-1.1c-2,0-11.8-2.8-15.8-4.5c-1.6-0.7-6.1-2.5-10-4c-20.8-8.1-41.4-20-57-33
		c-4.4-3.7-8.7-7.2-9.5-7.9s-5.9-5.9-11.3-11.5l-9.7-10.3l-8,0.6c-10.9,1-36.4,8.3-51.7,15c-3.2,1.3-9.9,4.1-14.8,6
		c-14.6,5.7-36.7,16-80.5,37.4c-14.6,7.2-21.3,10.8-30,16.4c-1.5,1-3.2,1.3-4.5,0.9c-1.6-0.7-1.1-1.3,3.5-4.3c3-2,7-5,8.8-6.7
		s3.7-3.1,4.1-3.1s2.3-1.5,4.2-3.3c1.9-1.7,4.8-4.1,6.4-5.1c3-1.9,3.9-2.6,8.6-6.8c1.5-1.3,3.3-2.7,4.2-3.3
		c1.4-1,36.6-27.4,39.8-29.9c0.8-0.7,4.2-3.2,7.5-5.6c3.2-2.4,6.4-4.8,6.9-5.2c5.6-4.7,76.3-52.4,88.5-59.8c3-1.8,5.7-3.5,6-3.9
		c0.3-0.3,2.2-1.5,4.3-2.6c2-1.1,3.7-2.3,3.7-2.7c0-0.5,0.4-0.8,1-0.8c0.5,0,7.6-4,15.7-8.9c13.9-8.3,16.7-9.9,26.8-15.6
		c2.2-1.3,6.5-3.7,9.5-5.4c5.5-3.1,18.3-10.1,34-18.6c8.1-4.3,57.9-29.1,68.5-34c22.1-10.3,47.1-21.1,76.5-33.3
		c18.7-7.7,38.7-15.2,40.6-15.2c0.5,0,1.5-0.9,2.2-2s2-2,2.9-2s1.4-0.2,1.1-0.5c-0.3-0.3-3.9,0.3-7.9,1.5c-8.8,2.4-8.8,2.4-16.4,4.4
		c-3.3,0.8-9.1,2.5-13,3.6c-3.8,1.2-8.1,2.3-9.5,2.6c-1.4,0.3-5.6,1.4-9.5,2.6c-3.8,1.1-8.6,2.3-10.5,2.8c-4.8,1-20.9,5.7-30,8.7
		c-4.1,1.3-8.8,2.8-10.5,3.3c-10.3,2.9-16.4,4.7-28,8.5c-7.1,2.4-14.1,4.8-15.5,5.3c-1.4,0.6-4.7,1.7-7.5,2.5
		c-2.7,0.8-8.1,2.7-12,4.2c-3.8,1.5-7.4,2.8-8,2.9c-1.9,0.4-6,1.8-9,3.1c-1.6,0.7-5,2-7.5,3c-2.5,0.9-5.4,2.1-6.5,2.5
		c-1.1,0.5-8.5,3.4-16.4,6.5s-15.1,6-16,6.5c-0.9,0.4-4.5,2.1-8.1,3.7c-26.7,11.7-58.8,29.9-76.7,43.4c-2.2,1.7-4.6,2.8-5.2,2.5
		c-0.6-0.4-1.1-2.5-1.1-4.6s-0.4-5-0.9-6.3c-0.6-1.4-1.3-5.1-1.6-8.4c-0.4-3.2-0.9-6.6-1.1-7.5c-0.7-2.5-0.7-32.2,0.1-41.3
		c1.3-16.7,8.2-44.9,15.8-64.5c7.6-19.7,16.2-35.8,30.9-57.7c10.2-15.3,39.3-47,51.8-56.6c3-2.3,5.7-4.4,6-4.7
		c3.7-3.9,24.3-18.1,39.7-27.4c9.1-5.4,27.5-13.9,37.3-17.1c4.7-1.6,10.1-3.4,12-4.2c5-1.9,26.6-7,39.5-9.3c32.2-5.9,68-8.4,108-7.6
		c17.1,0.3,33,0.8,35.5,1c2.5,0.3,7.7,0.7,11.5,1c18.2,1.3,53.1,6.2,58.5,8.2c0.8,0.3,7.8,1.9,15.5,3.5c20.5,4.2,31.4,6.7,37,8.4
		c2.8,0.8,7.9,2.1,11.5,2.9c12.4,2.6,45.5,11.9,75.5,21.3c4.4,1.3,10,3.1,12.5,3.8c9.1,2.7,37.9,12.7,39.7,13.8
		c0.8,0.5-0.4,3.9-4.1,11.5c-2.9,5.9-9.3,18.8-14.1,28.7c-4.9,9.9-11.2,22.3-14.1,27.5c-2.8,5.2-7.8,14.7-11.1,21
		c-7.8,15.2-27.6,50.3-35.8,63.5c-3.6,5.8-6.5,10.8-6.5,11c0,1.7-42.3,66.2-51.9,79.2c-2.5,3.4-6.4,8.7-8.6,11.8
		c-14,20.1-43.8,55.1-62.4,73.4c-8.3,8.1-27.4,24.6-35.6,30.6c-6.1,4.6-17.4,11.7-23.5,14.9c-3,1.6-6.6,3.7-8,4.6
		c-1.4,1-7,3.6-12.5,5.9c-5.5,2.3-12.5,5.3-15.5,6.5c-3,1.3-10.7,4-17,6.1c-6.3,2-13.5,4.3-16,5.1s-5.3,1.4-6.3,1.4
		s-3.9,0.7-6.5,1.5c-8.1,2.6-33.7,6.2-45.2,6.4c-1.9,0-4.8,0.4-6.5,0.8C476.9,745.2,469,745.2,461,744.9L461,744.9z"/>
</g>
<g>
	<path class="st2" d="M516.51,832.54c75.03-10.91,282-1.27,329.67-7.45c33.27-4.31,58.58-23.75,70.84-35.11
		c18.45-17.1-0.56-29.48-11.9-23.13c-17.64,9.87-2.38,18.87-22.84,30.06c-20.46,11.19-24.69,13.17-60.11-4.14
		c-35.43-17.31-132.91-2.34-189.57-3.26c-56.66-0.91-116.29,9.24-160.32,5.64c-44.03-3.6-280.15,18.16-318.69,21.67
		c-38.54,3.51-30.86,4.76-46.89,0.97c-16.04-3.79-10.79,19.57,13.8,12.91C157.11,820.77,423.69,846.04,516.51,832.54L516.51,832.54z
		"/>
	<path class="st3" d="M196.97,812.9c-20.22,1.8-35.71,3.22-43.37,3.92c-38.54,3.51-30.86,4.76-46.89,0.97
		c-11.49-2.72-12.05,8.52-2.39,12.64c1.2-1.07,2.26-2.18,3.05-3.24c3.57-4.77,6.97-0.69,17.63-3.12c10.67-2.43,7.78-2.61,15.42-1.17
		c7.64,1.43,5.21,0.13,11.7-1.67c6.49-1.8,8.48-5.87,16.36-0.63C174.52,824.62,184.18,821.06,196.97,812.9L196.97,812.9z"/>
	<g>
		<path class="st4" d="M822.41,792.88l-0.24-0.12c-21.9-10.7-67.5-9.07-112.52-6.47c9.71,2,16.25,8.49,22.91,9.05
			c9.79,0.83,12.83-5.49,25.32-4.47C768.81,791.77,795.68,794.3,822.41,792.88L822.41,792.88z M694.63,787.17
			c-20.19,1.21-39.69,2.35-56.27,2.37c-6.01,3.45-9.49,4.43-16.16,0.86c-0.61-0.33-1.26-0.64-1.93-0.93
			c-49.07,0.48-99.33,7.83-138.96,6.22c-15.83,7.31-12.1,1.53-18.81,2.4c-6.37,0.83-8.63,0.88-14.56-3.2
			c-11.97,0.28-26.74,0.95-43.28,1.89c-3.84,1.84-7.36,3.69-10.24,5.24c-6.51,3.49-9.35-0.46-12.16-3.87
			c-4.85,0.31-9.8,0.64-14.82,0.99c-11.98,6.83-30.01,8.54-45.94,9.83c-17.77,1.45-28.03,3.89-38.52,3.63
			c-10.49-0.26-16.13-2.42-25.27,0.45c-9.14,2.87-24.08,5.4-30.65,4.39c-6.56-1.01-10.72-4.09-17.41,0.09
			c-4.27,2.67-24.46,7.65-38.5,10.9l2.78,0.04c9.94-1.68,23.75-3.78,39.9-5.6c33.28-3.76,55.35-5.06,88.26-7.45
			c32.92-2.4,25.22-3.84,40.73-6.15c15.51-2.31,24.03-9.91,32.88-5.78c8.85,4.13,18.41,5.53,29.57-0.31
			c11.16-5.84,20.71-5.56,36.81,0.14c16.1,5.7,31.77-4.08,34.94-0.38c3.17,3.7,24.69-4.71,41.33-5.01
			c16.64-0.3,46.33-4.34,53.03-0.95c6.7,3.39,18.29-1.33,27.81-4.76c9.53-3.43,17.31,3.7,24.42,6.83
			c7.11,3.13,25.69-8.48,32.37-6.35c6.68,2.14,17.91,1.43,37.58-5.19C693.92,787.39,694.28,787.28,694.63,787.17L694.63,787.17z"/>
	</g>
	<g>
		<path class="st3" d="M516.51,832.54c5.99-0.87,12.82-1.61,20.34-2.24c-0.91-0.32-1.82-0.66-2.72-1.03
			c-23.99-9.91-34.79-8.81-47.07-6.79c-12.28,2.02-30.4,14.48-45.04,6.65c-14.64-7.83-25.36,0-52.96-0.85
			c-10.75-0.33-35.73,2.39-62.21,5.83C400.77,836.91,475.55,838.5,516.51,832.54L516.51,832.54z M583.71,827.89
			c66.32-1.95,153.1-0.09,210.68-0.63c-18-10.17-34.61-11.89-44.88-10.4c-14.15,2.05-39.53-0.19-47.4-3.19
			c-7.87-3.01-35.36,5.13-48.8,4.47s-20.23-7.73-45.48,1.27C599.72,822.3,591.68,825.38,583.71,827.89L583.71,827.89z"/>
	</g>
	<path class="st5" d="M884.78,812.72c8.32-4.3,15.54-9.13,21.49-13.69c-17.76,6.29-42.34,14.51-56.15,11.53
		c-31.28,3.71-69.55-15.38-90.41-13.66c-20.86,1.72-38.32,6.98-48.11-0.48c-9.79-7.47-12.64,3.37-26.07,2.71
		c-13.43-0.66-61.46,5.6-86.46,4.25c-25-1.35-90.66-3.31-108.83,4.65c-18.17,7.97-42.11,2.56-57.05,0.58
		c-14.94-1.98-59.24,4.21-91.64,7.49c-17.59,1.78-54.99,8.95-85.52,15.13l15.8,0.66c58.09-8.34,136.99-19.36,145.37-18.95
		c13.43,0.66,52.31,8.05,60.47,5.21c8.17-2.84,33.44-9.59,43.89-9.33c10.44,0.26,54.5,4.41,69.74,0.54
		c15.24-3.87,88.03,1.56,99.15-3.13c11.13-4.69,16.34-5.69,25.74,0.89c9.4,6.57,45.84-2.62,45.84-2.62s44.55,14.03,65.05,13.66
		C839.14,817.95,862.89,817.06,884.78,812.72L884.78,812.72z"/>
	<path class="st3" d="M598.76,812.91c-20.37,4.59-36.85,13.83-43.41,8.85c-6.56-4.98-12.72-10.84-18.15-7.76
		c-5.43,3.08-7.78,0.88-15.04-1.48c-7.25-2.36-14.99,1.77-14.99,1.77s12.34-0.15,17.38,6.72c5.04,6.88,13.27,1.68,15.41-0.59
		c2.14-2.28,11.53,6.26,15.67,6.81C559.76,827.77,590.68,821.97,598.76,812.91L598.76,812.91z"/>
	<path class="st3" d="M912.35,773.02c7.21,5.8-0.49,16.93-6.85,16.82c-6.36-0.11-9.37,0.78-12.69,6.1
		c-2.78,4.46-9.03,8.48-15.66,10.28c-6.02,1.64-12.46,3.09-16.63,2.44c0,0,21.96-6.83,25.44-10.97c3.48-4.15,9.91-9.3,10.67-11.88
		c0.76-2.59,3.95,0.21,8.64-3.29c4.69-3.5,2.5-7.76-0.25-8.72C902.27,772.84,906.74,768.51,912.35,773.02L912.35,773.02z"/>
	<path class="st3" d="M830.48,820.67c-17.63,4.84-25.64,0.85-28.55-2.11c-2.91-2.96-9.7-5.74-15.05-4.08
		c-5.35,1.66-18.64-2.12-21.08-4.53c-2.44-2.41,16.1,13.55,22.62,9.75C794.95,815.89,801.12,835.65,830.48,820.67L830.48,820.67z"/>
</g>
<g>
	<path class="st2" d="M920.43,704.07c-0.09-14.91-26.6-4.08-46.34,5.69c-19.74,9.77-139.76,18.66-226.57,41.91
		c-86.8,23.25-195.87,78.04-233.32,76.86c-37.45-1.17-275.62,49.35-312.87,64.09s-47.23,56.62-18.4,55.9
		c28.83-0.72,40.43-5.23,37.68,4.75c-2.74,9.98,35.49-2.78,28.63-16.63c-6.86-13.85-17-0.21-44.07-11.45
		c-27.07-11.24,34.8-17.63,78.63-9.76c30.42,5.46,133.14-8.77,235.96-34.09c113.18-27.86,107.78-32.1,207.06-73.62
		c108.87-45.53,222.69-65.77,243.75-78.17C896.75,714.15,920.54,722.9,920.43,704.07L920.43,704.07z"/>
	<path class="st5" d="M920.43,704.07c-0.11-21.74-47.87,11.07-61.1,14.26c-22.18,5.36-25.76,9.69-36.6,16.07
		s-50.66,5.68-62.94,11.75c-12.27,6.07-58.91,30.17-85.37,34.59c-26.46,4.42-25.65,6.06-45.99,12.55
		c-20.34,6.49-29.41,2.3-40.16,10.17c-10.75,7.87-22.81,20.47-44.06,23.84c-21.25,3.37-40.6,6.11-63.72,18.57
		c-23.11,12.46-56.77,10.87-65.65,9.65c-8.88-1.22-19.24,13.83-36.8,14.36c-17.56,0.53-25.61-5.14-41.14-0.51
		c-15.53,4.62-36.4,13.65-57.03,15.69c-20.63,2.04-13.44,7.76-57.37,14.19c-43.93,6.43-24.4,2.7-45.63,1.64
		c-21.23-1.06-85.25,3.52-77.15,17.08c7.65-6.26,50.99-8.44,84.06-2.5c30.42,5.46,133.14-8.77,235.96-34.09
		c113.18-27.86,107.78-32.1,207.06-73.62c108.87-45.53,222.69-65.77,243.75-78.17C896.75,714.15,920.54,722.9,920.43,704.07
		L920.43,704.07z"/>
	<path class="st3" d="M154.18,912.26c4.39,0.21,8.81,0.52,13.2,0.95c77.72-10.8,174.88-44.89,174.88-44.89s-21.19,3.98-54.85,13.21
		C256.39,890.03,220.4,897.44,154.18,912.26L154.18,912.26z"/>
	<path class="st5" d="M718.06,736.46c-3.33,0.59-6.66,1.2-9.98,1.82c-58.08,19.03-161.22,53.72-209.32,75.35
		c-61.58,27.68-84.29,13.39-169.49,33.04c-85.19,19.66-135.11,27.42-165.73,35.51c-30.62,8.1-61.3,22.18-65.39,33.9
		c36.62-28.21,115.25-44.83,158.47-49.96c43.21-5.13,159.86-28.03,192.66-30.79c32.8-2.77,120.06-44.08,165.35-61.39
		C639.76,764.34,686.71,747.65,718.06,736.46L718.06,736.46z"/>
	<path class="st3" d="M775.91,727.15c-3.32,0.49-6.68,1-10.07,1.51c-27.98,11.63-66.1,26.8-90.81,33.96
		c-43.05,12.48-135.47,43.36-170.74,62.2c-35.26,18.84-79.23,27.13-172.62,38.52c-93.39,11.39-201.89,41.4-201.89,41.4
		c29.82,0.57,126.5-24.06,152.06-29.74c25.56-5.68,134.48-19.65,175-26.7c40.52-7.05,106.14-51.13,191.49-72.93
		C701.79,761.71,748.48,740.84,775.91,727.15L775.91,727.15z"/>
	<path class="st3" d="M844.78,716.79c-3.66,0.62-7.56,1.26-11.7,1.9c-16.78,9.07-35,17.79-41.67,16.98
		c-13.56-1.65-74.28,19.58-86.28,26.91c-12.01,7.33-34.59,9.68-43.05,12.48c-8.46,2.79-30.88,12.49-40.64,15
		c-9.76,2.51-53.64,12.15-60.72,21.22c-7.09,9.08-81.65,29.26-85.94,36.95c-4.3,7.7-38.4,10.18-54.94,11.86
		c-16.54,1.68-24.53,1.92-32.81,7.41c-8.28,5.49-18.86,0.51-33.73,3.23c-14.87,2.72-70.22,27.78-116.6,38.2
		c36.7-1.91,77.25-18.26,108.22-29.4c30.97-11.14,31.3,3.55,44.05-6.94c12.76-10.49,11.83-10.03,46.75-9.67
		c34.93,0.36,40.73-13.65,51.61-18.57c10.88-4.92,61.27-17.78,86.03-35.61c24.76-17.82,36.45-10.61,48.72-13.89
		c12.27-3.29,28.66-16.97,43.99-17.59c15.33-0.62,37.36-6.42,67.97-22.96c30.61-16.54,34.13-11.78,63.68-15.26
		C813.15,737.24,831.12,726.57,844.78,716.79L844.78,716.79z"/>
	<path class="st3" d="M311.31,904.06c7.94,0.25,25.86-10.94,36.9-8.51c11.05,2.43,8.3-10.14,17.11-7.54
		c8.82,2.6,29.45-0.18,37.64-7.02c8.19-6.84,8.76-8.05,45.74-10.56c36.98-2.51,73.21-35.76,73.21-35.76s-16.55,6.33-31.26,16.4
		c-14.71,10.06-43.71,16.99-54.95,16.51c-11.24-0.47-27.87-0.14-33.27,5.32c-5.4,5.46-8.86,11.35-27.61,8.56
		c-18.76-2.79-16.74,8.29-22.31,6.4c-5.57-1.89-29.98,13.36-40.91,10.96C297.41,895.69,282.99,903.17,311.31,904.06L311.31,904.06z"
		/>
	<path class="st5" d="M199.49,867.2c-46.11,10.38-84.89,20.17-98.16,25.42c-37.25,14.74-47.23,56.62-18.4,55.9
		c28.83-0.72,40.42-5.22,37.69,4.75c-2.74,9.98,35.49-2.78,28.63-16.63c-0.46-0.94-0.94-1.74-1.44-2.45
		c0.52,7.63-6.38,20.74-20.1,14.76c-4.18-1.82-7.18-6.13-12.15-6.33c-10.53-0.43-16.28,0.73-25.11-3.36
		c-8.82-4.09-18.02-7.99-12.31-19.65c5.71-11.66,11.11-17.72,26.77-24.52C117.36,889.68,176.06,873.56,199.49,867.2L199.49,867.2z"
		/>
	<path class="st3" d="M128.3,938.41c-8.69-2.71-15.48-4.04-20.89-5.29c-8.62-2-13.72-3.84-17.38-10.89
		c-3.57-6.89,3.03-16.88,12.81-23.47c14.11-9.51,28.63-10.53,46.15-17.53c0,0-37.39,3.24-54.64,21.6
		c-17.24,18.36-5.98,29.21,7.31,31.83C114.96,937.27,132.96,945.72,128.3,938.41L128.3,938.41z"/>
	<path class="st3" d="M135.46,949.67c-9.42-1.67-10.99-3.42-9.29-5.66c1.69-2.24-19.18-2.6-28.62-4.68
		c-9.44-2.07-20.14-7.88-17.69-17.81c2.45-9.93,16.48-22.78,16.48-22.78s-18.81,10.43-20.85,25.08
		c-2.04,14.65,18.17,19.69,26.1,19.42c7.93-0.27,20.11-0.81,20.47,3.09C122.4,950.23,126.38,956.13,135.46,949.67L135.46,949.67z"/>
	<path class="st4" d="M725.87,736.12c-21.77,7.28-27.99,7.17-32.66,12.38c-4.67,5.22-7.97,0.75-16.42,6.38
		c-8.45,5.63-25.36,4.41-30.49,8.7c-5.13,4.28-12.69,5.12-25.56,10.61c-12.87,5.5-22.82,9.55-22.82,9.55s33.24-12.67,40.62-13.13
		c7.39-0.46,1.76-3.77,14.09-5.23c12.33-1.45,21.41-3.62,25.95-7.61c4.55-3.99,16.16,1.89,22.35-7.57c6.19-9.46,45-16.74,45-16.74
		L725.87,736.12L725.87,736.12z"/>
	<path class="st4" d="M486.34,828.81c-17.56,4.76-40.67,12.8-53.76,11.42c-13.09-1.38-20.6,7.84-29.14,7.09
		c-8.53-0.75-19.69-0.2-27.4,3.35c-7.71,3.55-12.53,4.37-20.74,2.94c-8.22-1.43-17.07,1.12-23.05,3.55
		c-5.98,2.43-11.74,2.67-19.65,3.18c-7.91,0.51-31.34,9.23-41.45,9.25c-10.11,0.03-27.7-1.21-34.1,3c-6.4,4.21-16.2,6.18-21.06,3.62
		c-4.86-2.57-27.3,7.49-37,10.98c-9.7,3.49-18.81,4.86-18.81,4.86s25.29,0.31,33.69-6.46c8.4-6.77,20.44-7.5,28.14-5.81
		c7.69,1.69,14.41-3.2,18.76-5.62c4.35-2.42,48.34-3.24,56.36-7.48c8.02-4.23,28.24-6.91,37.51-6c9.26,0.91,4.51-2.76,16.45-2.38
		c11.94,0.37,22.94-2.45,28.66-6.07c5.72-3.61,20.53-0.74,28.02-2.09c7.49-1.35,11.6-7.57,19.92-7.24
		C436.03,843.24,464.57,843.51,486.34,828.81L486.34,828.81z"/>
	<path class="st4" d="M90.53,918.59c0.91-7.32,10.56-17.34,13.38-16.72c2.83,0.62,3.67-0.74,6.48-4.55
		c2.81-3.82,56.84-19.51,56.84-19.51s-30.85,10.96-39.53,14.45c-8.68,3.49-14.89,6.56-18.73,10.34c-3.84,3.78-5.13,5.23-8.12,4.96
		c-2.99-0.27-10.93,8.78-4.94,13.75c5.99,4.98,14.63,7.84,14.63,7.84S98.79,929.85,90.53,918.59L90.53,918.59z"/>
	<g>
		<path class="st3" d="M412.91,883.03c2.28-0.55,4.57-1.11,6.85-1.67c6.07-1.49,11.77-2.91,17.19-4.28
			c-11.76,1.44-20.93,2.76-23.03,4.99C413.62,882.4,413.28,882.72,412.91,883.03L412.91,883.03z M505.97,857.72
			c5.14-1.69,9.96-3.37,14.63-5.08c8.17-5.7,14.37-10.79,17.53-13.66c10.93-9.91,9.03-4.47,24.36-7.55
			c15.33-3.08,20.89-25.9,39.9-24.66c19.01,1.24,74.4-24.12,86.13-26.23c11.73-2.12,71.77-21.18,78.43-27.34
			c6.66-6.16,19.86-7.37,38.54-6.78c18.68,0.59,33.98-15.99,58.74-21.69c24.77-5.7,42.03-22.43,42.03-22.43s-10.42,4.75-19.94,10.28
			c-9.52,5.53-31.16,7.23-50.95,19.46c-19.78,12.23-60.5,9.97-76.79,20.35c-16.29,10.38-79.96,25.64-105.17,36.72
			c-25.21,11.08-56.62,15.48-65.36,18.88c-8.74,3.4-21.69,15.84-36.47,19.9C538.76,831.41,523.26,845.33,505.97,857.72
			L505.97,857.72z"/>
	</g>
</g>
<g>
	<path class="st6" d="M597.73,670.87c0,0,130.72-143.68,178.75-267.03c48.03-123.35,43.26-305.72,43.26-305.72
		S692.4,334.03,661,409.58C629.71,485.14,528.77,665.82,597.73,670.87L597.73,670.87z"/>
	<path class="st7" d="M784.86,380.29c39.08-121.81,34.89-282.17,34.89-282.17s-9.3,17.24-23.38,43.73
		C807.07,223.99,791.6,337.67,784.86,380.29L784.86,380.29z"/>
	<path class="st7" d="M646.81,664.56c101.3-6.31,126.3-177.46,161.89-232.83c35.47-55.51,91.87-60.56,114.9-7.57
		c22.91,52.85-12.56,65.46-12.56,65.46c68.73-5.33,53.61-104.01,6.05-134.43c-56.99-36.59-161.77-0.84-207.59,66.16
		C651.93,505.6,584.82,630.36,646.81,664.56L646.81,664.56z"/>
	<path class="st6" d="M662.63,662.04c88.15-22.01,112.46-178.02,146.07-230.31c35.47-55.51,91.87-60.56,114.9-7.57
		c22.91,52.85-12.56,65.46-12.56,65.46c40.7-3.22,51.98-38.97,44.66-73.87c-24.77-32.66-50.59-43.73-82.11-40.37
		c-42.33,4.49-77.22,29.44-110.13,117.89C735.66,567.98,707.17,617.74,662.63,662.04L662.63,662.04z"/>
</g>
<g>
	<path class="st8" d="M552.26,788.2c-65.82-155.31-122.34-449.82-70.94-610.04c27.21-84.81,113.86-114.1,132.35-110.74
		c18.49,3.36-17.91,25.93-15.12,43.17c2.91,17.24,5.23,37.01,11.63,109.48c6.4,72.61-13.72,270.4-35.59,362.21
		c-21.75,91.95-19.31,131.9,4.07,186.57C602.04,823.38,579.47,861.79,552.26,788.2L552.26,788.2z"/>
	<path class="st9" d="M552.26,788.2c-65.82-155.31-122.34-449.82-70.94-610.04c27.21-84.81,113.86-114.1,132.35-110.74
		c18.49,3.36-17.91,25.93-15.12,43.17c2.91,17.24,5.23,37.01,11.63,109.48c1.86,20.61,1.51,51.44-0.47,87.05
		c-2.33-12.76-4.42-26.21-6.16-40.37c-17.44-144.38-42.33-133.87-62.34-130.92c-20,3.08-52.45,46.68-56.17,195.68
		c-3.72,144.66,35.12,302.08,93.39,497.2C571.68,827.3,562.26,815.39,552.26,788.2L552.26,788.2z"/>
	<path class="st10" d="M473.06,209.13c2.44-10.79,5.12-21.17,8.26-30.98c27.21-84.81,113.86-114.1,132.35-110.74
		c4.42,0.84,5.7,2.66,5.12,5.33c-0.46,0.42-0.93,0.98-1.4,1.4c-37.45,36.17-36.28,21.17-72.45,31.68
		C521.79,112.55,494,153.06,473.06,209.13L473.06,209.13z"/>
	<path class="st11" d="M603.78,868.38c-42.1-75.41-72.8-214.05-56.17-366.42c16.63-152.51,62.57-251.05,121.3-281.89
		c58.85-30.84,46.05,16.96,35.82,58.45C685.42,357.02,580.64,455,575.64,658.95C574.36,711.38,658.79,908.47,603.78,868.38
		L603.78,868.38z"/>
	<path class="st10" d="M565.17,398.37c22.68-93.78,59.66-155.17,103.74-178.3c58.85-30.84,46.05,16.96,35.82,58.45
		c-1.63,6.73-3.95,13.74-6.75,20.75c3.37-25.09,6.63-57.19,2.91-65.32c-6.4-13.88-31.98,7.71-66.41,43.03
		C614.01,298,587.27,343.98,565.17,398.37L565.17,398.37z"/>
	<path class="st8" d="M620.41,842.16c1.4,8.27,2.21,15.28,1.98,20.61c-25.12-52.71-57.45-133.03-60.71-194.56
		c-5.12-95.46,0-140.17,10.12-204.8c10.23-64.76,8.95,7.71,8.95,27.75c0,1.26,57.68-179.14,109.9-235.63
		c1.16-1.26-50.24,98.68-72.45,162.74c-22.68,65.88-44.77,140.74-47.33,212.37C568.08,708.86,596.57,771.65,620.41,842.16
		L620.41,842.16z"/>
	<path class="st12" d="M407.12,765.91c65.48-2.94,108.97-1.96,122.93,7.99c13.84,9.81,49.08,107.65,75.36,109.62
		c26.17,1.96,26.17-17.8,20.47-49.48c-5.7-31.54-38.49-103.59-43.5-108.64C577.5,720.49,572.61,764.93,407.12,765.91L407.12,765.91z
		"/>
	<path class="st13" d="M435.85,764.93c171.31-4.77,140.6,57.33,176.54,88.31c3.37-27.9-46.75-90.69-35.12-106.11
		c10.23-13.74,31.4,45.7,40.01,77.8c6.16,22.57,7.44,41.49,3.26,56.07c10.7-6.31,9.65-23.27,5.35-46.96
		c-5.7-31.54-38.49-103.59-43.5-108.64c-4.54-4.63-9.19,34.2-146.3,39.95L435.85,764.93z"/>
	<path class="st11" d="M200.69,192.59c-46.98,14.44,0,113.12,77.45,240.4c64.08,105.27,152.12,217.27,197.36,224.98
		c75.24,12.76-6.75-220.35-112.11-363.05C308.85,221.05,247.79,178.15,200.69,192.59L200.69,192.59z"/>
	<path class="st10" d="M200.69,192.59c-46.98,14.44,0,113.12,77.45,240.4c20.82,34.34,44.31,69.25,67.92,101.07
		c-62.45-113.4-146.88-256.52-142.7-312.59c4.54-60.7,151.42,60.98,244.92,217.27c-23.84-50.04-53.26-101.07-84.9-143.82
		C308.85,221.05,247.79,178.15,200.69,192.59L200.69,192.59z"/>
	<path class="st9" d="M241.51,293.1c33.96,40.79,218.64,310.07,225.73,315.39c40.01,29.72-50.47-150.69-55.59-159.66
		c-51.98-89.29-120.83-190.78-146.19-213.49C213.02,188.11,182.67,222.03,241.51,293.1L241.51,293.1z"/>
	<path class="st8" d="M221.98,228.9c27.56,18.22,76.41,69.53,118.97,136.95c42.56,67.42,102.92,182.93,120.72,221.48
		c17.79,38.55-78.15-135.83-135.83-221.48C268.15,280.2,213.14,224.55,221.98,228.9L221.98,228.9z"/>
	<path class="st11" d="M244.19,615.78C175.46,633.72,123.47,676.2,83.35,746c-12.79,22.43,17.21,24.11,47.33,17.24
		c30-6.87,45.82-37.99,93.04-37.99s68.73,43.17,144.56,48.36c75.94,5.19,161.89-25.93,196.19,3.36
		c34.42,29.44,41.52,77.66,50.12,77.66C616.22,854.64,566.8,531.39,244.19,615.78L244.19,615.78z"/>
	<path class="st8" d="M199.18,717.69c6.05-1.26-2.79,7.57,24.54,7.57c9.77,0,25.82-4.21,40.01,3.22
		c25.7,13.18,55.82,41.77,104.55,45.14c75.94,5.19,161.89-25.93,196.19,3.36c34.42,29.44,41.52,77.66,50.12,77.66
		c0.58,0-5.47-41.49-28.26-90.97c-48.85-44.29-94.9-62.1-94.9-62.1l-83.85-21.59C336.41,671.01,245.12,678.86,199.18,717.69
		L199.18,717.69z"/>
	<path class="st14" d="M295.13,747.54c19.42,11.92,42.57,23.97,73.15,26.07c75.94,5.19,161.89-25.93,196.19,3.36
		c34.42,29.44,41.52,77.66,50.12,77.66c0.58,0-5.47-41.49-28.26-90.97c-48.85-44.29-94.9-62.1-94.9-62.1l-83.85-21.59
		c-13.49-1.68-27.56-2.8-42.1-3.22c0.23,1.96,2.68,3.78,8.14,5.61c51.87,17.38,79.55,62.52,27.68,63.92
		C369.09,747.12,329.78,745.86,295.13,747.54L295.13,747.54z"/>
	<path class="st9" d="M586.34,763.66c-40.12-87.05-132.35-198.35-332.38-150.41c29.54,2.38,67.22,5.61,102.11,9.39
		c71.29,7.85,132.93,76.82,102.69,67.7c-14.77-4.49-32.33-7.99-51.17-10.37l83.85,21.59C491.44,701.57,537.49,719.37,586.34,763.66
		L586.34,763.66z"/>
	<path class="st9" d="M90.33,734.37c-2.33,3.78-4.65,7.71-6.98,11.63c-12.79,22.43,17.21,24.11,47.33,17.24
		c26.17-6.03,45.82-30,69.66-43.31c46.98-26.35,99.78-45,178.17-39.81c57.22,3.79-50.36-6.73-56.87-11.77
		c-2.67,0-5.35-0.14-7.79-0.14c-41.05,0-100.6,27.33-156.77,66.44C121.61,759.32,100.45,757.08,90.33,734.37L90.33,734.37z"/>
	<path class="st10" d="M244.19,615.78c-57.92,15.14-103.85,47.66-140.95,99.24c46.87-47.52,112.23-84.95,200.61-99.1
		c79.78-12.62,143.28,9.11,192.12,32.66C440.38,607.65,359.79,585.5,244.19,615.78L244.19,615.78z"/>
	<path class="st15" d="M544.12,721.19c-34.54-36.03-178.17-59.57-233.29-56.77c-55.24,2.8-131.07,45.7-151.77,66.44
		c-20.58,20.75,31.05-16.54,63.27-31.82c32.21-15.28,64.31-22.15,110.25-20.75c46.05,1.4,114.67,29.86,158.28,54.81
		C534.58,758.06,561.33,743.34,544.12,721.19L544.12,721.19z"/>
	<path class="st16" d="M132.31,762.82c29.07-7.71,45.01-37.57,91.41-37.57c47.22,0,68.73,43.17,144.56,48.36
		c33.14,2.24,68.15-2.38,100.02-5.89c48.73-5.47-37.21-7.71-77.1-6.31c-40.12,1.4-82.69-13.88-104.55-26.35
		c-21.86-12.48-67.8-37.43-105.71-7.01C170.22,736.75,151.97,749.93,132.31,762.82L132.31,762.82z"/>
	<path class="st17" d="M543.89,700.73c20-75.83-19.65-137.93-91.87-195.26s-76.52-102.05-76.52-102.05s-45.82,73.73-78.04,88.45
		c-23.96,11.07-35.24,21.59-17.79,34.62c6.05,4.63,18.49-0.7,31.17,8.41C359.91,570.08,425.61,756.38,543.89,700.73L543.89,700.73z"
		/>
	<path class="st14" d="M543.89,700.73c20-75.83-19.65-137.93-91.87-195.26c-3.84-3.08-7.44-6.03-10.93-8.97
		c0.12,1.4,0.7,2.66,1.86,3.93c20.7,21.17,63.85,109.48,41.52,84.53c-22.33-24.95-75.13-63.22-47.91-30.7
		c27.21,32.52,60.47,84.67,52.57,96.16c-3.95,5.75-63.73-73.03-88.39-78.78c-12.68-2.94,83.5,129.38-8.61,68.83
		C431.08,689.93,479.81,730.86,543.89,700.73L543.89,700.73z"/>
	<path class="st14" d="M555.98,706.19c-4.19-105.13-7.09-181.11,6.4-190.22c13.61-9.25,4.19,63.78,1.74,101.49
		C561.8,655.03,555.98,706.19,555.98,706.19L555.98,706.19z"/>
	<path class="st11" d="M472.83,741.94c16.05-40.09,37.91-38.69,59.78-45.7c21.86-6.87,31.05-49.9,36.75-72.05
		c5.7-22.15,39.08-33.22,73.5-6.87c34.54,26.35,57.45,163.44,47.22,199.47c-10.35,36.02-96.64-51.3-151.77-62.38
		S458.99,768.29,472.83,741.94L472.83,741.94z"/>
	<path class="st15" d="M669.26,823.66c-31.28-10.23-89.78-60.98-130.95-69.25c-54.78-10.93-78.97,13.6-65.71-12.05
		c28.03-2.52,45.24-0.28,68.15,2.94C567.96,749.09,639.13,797.45,669.26,823.66L669.26,823.66z"/>
	<path class="st10" d="M569.36,624.47v-0.28c5.7-22.15,39.08-33.22,73.5-6.87c25,19.06,43.96,96.44,48.61,151.25
		c-3.02-14.72-7.56-31.26-13.84-48.36c-26.28-72.61-45.94-109.62-87.57-100.37L569.36,624.47z"/>
	<path class="st15" d="M549.94,703.67c29.42,20.05,86.41,54.95,94.2,62.66c7.79,7.57-3.84-11.49-13.49-22.71
		c-9.54-11.21-54.89-52.99-66.41-56.21C552.61,684.19,536.1,694.56,549.94,703.67L549.94,703.67z"/>
	<path class="st8" d="M545.63,686.57c4.3-5.33,7.91-12.2,10.93-19.62c10,8.83,24.31,21.45,44.43,38.69
		c50.36,43.59,63.5,93.78,48.15,67.42C635.88,750.07,583.54,702.13,545.63,686.57L545.63,686.57z"/>
	<path class="st10" d="M514.23,567.28c-16.05-21.45-37.21-41.91-62.22-61.82c-43.38-34.48-62.22-64.34-70.36-82.84l-19.19,26.77
		C386.42,467.47,466.9,518.5,514.23,567.28L514.23,567.28z"/>
	<path class="st15" d="M260.12,521.86c0,0-13.03,1.96-13.03,14.58s15.7,18.92,24.42,8.41c8.61-10.51,21.63-4.2,21.63,11.49
		c0,15.7,19.19,26.21,28.73,9.39c9.54-16.68,3.49-3.08,18.26-9.39c14.77-6.31,16.51-28.32,16.51-40.79c0-12.62-5.23-9.53,9.54-21.03
		c14.77-11.49,19.19-24.11,2.68-28.32c-16.51-4.21-1.74-10.37,12.09-10.37c13.96,0,20.93-9.53,13.96-14.72
		c-6.98-5.19,0-3.22,1.74-10.51c1.74-7.29-6.05-18.78-6.05-18.78s0-1.12,3.49-8.41c3.37-7.43-8.72-24.11-25.24-26.21
		c-16.51-2.1-34.77,3.08-24.31,14.72c10.35,11.49,15.58,24.11,15.58,24.11s-13.96,20.89-12.21,8.27
		c1.74-12.48-6.86-33.5-23.38-37.71c-16.51-4.21-26.17-8.41-24.42,0c1.74,8.41,0.93,22.01-4.3,12.62c-5.23-9.39-20,6.31-36.52,15.7
		c-16.51,9.39-41.75,38.83-38.26,58.73c2.09,12.06,5.47,9.67,11.51,7.15c18.49-7.71-1.4,10.93-4.65,12.48
		C216.28,498.87,232.91,523.55,260.12,521.86L260.12,521.86z"/>
	<path class="st18" d="M260.12,521.86c0,0-13.03,1.96-13.03,14.58s15.7,18.92,24.42,8.41c8.61-10.51,21.63-4.2,21.63,11.49
		c0,15.7,19.19,26.21,28.73,9.39c9.54-16.68,3.49-3.08,18.26-9.39c0.47-0.14,0.81-0.28,1.16-0.56c6.86-14.86,7.68-31.12,6.98-37.57
		c-1.4-14.44-1.4-24.25,8.95-32.24c10.35-8.13-53.5-48.36-53.5-48.36c-21.4-5.75-88.04,5.19-82.69,36.03
		c2.09,12.06,5.47,9.67,11.51,7.15c18.49-7.71-1.4,10.93-4.65,12.48c-19.07,9.25-8.61,23.97,3.37,29.02
		C242.45,526.91,254.19,522.14,260.12,521.86L260.12,521.86z"/>
	<path class="st13" d="M241.51,429.63c-4.3,4.63-8.37,9.67-11.86,15.14c2.91,14.44,9.42,19.62,13.96,30.42
		c6.63,16.12,1.51,34.9,23.03,40.23c21.51,5.47,35.59,9.95,48.96,2.8c13.37-7.29,31.28-39.39,34.89-56.49
		c3.72-16.96,1.51-23.27-6.63-28.6c-8.14-5.33-9.65-27.75-21.51-32.24c-11.86-4.49-17.91,6.31-26.75,5.33
		c-8.95-0.84-27.45,1.82-27.45,8.97c0,7.15-9.65-0.84-17.91,11.63C247.68,430.89,244.54,431.17,241.51,429.63L241.51,429.63z"/>
	<path class="st19" d="M248.03,457.24c-6.28,14.44,13.26,19.48,20.35,37.15c6.98,17.8,10.47,11.77,38.38,6.73
		c28.03-5.05,15.12-33.08,30.82-44.72c5.23-3.79,11.86-10.23,10.58-11.78c-1.74-2.24-12.21-6.59-12.21-8.41
		c0-10.51-3.26-6.59-6.05-16.82c-3.72-13.46-26.63-12.62-27.33-3.36c-0.7,9.25,2.09,2.52-4.88,0.84c-6.98-1.68-26.52,0-21.63,5.89
		c4.88,5.89,1.4,3.36-8.37,3.36C257.8,426.12,234.77,451.35,248.03,457.24L248.03,457.24z"/>
	<path class="st12" d="M266.29,490.04c0.7,1.4,1.4,2.8,2.09,4.35c6.98,17.8,10.47,11.77,38.38,6.73
		c28.03-5.05,15.12-33.08,30.82-44.72c5.23-3.79,11.86-10.23,10.58-11.78c-0.93-1.26-4.54-3.08-7.56-4.77
		c-4.19-1.4-8.84-2.52-12.09-4.21c-5.35-2.66-20.35,0.42-29.89,1.26c-9.42,0.84-11.4,7.85-21.17,11.07
		c-9.77,3.22-13.03,23.41-9.77,36.31C267.68,484.3,266.98,486.96,266.29,490.04L266.29,490.04z"/>
	<path class="st15" d="M248.03,457.24c-6.28,14.44,13.26,19.48,20.35,37.15c6.98,17.8,10.47,11.77,38.38,6.73
		c24.07-4.35,17.91-25.65,25.7-38.83c-7.44,7.15-19.77,26.07-29.77,30.7c-11.28,5.19-24.31,3.22-27.8-3.93
		c-3.49-7.15-13.26-18.92-18.84-22.15c-5.7-3.22,0.7-8.41-3.61-11.07c-3.37-2.1-4.42-10.23-0.47-19.76
		C244.89,443.79,240.24,453.88,248.03,457.24L248.03,457.24z"/>
	<path class="st12" d="M270.36,523.4c18.96,6.45,37.8,5.47,48.73,1.26c10.93-4.21,21.05-21.59,25-30.56
		c3.84-8.97-2.09,26.35-3.72,33.78c-1.74,7.43-14.07,9.95-20.47,7.71c-6.4-2.24-3.49,9.39-9.89,9.67
		C303.62,545.55,274.08,527.61,270.36,523.4L270.36,523.4z"/>
</g>
</svg>
