<?xml version="1.0" encoding="utf-8"?>
<!-- Generator: Adobe Illustrator 26.0.3, SVG Export Plug-In . SVG Version: 6.00 Build 0)  -->
<svg version="1.1" id="Layer_1" xmlns="http://www.w3.org/2000/svg" xmlns:xlink="http://www.w3.org/1999/xlink" x="0px" y="0px"
	 viewBox="0 0 1024 1024" style="enable-background:new 0 0 1024 1024;" xml:space="preserve">
<style type="text/css">
	.st0{fill:#FFF5D1;}
	.st1{fill:#886E55;}
	.st2{fill:#B6D783;}
	.st3{fill:#3F3118;}
</style>
<g>
	<path class="st0" d="M515.2,513.3c9.1-17.9,17.5-34.3,25.7-50.9c2.4-5,3.4-10.3,1.7-16.1c-1.1-3.7-0.1-8.1-0.1-11.2
		c-7.9-4.8-15.6-9.5-22.4-13.7c0.4,9.8,1.8,21.4,1.3,32.9c-0.8,16-3.1,32-4.8,47.9l-1.8,0.5c0.1,0.4,0.2,0.9,0.4,1.3
		c0.1,0.4,0.8,0.6,1.2,0.9C516,507.2,515.7,509.5,515.2,513.3z"/>
	<path class="st0" d="M656.5,399.7c4.7-6.7,11.6-12.6,17.2-18.5c9.3-9.6,19-18.9,28.5-28.2c-10,9.9-24.6,14.9-34.7,25.8
		c-5.4,5.8-10.1,12.2-14.3,19c-0.5,0.7-10.5,18.5-2.4,15C650.1,413.1,655.6,401,656.5,399.7z M558.5,548.6l-1.8,0.2
		c-0.3-1.6-1.4-3.7-0.8-4.8c3.5-6.6,6.9-13.4,11.2-19.5c5.6-8.1,11.6-16.1,18.3-23.3c5-5.4,11.3-9.7,17.4-13.9
		c1.5-1,4.8-0.7,6.7,0.2c6.6,3.3,13.5,4.8,20.8,4c8.7-1,14.5-5.6,17.2-14.1c0.7-2.2,1.3-4.5,2.2-7.3c2.7,0.4,5.2,0.8,7.8,1.1
		c4.3,0.5,8.5,1.4,12.8,1.5c6,0,11.5-1.9,14.4-7.7c2.9-5.9,2.6-12.1-1.4-17.3c-4.7-6.1-10.1-11.6-15.1-17.4
		c-1.3-1.5-2.1-3.3-3.6-4.6c-1.1-1-3-1.2-4.3-2c-11-7.4-22.1-14.7-32.9-22.4c-9.2-6.6-18.4-8.6-29.3-4.2c-10,4-19.7,3.8-26.9-6.2
		c16.8-21.9,48.3-55.3,70-69.3c22.7-14.6,47.5-24.7,72.7-33.6c19.4-6.9,40-6.1,60.2-2.8c10.9,1.8,21.6,5.2,32.3,8.6
		c-19.9,0.7-38.6,5.4-55.9,14.5c-6.3,3.4-11.6,8.8-17,13.8c25.8-16.5,55.1-17.5,84.4-18.9c-5.3,2.9-10.7,5.6-15.8,8.8
		c-17.5,10.6-29.2,26.5-38.1,44.3c-8.5,16.9-14.8,34.6-18.2,53.4c-2.9,16.2-5.2,32.9-10.8,48.2c-4.9,13.5-12.6,26.8-29.1,30.7
		c-9,2.1-17.9,4.7-26.8,7.1c-0.7,0.2-1.4,0-2.1-0.1c-15.6-3.4-30.6,0.7-45.8,3.3c-18,3.1-34.5,9.5-49.9,19.3
		c-7.5,4.8-13,11.3-17,19.1c-0.3,0.6-0.6,1.2-0.9,1.9C561.9,542.3,560.1,545.4,558.5,548.6z M691.4,344.1
		c-20.1,15.3-39.3,31.5-50.3,55.3c17.1-18.1,34.2-36.3,51.3-54.4C692,344.7,691.7,344.4,691.4,344.1z M672.3,426.8
		c10.6-15.4,21.2-30.8,31.7-46.2C689.5,393.3,678.3,408.3,672.3,426.8z"/>
	<path class="st0" d="M487.9,353.7c0.6-0.3,1.2-0.5,1.7-0.8c8,15.4,16,30.9,24,46.2c4.9-18.8,28.9-30.7,48.3-16.5
		c1.2,0.9,2.6,1.5,4,2.2c0-0.2,0-0.4,0-0.6c-0.5-2.2-1.1-4.3-1.4-6.5c-2.1-21.7-8.9-42-21-59.9c-20.5-30.3-48.2-53-80.6-69.8
		c-19-9.8-38.5-18.5-57.8-27.7c-0.4-0.2-0.9-0.1-3.1-0.5c34.1,24.1,48.7,58.8,60.4,95.2c-3.2-5.4-6.5-10.7-9.2-16.3
		c-17.1-34.6-41-63.5-71.2-87.3c-2-1.6-4.4-2.7-6.6-4.1c6,11.3,11.8,22,17.4,32.8c8.6,16.7,13.9,34,11.4,53.3
		c-1.3,10.6-0.8,21.5-1.1,32.3c-0.2,7.4,0.6,14.8,2.8,21.8c1.9,6.2,13.1,26.3,17,35.7c22.4,12.1,42.2,28.5,59,49.9
		c8.3,10.6,14,23.3,21.1,35c0.6,1,2.1,1.5,3.2,2.2c0-0.1,0-0.2,0-0.3c-0.5-1.7-1-3.4-1.3-5.2c-2.8-19.7-5.1-39.4-8.3-59.1
		c-1.9-11.4-5.2-22.6-7.8-33.8c0.6-0.2,1.2-0.3,1.8-0.5c4.3,16.4,9.2,32.7,12.7,49.3c3.4,16.2,4.7,32.7,2.9,49.2
		c0,0.1,0.1,0.3,0.1,0.4c0,0,0,0,0,0l0,0c0,0,0,0,0,0c0,0-0.1,0-0.1,0c2.8,10.8,5.7,21.5,8.6,32.3l1.8-0.5c0-1.4-0.2-2.9-0.1-4.3
		c1.6-21.5,0.3-43-2-64.4c-2.5-23.6-11.4-45.1-20.6-66.6C492,362.4,489.9,358.1,487.9,353.7z"/>
	<path class="st1" d="M91.6,759.9c-2,2.4-4,5.8-2.2,8.4c1,1.5,2.9,2,4.6,2.4c8,2.1,18.5,3.3,22.9-3.8c2.8-4.6,1.5-10.5,2.2-15.8
		c1.7-11.8,13.4-19.1,24-24.4c16.5-8.2,33.3-15.6,50.6-22.1c9.8-3.7,39.4-7.8,42.8-18.4c-26.4,5.9-53.3,14.8-78,25.9
		C133.3,723.4,109.4,738.7,91.6,759.9z"/>
	<path class="st1" d="M122.5,787c-1.2,6.4,5.6,11.4,11.8,13.5c11.1,3.8,27.7,5.3,37.8-1.3c-5-2.9-11-4.4-16-7.8
		c-5.4-3.6-9.8-9.2-10.6-15.7c-1-8.6,4.5-16.5,9.7-23.4c5.8-7.6,11.5-15.2,17.3-22.8c-9.2,4.4-18.1,9.3-26.7,14.6
		c-3.8,2.3-7.7,5-9.5,9c-2.7,6.2,0.3,13.9-2.8,19.9C130.6,778.4,123.6,781.1,122.5,787z"/>
	<path class="st1" d="M228.7,705.5c16.3-3.8,33.4-8.7,50.8-11.6c8-1.4,11.9-4.7,13.9-11.9c0.7-2.6,1.7-5.2,2.6-7.7
		c-0.4-0.4-0.9-0.7-1.3-1.1C272.5,684.1,250.1,695,228.7,705.5z"/>
	<path class="st1" d="M88.7,675.9c0.1,0.4,0.1,0.8,0.2,1.2c12.2-1.2,24.5-2.3,36.6-3.7c39.9-4.8,79.9-8.4,120.2-7.4
		c4.2,0.1,8.4-1.6,12.7-2.2c13.7-1.6,27.4-3,41.1-4.7c1.5-0.2,3.3-1.2,4.2-2.4c7.6-10.2,17-17.9,29.5-22.7
		c-4.4-2.2-7.9-3.3-12.7-1.6c-30.4,10.9-62,15.9-93.9,20.4c-45.1,6.3-89.9,14.6-134.8,22C90.7,675,89.7,675.5,88.7,675.9z"/>
	<path class="st1" d="M731.4,487.2c4,1.9,7.1,2,11.1-0.1c27.8-14.7,52.3-34.1,77.6-52.2c3.3-2.4,6.6-4.8,9.8-7.4
		c-16.7,6.6-31,17-45.3,27.4c-5.7,4.1-11,8.8-16.9,12.4c-6.4,3.8-13.1,7.6-20.2,9.7C740.9,478.9,735.6,481.6,731.4,487.2z"/>
	<path class="st1" d="M889.3,388c13.2-2.1,49.7-31.5,54-43.9C915.4,347.2,904,369.3,889.3,388z"/>
	<path class="st1" d="M712,501.6c5.3,1.8,10,3.5,16,2.2c21.3-4.9,43-8.2,63.3-17.2c44.9-19.7,89.8-39.3,134.7-59.1
		c13.5-6,38.1-24.4,47.7-35.3c-6.6,2.7-13.2,4.4-18.9,7.8c-36.6,21.6-75.2,39.2-113.9,56.3c-29.4,13-58.3,27.3-89.8,34.8
		C738.1,494.3,725.2,498.1,712,501.6z"/>
	<path class="st1" d="M744.1,512.6c3.9-0.6,7.7-1.5,11.6-1.8c21.3-1.7,41.7-7.2,61.8-14c28.9-9.8,58-19.1,86.9-28.8
		c11.9-4,23.7-8.5,35.6-12.4c13.6-4.5,27.4-8.6,41-13c1.6-0.5,3.1-1.5,4.5-3.6c-4-0.2-7.9-0.6-11.9-0.5c-16.3,0.5-31.8,5.2-47.3,9.9
		c-2.9,0.9-5.9,1.9-8.9,2.3c-15.8,2.1-29.5,9.7-43.9,15.8c-22.3,9.4-44.7,18.9-67.2,27.9c-17.9,7.1-36.6,10.2-55.8,10.2
		c-8.4,0-16.8,0.1-25.6,1.3c5.5,2.5,11,5,16.5,7.5c0.3,0.3,0.6,0.6,0.9,0.9L744.1,512.6z"/>
	<path class="st2" d="M598.8,702.7c0.5,2.2,2.4,3.7,4,5.2c30,26.7,29.9,88.1,66.8,106c12.4-25.7,13.5-64.1,17-92.4
		c1.6-13.4,1.8-29.7-9.3-37.5c-5-3.5-11.2-4.4-17.1-5.8c-20.3-5-38.9-17-51.6-33.5c0.6,17.7-2.4,35.4-8.7,51.9
		C599.2,698.5,598.3,700.6,598.8,702.7z"/>
	<path class="st2" d="M306.7,675c-9.4,24.4-18.9,48.9-28.3,73.3c38.5-20,81.1-30.7,118.1-52.8c2.1-1.2,4.2-2.5,5.5-4.5
		c1.9-2.8,1.8-6.4,1.7-9.7c-0.6-15.3-1.1-30.7-1.7-46c-13.2,3-26.7,4.3-40.2,3.8c-10.6-0.4-21.8-1.8-31.4,2.8
		C317.8,647.7,311.7,662,306.7,675z"/>
	<path class="st2" d="M222.4,575.8l79.8,34.6c23.3,10.1,47.3,20.4,72.7,23.4c13.7,1.6,24.4,4.2,29.5-9.5c4.9-13.1,6.8-28.5,9.2-42.2
		c-24.1,0.4-42.3-22.5-65.8-27.8c-9.8-2.2-19.9-1.2-29.8,0C285.5,558.6,253.5,565.7,222.4,575.8z"/>
	<path class="st0" d="M233,370.6c0,0,0.1,0,0.1,0c39.1,8.3,75.5,28.5,103.2,57.4c-38.7-26.6-82.2-46.4-127.7-57.9
		c41.4,26.7,67.7,70.7,95.6,111.3c23.5,34.2,51.1,69,89.2,87.4c10.6,5.1,17.2,9.6,25.8,1.6c7.6-7,12.3-16.2,20.8-22.8
		c8.4-6.4,41.6-26.3,53.3-19.1l0,0c-40.9-29.6-98.5-29.3-137.7-61.2c28.5,8.6,57.3,16.5,86.2,23.6c-20.8-12.7-41.5-25.4-62.3-38
		c40.6,12.2,78,34.9,107.4,65.4c2.6,2.7,5.3,5.5,8.3,7.7c2.3,1.7,4.9,2.9,7.7,3.4c-4.8-14.6-15-26.8-26.1-37.4
		c-24.8-23.8-55.2-41.8-88.1-52.1c51.9,4.3,103.2,38.5,116.7,88.8c0,0,0,0.1,0,0.1c2.4,0.1,4.8,0.2,7.2,0.3c0-14.7-4.8-29-11-42.3
		c-24.3-52.1-71.7-92.8-126.8-109.1C329.3,364.4,280.5,367.3,233,370.6z"/>
	<path class="st0" d="M512.9,528.8c0.8-0.7,1.5-1.5,2.3-2.2c11,5.5,22.1,11,32.8,16.4c9.1-28.1,24.4-50.4,52.8-62.3
		c-1.9-3.7-5.4-5.9-10.2-6.1c-4.8-0.2-9.7-0.2-14.5-0.5c-10.7-0.8-20.5-3.6-27.7-14.4c-3,23.1-18.5,37.7-28.8,55.1
		C517,519.1,515.1,524.1,512.9,528.8z"/>
	<path class="st0" d="M534.7,394.7c4.7-3.7,11.7-2.2,16.6,1.2s8.5,8.3,13.2,11.9c8.8,6.8,21.2,8.7,31.5,4.7c5.3-2,10.3-5.5,16-5.7
		c3.7-0.1,7.2,1.2,10.6,2.5c21.9,8.3,45.8,18.5,55.5,39.8c1.7,3.7,2.7,8.5-0.1,11.5c-1.7,1.9-4.5,2.5-7.1,2.4
		c-10-0.4-21-8.6-28.9-2.4c-6.9,5.4-5.5,16.1-15.6,17c-9.5,0.8-17.3-11.1-25-14.9c-7.5-3.8-16.5-2.8-24.7-4.3
		c-8.3-1.4-17.3-7.4-16.7-15.8c0.5-6.6,6.8-13.1,3.5-18.8c-2.4-4.2-8.1-4.4-12.9-4.9c-6.2-0.6-12.6-2.7-16.5-7.6
		c-1.1-1.4-1.9-2.9-2.4-4.6C530.3,402.5,531.2,397.5,534.7,394.7z M628.7,449.3c3.2-0.6,6.4-2.4,8.9-4.5c2.7-2.3,2.2-5.2-2.2-8.2
		c3.3,5.5,0.8,7.3-2.8,8.1c-2.2,0.5-4.6,0.6-6.9,0.4c-13.7-1.1-25.7-6.8-38.2-14.5c12.5-5.6,23.3-1.3,34.5,1.6
		c-7.6-9-25.9-14.6-36-10.6c-3.2,1.3-6.5,4.5-8,7.7c-1.9,4,1.6,7,4.8,9.2C596.6,447.9,611.9,452.4,628.7,449.3z"/>
	<path class="st0" d="M614.2,546.1c44.5,8.8,87.1,26.8,124.5,52.4c-22.8-22.5-49.1-41.9-78.9-53.6c-29.8-11.7-63.3-15.5-94.1-7
		c16-16.2,39.2-23,61.8-26.2c27.6-4,56.2-3.6,82.7,5.3c38,12.7,68.6,42.1,90.4,75.8c19.2,29.7,42.4,71.6,47.9,106.8
		c-11.6-18.3-19.4-36.8-35.6-52.5c-16.9-16.4-36.5-21.8-55.4-33.9c32.6,20.8,60.3,49.4,80.2,82.6c-17.4-24.3-42.3-42.5-69.3-55.4
		c-26.9-12.9-56-20.8-85.1-27.6c45.3,16.2,88.7,37.5,129.1,63.4c-0.1,0-0.2-0.1-0.2-0.1c-62.6-20.4-136.4,3.4-193.6-29.2
		c-3.3-1.9-6.6-4.1-8.6-7.3c-2.1-3.6-2.4-7.9-2.8-12c-3.2-31.9-21.8-61.9-49.1-78.7c0.1-0.1,0.2-0.1,0.3-0.2
		C575.6,540.5,595.7,542.4,614.2,546.1z M613.9,561.2c15.3,5.4,30.5,11.1,45.8,16.7c-24.3-14.1-48.2-29.4-77.6-29.7
		c-5.2-0.1-10.5,0.9-15.7,2.1C583.1,550.6,598.5,555.7,613.9,561.2z M640.5,526.2c52.1,14.8,102.7,32.5,142.3,71.8
		C747.7,549.6,698.3,529.6,640.5,526.2z"/>
	<path class="st0" d="M418.3,619.6c-8.7,67.4,14.6,134.6,40.6,197.4c6.9,16.7,9.2,15,8.6-1.6c-0.4-11.9,0.4-24,2.4-35.8
		c2-11.8,5.1-23.4,9.3-34.6c3.9-10.2,11.9-20.1,14.9-30.2c-11.2,38.3-22.6,77.1-22.7,117c13.3-26.3,31.4-50.1,53.2-69.9
		c19-17.3,41.2-32.1,54.7-54c11.3-18.3,15.5-40.2,17-61.7c1.3-18.6,0.6-37.7-5.8-55.1c-6.4-17.5-19.4-33.2-36.9-39.6
		c0,0.1-0.1,0.2-0.1,0.3c-1.5,3.2-1.4,6.9-1.4,10.4c0.3,39.8-15.1,79.5-42.1,108.7c16.4-30.2,28.9-62.4,37.2-95.8
		c0.8-3.2-4.1-32-15.7-33.4c5.9,50.5-15.5,99.7-36.5,146c7.4-40,18-79.4,31.7-117.7c-24.6,31.4-49.7,63.7-61.2,101.8
		c-1.6-18.6,5.9-37,16.1-52.7c10.2-15.7,23.1-29.4,34.2-44.4c5.8-7.8,11.2-16.5,12.1-26.2c0.2-2.3,0.1-4.7-1.2-6.6
		c-1.8-2.5-5.3-3.1-8.3-3.3c-24.8-2.3-51.6,1-70.6,17C429.4,571.2,421.4,595.8,418.3,619.6z"/>
	<g>
		<path class="st3" d="M55.5,709.6c-3.1-2.7-3.4-6,0.5-7.8c5.1-2.4,10.6-4.8,16.1-5.4c32.1-3.7,64.2-6.8,96.3-10.2
			c8.5-0.9,17-2.2,25.6-3.1c-9,2.8-18.2,5.2-26.9,8.5c-30.5,11.6-58.4,27.5-81.6,50.9c-4.1,4.1-7.8,9-10.6,14.1
			c-7.3,13.6-2.2,25.3,12.6,29.8c10.9,3.3,21.7,2.1,32.9-1.9c-1.9,6.9-0.7,13.2,4.4,17.3c4.6,3.7,10.2,6.8,15.9,8.4
			c15.4,4.4,47.4,7.8,61-3.4c3.3-2.7,5.3-7.3,4.3-11.5c-2-8.2-16.9-9.5-23.5-11.8c-4.7-1.7-9.3-3.8-13.9-5.7c-3.7-1.5-4.1-4-2.4-7.3
			c0.5-1,0.9-2,1.5-2.9c10.8-15.3,22.1-30.2,39.9-38.3c24.5-11.2,49-22.3,73.6-33.4c1.7-0.8,3.7-1.2,6.2-2c-0.4,1.6-0.5,2.4-0.9,3.1
			c-6.7,13.7-13.6,27.3-20.3,41.1c-5.8,11.9-13.6,22.3-23.2,31.3c-3.1,3-3.7,6.6-1.2,10.2c2.6,3.8,7.6,4.4,12,1.4
			c36.2-25.1,77.4-42.9,117.7-60.2c13.4-5.8,23.2-15.9,31.7-26.1c3.7,14.7,7.5,29.8,11.3,44.8c3.2,13.7,10.3,25.5,15.2,38.4
			c5.5,14.5,11.4,28.8,17.6,43c6.5,14.8,11.2,31.7,20.7,44.9c2.9,4,9.1,1.1,8.7-3.5c-1-10.8,1.6-21.5,7.8-30.5
			c0.1-0.2,0.3-0.4,0.4-0.6c13.7-20.7,32.8-36.4,50-53.9c10.7-10.8,22.8-20.2,34-30.6c12.1-11.2,21-24.8,28.7-39.8
			c7.1,6.1,11.8,13.7,15,22c4.3,11.4,8.1,23,11.4,34.8c6.6,23.7,19.1,43.5,36.5,60.6c6.8,6.6,12.8,14,19.1,21c1,1.1,1.8,2.2,2.8,3.3
			c4.8,5.5,8.5,6.9,12.3,4.5c3.8-2.4,4.3-6.4,0.4-12.8c-5.8-9.7-5.1-20.8-7.7-31.1c-2-7.7-0.8-15.1,0.7-22.8c3.2-16.7,6-33.6,8-50.5
			c2.2-18.6,0.4-36.6-12.4-52.6c3.5,0.1,6.2,0.3,8.8,0.4c17,0.1,34-0.3,51,0.4c15.6,0.6,31.6,0.5,46.5,4.1
			c27.7,6.8,51.5,26.8,53.2,61.1c0.2,5,1.4,9.1,7,9.9c5.5,0.8,8.6-2.8,9.6-7.4c1.8-8.2,3.1-16.5,3.9-24.8c0.5-5.3-0.7-10.8-0.2-16.1
			c1-11.1-1.8-21.1-5.6-31.4c-12.9-34.8-28.9-68.2-48.3-99.7c-16.2-26.2-38.4-46.8-64.4-63.2c-1-0.6-1.9-1.6-2.8-2.5
			c-0.3-0.3-0.6-0.6-0.9-0.9c-5.5-2.5-11-5-16.5-7.5c8.8-1.2,17.2-1.3,25.6-1.3c19.2,0,38-3.1,55.8-10.2c22.5-9,44.9-18.5,67.2-27.9
			c14.4-6.1,28.1-13.7,43.9-15.8c3-0.4,5.9-1.4,8.9-2.3c15.5-4.7,30.9-9.5,47.3-9.9c4-0.1,7.9,0.3,11.9,0.5
			c-1.4,2.1-2.9,3.1-4.5,3.6c-13.7,4.4-27.4,8.5-41,13c-11.9,4-23.7,8.5-35.6,12.4c-29,9.7-58,19-86.9,28.8
			c-20.2,6.8-40.5,12.3-61.8,14c-3.9,0.3-7.8,1.2-11.6,1.8c38.4,1.5,75.7-3.7,112.2-16.1c39.8-13.5,80-25.8,119.9-38.7
			c6.5-2.1,12.9-4.5,19.2-7.2c4.8-2,8.5-5.4,8.7-11.2c0.1-5.8-3.1-10.1-8-11.7c-6.3-2.1-13.2-3.5-19.8-3.7
			c-7.3-0.2-14.6,1.4-22.4,2.2c8.3-6.7,16.4-13,24.1-19.7c4.1-3.5,7.9-7.3,11.2-11.5c4.1-5.2,4.1-10.5,1-15
			c-3.2-4.6-9.5-6.9-15.4-4.5c-10,4.1-20.2,7.9-29.3,13.5c-33.4,20.5-70.2,33.8-105.6,50.1c-0.3,0.1-0.6,0-1.6-0.8
			c10-7.4,19.6-15.4,29.9-22.2c20.4-13.4,41.5-25.8,61.8-39.2c6.9-4.6,12.8-10.9,18.7-16.9c2.8-2.9,5-6.7,6.5-10.4
			c4.2-10.1-0.6-18.8-11.5-19.1c-7.5-0.2-15.3,1.7-22.4,4.2c-10.1,3.6-18.5,10.1-25.1,18.9c-4.4,5.9-9.6,11.3-13.5,17.5
			c-8.9,14.5-22.4,22.8-37.3,29.7c-14.8,7-29.8,13.5-43.7,22c-16.5,10.1-28.8,25.2-41.7,39.5c-3.4,3.7-7.7,6.6-12.6,10.8
			c7.9-23.8,14.9-45.8,19-68.8c4.7-25.8,14.5-50,33.8-68.5c14.3-13.7,31.4-22.7,52.1-22.2c6,0.1,10-2.5,11-7.2c1-5-1.6-8.6-7.3-10.9
			c-12.5-5.1-25-10.2-37.3-15.7c-32.3-14.4-65.9-18-100.6-12.9c-4.1,0.6-8.2,1.5-12,3c-27.8,11-54.7,23.3-77.6,43.3
			c-10.1,8.8-20.5,17.5-29.6,27.4c-7.2,7.8-26.2,39.3-27.9,50.2c16.8-21.9,48.3-55.3,70-69.3c22.7-14.6,47.5-24.7,72.7-33.6
			c19.4-6.9,40-6.1,60.2-2.8c10.9,1.8,21.6,5.2,32.3,8.6c-19.9,0.7-38.6,5.4-55.9,14.5c-6.3,3.4-11.6,8.8-17,13.8
			c25.8-16.5,55.1-17.5,84.4-18.9c-5.3,2.9-10.7,5.6-15.8,8.8c-17.5,10.6-29.2,26.5-38.1,44.3c-8.5,16.9-14.8,34.6-18.2,53.4
			c-2.9,16.2-5.2,32.9-10.8,48.2c-4.9,13.5-12.6,26.8-29.1,30.7c-9,2.1-17.9,4.7-26.8,7.1c-0.7,0.2-1.4,0-2.1-0.1
			c-15.6-3.4-30.6,0.7-45.8,3.3c-18,3.1-34.5,9.5-49.9,19.3c-7.5,4.8-13,11.3-17,19.1l1.4,0.7c16-16.2,39.2-23,61.8-26.2
			c27.6-4,56.2-3.6,82.7,5.3c38,12.7,68.6,42.1,90.4,75.8c19.2,29.7,42.4,71.6,47.9,106.8c-11.6-18.3-19.4-36.8-35.6-52.5
			c-16.9-16.4-36.5-21.8-55.4-33.9c32.6,20.8,60.3,49.4,80.2,82.6c-17.4-24.3-42.3-42.5-69.3-55.4c-26.9-12.9-56-20.8-85.1-27.6
			c45.3,16.2,88.7,37.5,129.1,63.4c-0.1,0-0.2-0.1-0.2-0.1c-62.6-20.4-136.4,3.4-193.6-29.2c-3.3-1.9-6.6-4.1-8.6-7.3
			c-2.1-3.6-2.4-7.9-2.8-12c-3.2-31.9-21.8-61.9-49.1-78.7c0.1-0.1,0.2-0.1,0.3-0.2l-0.1-0.1l-1.8,0.2c-0.3-1.6-1.4-3.7-0.8-4.8
			c3.5-6.6,6.9-13.4,11.2-19.5c5.6-8.1,11.6-16.1,18.3-23.3c5-5.4,11.3-9.7,17.4-13.9c1.5-1,4.8-0.7,6.7,0.2
			c6.6,3.3,13.5,4.8,20.8,4c8.7-1,14.5-5.6,17.2-14.1c0.7-2.2,1.3-4.5,2.2-7.3c2.7,0.4,5.2,0.8,7.8,1.1c4.3,0.5,8.5,1.4,12.8,1.5
			c6,0,11.5-1.9,14.4-7.7c2.9-5.9,2.6-12.1-1.4-17.3c-4.7-6.1-10.1-11.6-15.1-17.4c-1.3-1.5-2.1-3.3-3.6-4.6c-1.1-1-3-1.2-4.3-2
			c-11-7.4-22.1-14.7-32.9-22.4c-9.2-6.6-18.4-8.6-29.3-4.2c-10,4-19.7,3.8-26.9-6.2c-1.5-2.1-3.5-3.9-5.3-5.9
			c-1.4-0.7-2.8-1.3-4-2.2c-19.4-14.2-43.4-2.3-48.3,16.5c-8-15.3-16-30.8-24-46.2c-0.6,0.3-1.2,0.5-1.7,0.8c2,4.3,4.1,8.7,6,13.1
			c9.1,21.5,18,43.1,20.6,66.6c2.3,21.4,3.6,42.9,2,64.4c-0.1,1.4,0,2.9,0.1,4.3c1.7-16,4-31.9,4.8-47.9c0.6-11.5-0.8-23.1-1.3-32.9
			c6.8,4.2,14.5,8.9,22.4,13.7c0,3.2-1,7.5,0.1,11.2c1.7,5.9,0.8,11.1-1.7,16.1c-8.1,16.6-16.6,33-25.7,50.9
			c0.5-3.8,0.8-6.1,1.1-8.5c-0.4-0.3-1.1-0.5-1.2-0.9c-0.1-0.4-0.2-0.9-0.4-1.3c-2.9-10.8-5.7-21.5-8.6-32.3c0,0,0,0,0,0
			c-1.1-0.7-2.6-1.2-3.2-2.2c-7-11.7-12.7-24.3-21.1-35c-16.8-21.4-36.7-37.8-59-49.9c0.5,1.2,0.9,2.3,1.1,3.1
			c-1.4-1.3-2.9-2.9-4.5-4.9c-19-9.8-39.7-16.6-61.8-20.8c-16.6-3.1-33.8-3.9-50.8-4.1c-36.9-0.4-73.9,0.4-110.8,0.2
			c-6.2,0-12.4-2.7-18.6-4.3c-3.4-0.9-6.8-2.5-10.2-3.2c-3.7-0.8-6.8,0.6-8.2,4.4c-1.4,3.8,0,7.1,3.4,8.7c4.3,2.1,9.1,3.3,13.6,4.9
			c5,1.8,10.2,3.1,14.8,5.6c36.3,19.8,61.8,49.9,82.6,85c14.7,24.9,30.8,48.9,50.3,70.4c5.8,6.4,12.3,12,18.5,18
			c1.4,1.3,2.8,2.5,4.2,3.8c-10.6-0.6-20.9-1.6-31.2-1.8c-24.3-0.5-47.5,6-71.1,11c-15.2,3.2-30.8,4.2-46.3,5.7
			c-3.6,0.4-7.4-1-11.1-1.7c-2.6-0.5-5.2-1.4-7.9-1.7c-3.8-0.5-6.3,1.3-6.9,5.1c-0.6,3.6,1.3,5.9,4.7,6.8
			c31.7,8.5,61.6,21.8,91.8,34.2c16.7,6.9,33.1,14.7,49.6,22.1c-1,0.2-2.5,0.6-4.1,0.9c-29.7,5.3-59.8,7.4-89.9,8.5
			c-24.7,0.9-48.7,6.6-72.9,10.9c-27.7,5-55.5,9.7-83.2,14.9c-13.5,2.5-25.5,8.4-35.4,18.2c-16.4,16.4-12.6,37.4,8.7,46.4
			c4.9,2.1,10.3,3.3,15.6,3.9c4.9,0.6,10-0.4,12-6c2-5.4-1.4-8.8-5.2-11.8C60.9,713.7,58.1,711.8,55.5,709.6z M889.3,388
			c14.7-18.8,26.1-40.8,54-43.9C939,356.5,902.5,385.9,889.3,388z M830,427.5c-3.2,2.6-6.5,5-9.8,7.4
			c-25.4,18.2-49.9,37.6-77.6,52.2c-4,2.1-7.1,2-11.1,0.1c4.2-5.6,9.6-8.3,16.1-10.3c7.1-2.1,13.8-5.9,20.2-9.7
			c6-3.6,11.3-8.2,16.9-12.4C798.9,444.5,813.3,434.1,830,427.5z M712,501.6c13.2-3.5,26.1-7.3,39.1-10.4
			c31.5-7.5,60.4-21.9,89.8-34.8c38.8-17.1,77.3-34.7,113.9-56.3c5.7-3.4,12.3-5.1,18.9-7.8c-9.7,10.9-34.2,29.3-47.7,35.3
			c-44.9,19.8-89.8,39.3-134.7,59.1c-20.3,8.9-41.9,12.3-63.3,17.2C722,505.1,717.3,503.4,712,501.6z M413.6,582.2
			c-2.4,13.7-4.3,29.1-9.2,42.2c-5.1,13.6-15.7,11-29.5,9.5c-25.4-2.9-49.4-13.3-72.7-23.4l-79.8-34.6
			c31.1-10.1,63.1-17.3,95.5-21.4c9.9-1.3,20.1-2.2,29.8,0C371.3,559.7,389.5,582.6,413.6,582.2z M512.9,529.2
			c-2.4-0.1-4.8-0.2-7.2-0.3c0,0,0-0.1,0-0.1l-2.6,0.7c-2.8-0.5-5.4-1.7-7.7-3.4l-2,2.5c0.2,0.1,0.3,0.2,0.5,0.3
			c-0.2-0.1-0.3-0.2-0.5-0.3c-11.6-7.3-44.9,12.6-53.3,19.1c-8.5,6.6-13.3,15.8-20.8,22.8c-8.7,8-15.3,3.5-25.8-1.6
			c-38.2-18.4-65.7-53.3-89.2-87.4c-27.9-40.6-54.2-84.6-95.6-111.3c45.6,11.5,89,31.2,127.7,57.9c-27.7-28.8-64.1-49.1-103.2-57.4
			c0,0-0.1,0-0.1,0c47.6-3.3,96.3-6.3,142,7.2c55.1,16.3,102.5,57,126.8,109.1C508,500.3,512.9,514.6,512.9,529.2z M576.6,458.5
			c-8.3-1.4-17.3-7.4-16.7-15.8c0.5-6.6,6.8-13.1,3.5-18.8c-2.4-4.2-8.1-4.4-12.9-4.9c-6.2-0.6-12.6-2.7-16.5-7.6
			c-1.1-1.4-1.9-2.9-2.4-4.6c-1.3-4.4-0.4-9.3,3.1-12.1c4.7-3.7,11.7-2.2,16.6,1.2s8.5,8.3,13.2,11.9c8.8,6.8,21.1,8.7,31.5,4.7
			c5.3-2,10.3-5.5,16-5.7c3.7-0.1,7.2,1.2,10.6,2.5c21.9,8.3,45.8,18.5,55.5,39.8c1.7,3.7,2.7,8.5-0.1,11.5
			c-1.7,1.9-4.5,2.5-7.1,2.4c-10-0.4-21-8.6-28.9-2.4c-6.9,5.4-5.5,16.1-15.6,17c-9.5,0.8-17.3-11.1-25-14.9
			C593.8,459,584.9,460,576.6,458.5z M548,543c-10.8-5.4-21.8-10.9-32.8-16.4c-0.7,0.8-1.5,1.5-2.3,2.2c2.2-4.7,4-9.7,6.7-14.2
			c10.3-17.4,25.8-32,28.8-55.1c7.2,10.8,17,13.7,27.7,14.4c4.8,0.3,9.7,0.3,14.5,0.5c4.8,0.3,8.3,2.5,10.2,6.1
			C572.3,492.5,557.1,514.9,548,543z M598.8,702.7c-0.5-2.1,0.3-4.2,1.1-6.1c6.4-16.5,9.4-34.3,8.7-51.9
			c12.8,16.6,31.3,28.6,51.6,33.5c5.9,1.4,12.1,2.4,17.1,5.8c11.1,7.8,10.9,24,9.3,37.5c-3.4,28.3-4.5,66.7-17,92.4
			c-36.9-17.9-36.8-79.4-66.8-106C601.2,706.4,599.3,704.8,598.8,702.7z M452,799.9c-22.9-57.9-41.6-119-33.6-180.3
			c3.1-23.8,11-48.5,29.4-63.9c19-16,45.9-19.3,70.6-17c3.1,0.3,6.5,0.8,8.3,3.3c1.3,1.9,1.4,4.3,1.2,6.6
			c-0.9,9.7-6.3,18.4-12.1,26.2c-11.1,15-24,28.7-34.2,44.4s-17.7,34-16.1,52.7c11.5-38.1,36.7-70.5,61.2-101.8
			c-13.7,38.3-24.3,77.7-31.7,117.7c21-46.3,42.4-95.5,36.5-146c11.6,1.3,16.5,30.1,15.7,33.4c-8.3,33.3-20.8,65.6-37.2,95.8
			c27-29.2,42.3-68.9,42.1-108.7c0-3.5-0.1-7.2,1.4-10.4c0-0.1,0.1-0.2,0.1-0.3c17.5,6.4,30.4,22.1,36.9,39.6
			c6.4,17.5,7.1,36.6,5.8,55.1c-1.5,21.5-5.7,43.4-17,61.7c-13.5,21.9-35.7,36.7-54.7,54c-21.8,19.8-39.9,43.6-53.2,69.9
			c0.1-39.9,11.5-78.8,22.7-117c-3,10.1-11.1,20.1-14.9,30.2c-4.3,11.2-7.4,22.8-9.3,34.6c-2,11.8-2.8,23.8-2.4,35.8
			c0.5,13.7-1,17.3-5.4,8.8c-0.2-1-0.5-2-0.7-2.9C459.3,813.7,455.9,806.7,452,799.9z M306.7,675c5-13,11.1-27.2,23.8-33.2
			c9.6-4.5,20.8-3.1,31.4-2.8c13.5,0.5,27-0.8,40.2-3.8c0.6,15.3,1.1,30.7,1.7,46c0.1,3.3,0.2,6.9-1.7,9.7c-1.3,2-3.5,3.3-5.5,4.5
			c-37,22.1-79.6,32.8-118.1,52.8C287.8,723.9,297.2,699.4,306.7,675z M228.7,705.5c21.4-10.5,43.7-21.4,66.1-32.3
			c0.4,0.4,0.9,0.7,1.3,1.1c-0.9,2.6-1.9,5.1-2.6,7.7c-2,7.2-5.9,10.5-13.9,11.9C262.1,696.9,245.1,701.7,228.7,705.5z M122.5,787
			c1.1-5.9,8.1-8.6,10.9-13.9c3.2-6,0.1-13.7,2.8-19.9c1.8-4.1,5.7-6.7,9.5-9c8.6-5.3,17.6-10.2,26.7-14.6
			c-5.8,7.6-11.5,15.2-17.3,22.8c-5.2,6.9-10.7,14.8-9.7,23.4c0.7,6.5,5.2,12,10.6,15.7c5,3.4,11,4.9,16,7.8
			c-10.1,6.6-26.7,5.1-37.8,1.3C128.1,798.4,121.3,793.4,122.5,787z M236.5,686.2c-3.4,10.6-33,14.7-42.8,18.4
			c-17.2,6.5-34.1,13.9-50.6,22.1c-10.6,5.3-22.3,12.6-24,24.4c-0.8,5.3,0.6,11.2-2.2,15.8c-4.4,7.1-14.8,5.9-22.9,3.8
			c-1.7-0.4-3.6-1-4.6-2.4c-1.7-2.6,0.2-6,2.2-8.4c17.8-21.1,41.6-36.5,66.8-47.8C183.2,701,210.1,692.1,236.5,686.2z M88.9,677
			c-0.1-0.4-0.1-0.8-0.2-1.2c1-0.3,2-0.8,3-1c44.9-7.4,89.7-15.7,134.8-22c31.9-4.5,63.5-9.5,93.9-20.4c4.8-1.7,8.3-0.6,12.7,1.6
			c-12.4,4.9-21.9,12.6-29.5,22.7c-0.9,1.2-2.7,2.2-4.2,2.4c-13.7,1.7-27.4,3-41.1,4.7c-4.2,0.5-8.5,2.3-12.7,2.2
			c-40.3-1.1-80.2,2.5-120.2,7.3C113.4,674.8,101.1,675.8,88.9,677z"/>
		<path class="st3" d="M565.9,384.8C565.9,384.8,565.9,384.8,565.9,384.8c0.1,0,0.2,0.1,0.2,0.1c-0.1-0.3-0.1-0.5-0.2-0.8
			C565.9,384.4,565.9,384.6,565.9,384.8z"/>
		<path class="st3" d="M419.5,381.5c1.6,1.9,3.1,3.6,4.5,4.9c-0.2-0.8-0.6-1.9-1.1-3.1C421.8,382.6,420.6,382,419.5,381.5z"/>
		<path class="st3" d="M382.1,211.3c30.2,23.9,54.1,52.8,71.2,87.3c2.8,5.6,6,10.9,9.2,16.3c-11.7-36.4-26.2-71.1-60.4-95.2
			c2.2,0.3,2.7,0.3,3.1,0.5c19.3,9.2,38.8,17.9,57.8,27.7c32.4,16.7,60,39.5,80.6,69.8c12.1,17.9,18.9,38.2,21,59.9
			c0.2,2.2,0.9,4.4,1.4,6.5c2.8-43.9-13.2-80-45.2-109.9c-17.8-16.6-37.2-30.4-59.3-40.5c-32-14.7-64-29.5-95.8-44.6
			c-5.5-2.6-10.2-7-15.4-10.4c-3.1-2-6.3-3.9-9.5-5.8c-2,0.8-4,1.6-6,2.4c-3,6.2-2.4,9.6,2.8,13.6c15,11.4,25.4,26.6,34.8,42.6
			c2.6,4.5,4.5,9.4,6.7,14.1c6.6,13.9,10.2,28.4,10.6,44.1c0.4,15.9,3,31.7,5.7,47.4c1.8,10.4,14.5,32.6,24.1,44.3
			c1.1,0.6,2.3,1.2,3.4,1.8c-3.9-9.4-15-29.5-17-35.7c-2.2-7-3-14.5-2.8-21.8c0.3-10.8-0.2-21.6,1.1-32.3
			c2.4-19.3-2.8-36.6-11.4-53.3c-5.6-10.8-11.4-21.5-17.4-32.8C377.7,208.7,380.1,209.8,382.1,211.3z"/>
		<path class="st3" d="M379.6,453.1c20.8,12.7,41.5,25.4,62.3,38c-28.9-7.2-57.7-15-86.2-23.6c39.2,31.9,96.8,31.6,137.7,61.2l2-2.5
			c-3-2.2-5.7-5-8.3-7.7C457.6,488,420.2,465.2,379.6,453.1z"/>
		<path class="st3" d="M477,492.1c11.1,10.6,21.3,22.8,26.1,37.4l2.6-0.7c-13.6-50.3-64.8-84.5-116.7-88.8
			C421.8,450.3,452.2,468.2,477,492.1z"/>
		<path class="st3" d="M506.2,470.3C506.2,470.3,506.2,470.3,506.2,470.3c0,0,0.1,0.1,0.1,0.1l0,0
			C506.3,470.3,506.2,470.3,506.2,470.3z"/>
		<path class="st3" d="M506.2,470c0,0.1,0,0.2,0,0.3c0,0,0.1,0,0.1,0.1C506.3,470.2,506.2,470.1,506.2,470z"/>
		<path class="st3" d="M506.3,470.4C506.3,470.4,506.3,470.4,506.3,470.4L506.3,470.4L506.3,470.4z"/>
		<path class="st3" d="M506.3,470.4L506.3,470.4L506.3,470.4C506.3,470.4,506.3,470.4,506.3,470.4z"/>
		<path class="st3" d="M503.3,420.7c-3.4-16.6-8.4-32.9-12.7-49.3c-0.6,0.1-1.2,0.3-1.8,0.5c2.7,11.3,6,22.4,7.8,33.8
			c3.2,19.6,5.5,39.4,8.3,59.1c0.2,1.8,0.8,3.5,1.3,5.2C507.9,453.4,506.7,436.9,503.3,420.7z"/>
		<path class="st3" d="M563.4,539c-1.5,3.2-3.3,6.4-4.9,9.5l0.1,0.1c17-8.2,37.1-6.3,55.7-2.6c44.5,8.8,87.1,26.8,124.5,52.4
			c-22.8-22.5-49.1-41.9-78.9-53.6c-29.8-11.7-63.3-15.5-94.1-7l-1.4-0.7C564,537.8,563.7,538.4,563.4,539z"/>
		<path class="st3" d="M582.1,548.2c-5.2-0.1-10.5,0.9-15.7,2.1c16.7,0.3,32.2,5.5,47.6,11c15.3,5.4,30.5,11.1,45.8,16.7
			C635.4,563.8,611.5,548.5,582.1,548.2z"/>
		<path class="st3" d="M628.7,449.3c3.2-0.6,6.4-2.4,8.9-4.5c2.7-2.3,2.2-5.2-2.2-8.2c3.3,5.5,0.8,7.3-2.8,8.1
			c-2.2,0.5-4.6,0.6-6.9,0.4c-13.7-1.1-25.7-6.8-38.2-14.5c12.5-5.6,23.3-1.3,34.5,1.6c-7.6-9-25.9-14.6-36-10.6
			c-3.2,1.3-6.5,4.5-8,7.7c-1.9,4,1.6,7,4.8,9.2C596.6,447.9,611.9,452.4,628.7,449.3z"/>
		<path class="st3" d="M641.1,399.5c17.1-18.1,34.2-36.3,51.3-54.4c-0.3-0.3-0.6-0.6-1-0.9C671.3,359.5,652.1,375.7,641.1,399.5z"/>
		<path class="st3" d="M653.3,397.8c-0.5,0.7-10.5,18.5-2.4,15c-0.8,0.3,4.7-11.8,5.6-13.1c4.7-6.7,11.6-12.6,17.2-18.5
			c9.3-9.6,19-18.9,28.5-28.2c-10,9.9-24.6,14.9-34.7,25.8C662.2,384.6,657.5,391,653.3,397.8z"/>
		<path class="st3" d="M640.5,526.2c52.1,14.8,102.7,32.5,142.3,71.8C747.7,549.6,698.3,529.6,640.5,526.2z"/>
		<path class="st3" d="M672.3,426.8c10.6-15.4,21.2-30.8,31.7-46.2C689.5,393.3,678.3,408.3,672.3,426.8z"/>
	</g>
</g>
</svg>
