<?xml version="1.0" encoding="utf-8"?>
<!-- Generator: Adobe Illustrator 26.0.2, SVG Export Plug-In . SVG Version: 6.00 Build 0)  -->
<svg version="1.1" id="Layer_1" xmlns="http://www.w3.org/2000/svg" xmlns:xlink="http://www.w3.org/1999/xlink" x="0px" y="0px"
	 viewBox="0 0 150 58" style="enable-background:new 0 0 150 58;" xml:space="preserve">
<style type="text/css">
	.st0{fill:#FFFFFF;stroke:#EAD434;stroke-miterlimit:10;}
</style>
<g>
	<path class="st0" d="M26.8,31.8c0.5,0.2,0.8,0.4,1.2,0.7c0.4,0.3,0.5,0.8,0.6,1.3c0,0.2,0,0.4,0,0.6s-0.1,0.4-0.1,0.6
		c-0.3,1.3-0.7,2.6-1.2,3.8c-0.5,1.3-1,2.5-1.7,3.6c-0.2,0.5-0.5,0.8-0.7,1.2c-0.3,0.4-0.6,0.7-0.9,1.1c-1.3,1.4-2.9,2.4-4.8,2.9
		c-1.9,0.5-3.8,0.5-5.7-0.1c-2-0.6-3.7-1.8-5.2-3.5c-1.4-1.6-2.4-3.5-2.9-5.5s-0.8-4.1-0.9-6.2c0-0.9,0-1.9,0-2.8
		c0.1-0.9,0.2-1.9,0.3-2.8c0.2-1.3,0.4-2.6,0.7-3.9c0.3-1.3,0.7-2.6,1.2-3.8c0.4-0.9,0.9-1.8,1.6-2.7c0.6-0.9,1.4-1.7,2.2-2.3
		c0.8-0.7,1.7-1.2,2.7-1.6s2-0.6,3.1-0.6c0.4,0,0.8,0,1.2,0.1c0.4,0.1,0.8,0.2,1.1,0.3c1.9,0.6,3.5,1.7,4.7,3.4
		c0.7,0.9,1.2,1.9,1.4,2.9c0.3,1,0.4,2.1,0.5,3.3c0,0.6,0,1.2,0,1.8s-0.2,1.2-0.4,1.8c-0.3,0.8-0.9,1.2-1.7,1.4
		c-0.8,0.1-1.6,0.1-2.3-0.2c-0.4-0.2-0.8-0.5-1.1-0.7c-0.3-0.3-0.6-0.6-0.7-1c-0.2-0.5-0.2-0.9-0.2-1.4c0-0.5,0-1,0-1.4
		c0-0.7,0-1.4-0.1-2.1c-0.1-0.7-0.4-1.3-0.8-1.9c0,0,0-0.1-0.1-0.1h-0.1c-0.3,0.1-0.5,0.2-0.7,0.5c-0.2,0.2-0.3,0.5-0.5,0.7
		c-0.4,0.7-0.7,1.4-0.9,2.2c-0.2,0.8-0.4,1.5-0.6,2.2c0,0.1-0.1,0.2-0.1,0.3c-0.6,3.5-0.7,7.1-0.2,10.8c0.2,1.2,0.4,2.4,0.7,3.8
		l0.5,1.9c0,0.1,0.1,0.3,0.1,0.5s0.1,0.3,0.2,0.5s0.1,0.3,0.3,0.4s0.3,0.1,0.5,0.1c0.2,0,0.4-0.1,0.6-0.2c0.7-0.4,1.3-0.9,1.8-1.6
		c0.5-0.6,1-1.3,1.4-2c0.5-0.8,0.9-1.6,1.3-2.5s0.9-1.6,1.3-2.4c0.7-1.1,1.7-1.5,2.9-1.2c0.1,0,0.1,0,0.2,0
		C26.6,31.8,26.7,31.8,26.8,31.8z"/>
	<path class="st0" d="M51.2,40.1c0,0.6-0.1,1.1-0.4,1.5c-0.3,0.4-0.7,0.7-1.1,0.8s-0.9,0.2-1.5,0.1c-0.5-0.1-1-0.3-1.4-0.7
		c-0.6-0.5-1-1.1-1.2-1.9s-0.5-1.5-0.6-2.2l-0.5-2.8c-0.1-0.4-0.1-0.8-0.2-1.3s-0.1-0.9-0.3-1.3c-0.4,0.3-0.7,0.7-1,1.2
		s-0.5,0.9-0.8,1.3c-0.2,0.5-0.5,0.9-0.7,1.3c-0.2,0.4-0.4,0.8-0.6,1.3c-0.5,0.9-0.8,1.8-1.2,2.7s-0.7,1.8-1,2.7
		c-0.1,0.1-0.1,0.2-0.2,0.5s-0.1,0.4-0.2,0.5c-0.1,0.3-0.3,0.6-0.5,0.8s-0.4,0.4-0.8,0.5c-0.6,0.2-1.2,0.3-1.7,0.2
		C35,45.4,34.5,45.3,34,45s-0.9-0.6-1.3-1.1c-0.4-0.5-0.7-1-0.9-1.5c-0.3-0.8-0.5-1.7-0.5-2.5c-0.1-0.8-0.1-1.7-0.2-2.5
		c-0.2-1.9-0.3-3.8-0.3-5.7c0-1.9,0-3.8,0.2-5.8c0.1-1.8,0.3-3.7,0.6-5.5c0.3-1.9,0.7-3.6,1.3-5.3c0.2-0.5,0.5-1,0.8-1.4
		c0.3-0.4,0.7-0.6,1.3-0.7c0.5-0.1,1,0,1.5,0.1c0.5,0.2,1,0.5,1.3,0.8c0.5,0.5,0.7,1.1,0.7,1.8c0,0.7,0,1.4-0.1,2
		c0,0.8-0.1,1.6-0.2,2.4s-0.2,1.5-0.2,2.4c-0.3,2.7-0.5,5.4-0.4,8.1c0,0.2,0,0.3,0,0.5s0,0.3,0,0.4c0.4-0.5,0.8-1,1.1-1.6
		c0.3-0.5,0.7-1.1,1.2-1.6c0.5-0.5,0.9-0.9,1.5-1.2c0.5-0.4,1.1-0.6,1.8-0.7c0.8-0.2,1.7-0.1,2.4,0.1c0.8,0.2,1.4,0.6,2,1.1
		c0.6,0.5,1.1,1.1,1.5,1.9c0.4,0.7,0.7,1.5,0.8,2.3c0.2,1.4,0.5,2.8,0.8,4.1c0.3,1.3,0.5,2.7,0.6,4.2L51.2,40.1L51.2,40.1z"/>
	<path class="st0" d="M61.4,38.7c0,0.2,0,0.3,0,0.5s0,0.3-0.1,0.5c0,0.1,0,0.3-0.1,0.4c-0.1,0.4-0.3,0.7-0.6,0.9s-0.6,0.4-1,0.6
		c-0.4,0.2-0.8,0.2-1.2,0.2c-0.4-0.1-0.8-0.2-1.2-0.3c-0.7-0.2-1.3-0.6-1.8-1.2s-0.8-1.2-1-1.9c-0.1-0.4-0.1-0.7-0.2-1.1
		s0-0.7-0.1-1.1c-0.1-1-0.2-2.1-0.2-3.2c0-1.2,0.1-2.3,0.2-3.5s0.3-2.3,0.6-3.4c0.1-0.4,0.3-0.7,0.6-0.9c0.3-0.2,0.6-0.4,1-0.5
		s0.7-0.2,1-0.2c0.3,0,0.7,0,1,0.1c0.7,0.2,1.3,0.5,1.8,1c0.2,0.2,0.5,0.5,0.6,0.9s0.2,0.7,0.2,1.1c-0.1,1.7-0.1,3.4-0.1,5
		c0,1.7,0.1,3.3,0.3,5L61.4,38.7z M61.9,17.6c0.4,0.7,0.5,1.4,0.5,2.2c-0.1,0.8-0.4,1.4-1.1,2c-0.5,0.5-1,0.7-1.7,0.8
		s-1.2,0-1.8-0.2c-0.7-0.2-1.2-0.7-1.7-1.3s-0.6-1.3-0.7-2c-0.1-0.7,0.1-1.4,0.4-2c0.3-0.6,0.9-1.1,1.7-1.3c0.9-0.3,1.8-0.2,2.6,0.2
		C60.9,16.3,61.5,16.9,61.9,17.6z"/>
	<path class="st0" d="M86.9,37.5c0.1,0.5,0.1,0.9,0.1,1.3c0,0.4-0.2,0.8-0.4,1.2c-0.2,0.3-0.6,0.6-0.9,0.7S84.8,41,84.4,41
		c-0.7,0.1-1.3,0-1.8-0.3c-0.5-0.3-1-0.6-1.4-1c-0.4-0.4-0.7-0.9-0.9-1.5c-0.2-0.6-0.4-1.1-0.6-1.7c-0.1-0.5-0.2-0.9-0.2-1.4
		c0-0.5-0.1-0.9-0.2-1.4l-0.2-1.3c0-0.1,0-0.3-0.1-0.6c0-0.2-0.1-0.3-0.1-0.5c-0.2,0.2-0.5,0.3-0.7,0.5c-0.2,0.2-0.4,0.4-0.6,0.6
		c-0.6,0.5-1.1,1.1-1.7,1.7s-1,1.2-1.5,1.8l-1.3,1.5c-0.2,0.2-0.4,0.4-0.6,0.6s-0.3,0.5-0.3,0.7c0,0.1-0.1,0.2,0,0.2
		c0,0.1,0,0.2,0,0.2c0.1,0.6,0,1.1-0.2,1.6c-0.3,0.5-0.7,0.9-1.2,1.2c-0.8,0.5-1.8,0.6-2.8,0.2c-1-0.3-1.8-0.8-2.4-1.6
		c-0.3-0.5-0.5-0.9-0.6-1.4c-0.1-0.5-0.2-1-0.3-1.5c0-0.3-0.1-0.6-0.1-0.9c0-0.3,0-0.5,0-0.8c-0.1-1.9,0-3.8,0.3-5.8
		c0.1-0.8,0.2-1.6,0.4-2.4s0.4-1.6,0.6-2.3c0.4-1,1.1-1.8,1.9-2.4c0.9-0.6,1.9-0.6,3-0.1c0.4,0.2,0.8,0.5,1.1,0.8
		c0.3,0.4,0.5,0.7,0.6,1.2c0,0.2,0.1,0.3,0,0.5c0,0.2,0,0.3,0,0.5c0,0.4-0.1,0.7-0.2,1.1c-0.1,0.4-0.1,0.8,0,1.1
		c0.3-0.2,0.6-0.4,0.8-0.7s0.5-0.5,0.8-0.7c0.3-0.2,0.6-0.5,0.9-0.6c0.3-0.2,0.6-0.4,0.9-0.6c1.4-0.7,2.8-1,4.2-0.7
		c1.8,0.3,3.2,1.1,4.1,2.5s1.6,2.8,1.8,4.5c0.2,0.9,0.3,1.8,0.5,2.6c0.2,0.8,0.3,1.7,0.6,2.6c0,0.1,0,0.1,0,0.2
		C86.9,37.4,86.9,37.4,86.9,37.5z"/>
	<path class="st0" d="M97.6,38.7c0,0.2,0,0.3,0,0.5s-0.1,0.3-0.1,0.5c0,0.1,0,0.3-0.1,0.4c-0.1,0.4-0.3,0.7-0.6,0.9
		c-0.3,0.2-0.6,0.4-0.9,0.6c-0.4,0.2-0.8,0.2-1.2,0.2c-0.4-0.1-0.8-0.2-1.2-0.3c-0.7-0.2-1.3-0.6-1.8-1.2s-0.8-1.2-1-1.9
		c-0.1-0.4-0.1-0.7-0.2-1.1s-0.1-0.7-0.1-1.1c-0.1-1-0.2-2.1-0.2-3.2c0-1.2,0.1-2.3,0.2-3.5s0.3-2.3,0.6-3.4
		c0.1-0.4,0.3-0.7,0.6-0.9s0.6-0.4,0.9-0.5c0.3-0.1,0.7-0.2,1-0.2c0.3,0,0.7,0,1,0.1c0.7,0.2,1.3,0.5,1.8,1c0.2,0.2,0.5,0.5,0.6,0.9
		s0.2,0.7,0.2,1.1c-0.1,1.7-0.1,3.4-0.1,5c0,1.7,0.1,3.3,0.3,5L97.6,38.7z M98.2,17.6c0.4,0.7,0.5,1.4,0.5,2.2
		c-0.1,0.8-0.4,1.4-1.1,2c-0.5,0.5-1.1,0.7-1.7,0.8s-1.2,0-1.8-0.2c-0.7-0.2-1.2-0.7-1.7-1.3s-0.6-1.3-0.7-2c-0.1-0.7,0.1-1.4,0.4-2
		c0.3-0.6,0.9-1.1,1.7-1.3c0.9-0.3,1.8-0.2,2.6,0.2C97.1,16.3,97.7,16.9,98.2,17.6z"/>
	<path class="st0" d="M108.1,43.7c-0.2,0.6-0.5,1-0.8,1.2c-0.6,0.5-1.2,0.6-1.9,0.6c-0.7-0.1-1.3-0.3-1.9-0.7c-0.6-0.5-1-1-1.3-1.6
		c-0.3-0.6-0.5-1.3-0.6-2c-0.7-3.7-0.9-7.5-0.8-11.1c0.1-3.7,0.4-7.4,1.1-11.1c0.1-0.5,0.2-0.9,0.2-1.5c0.1-0.5,0.2-1.1,0.4-1.6
		c0.2-0.5,0.4-1,0.6-1.5c0.2-0.4,0.6-0.8,0.9-1.1c0.6-0.4,1.2-0.6,1.9-0.4c0.7,0.2,1.3,0.5,1.8,1c0.4,0.4,0.6,0.8,0.7,1.3
		s0.2,1.1,0.2,1.6s-0.1,1.1-0.2,1.6s-0.1,1.1-0.2,1.6c-0.1,1.4-0.2,2.8-0.3,4.2c-0.1,1.4-0.2,2.8-0.3,4.2c0,1.2-0.1,2.3,0,3.5
		c0,1.1,0.1,2.3,0.2,3.5c0.1,0.9,0.2,1.8,0.4,2.7c0.2,0.9,0.3,1.8,0.4,2.7c0,0.5,0,0.9,0,1.4C108.4,42.8,108.3,43.2,108.1,43.7z"/>
	<path class="st0" d="M119.5,43.7c-0.2,0.6-0.5,1-0.8,1.2c-0.6,0.5-1.2,0.6-1.9,0.6c-0.7-0.1-1.3-0.3-1.9-0.7c-0.6-0.5-1-1-1.3-1.6
		c-0.3-0.6-0.5-1.3-0.6-2c-0.7-3.7-0.9-7.5-0.8-11.1c0.1-3.7,0.4-7.4,1.1-11.1c0.1-0.5,0.2-0.9,0.2-1.5c0.1-0.5,0.2-1.1,0.4-1.6
		c0.2-0.5,0.4-1,0.6-1.5c0.2-0.4,0.6-0.8,0.9-1.1c0.6-0.4,1.2-0.6,1.9-0.4c0.7,0.2,1.3,0.5,1.8,1c0.4,0.4,0.6,0.8,0.7,1.3
		s0.2,1.1,0.2,1.6s-0.1,1.1-0.2,1.6s-0.1,1.1-0.2,1.6c-0.1,1.4-0.2,2.8-0.3,4.2c-0.1,1.4-0.2,2.8-0.3,4.2c0,1.2-0.1,2.3,0,3.5
		c0,1.1,0.1,2.3,0.2,3.5c0.1,0.9,0.2,1.8,0.4,2.7c0.2,0.9,0.3,1.8,0.4,2.7c0,0.5,0,0.9,0,1.4C119.8,42.8,119.7,43.2,119.5,43.7z"/>
	<path class="st0" d="M145.5,36.7c0.2,0.6,0.1,1.1-0.2,1.6c-0.3,0.5-0.8,0.8-1.3,0.9c-0.6,0.2-1.3,0.1-1.9-0.1s-1.1-0.6-1.6-1
		c-0.4-0.3-0.7-0.8-1.1-1.3c-0.1-0.2-0.3-0.4-0.4-0.7c-0.2-0.2-0.2-0.5-0.2-0.7c0,0.1-0.2,0.2-0.4,0.4c-0.2,0.2-0.4,0.3-0.4,0.4
		l-0.9,0.8c-0.3,0.3-0.6,0.6-0.9,0.9c-0.3,0.3-0.6,0.5-0.9,0.8c-0.6,0.5-1.3,0.9-1.9,1.3c-0.6,0.4-1.4,0.7-2.1,0.9
		c-1.2,0.3-2.4,0.3-3.6,0.1c-1.2-0.3-2.2-0.9-3-1.9c-0.5-0.7-0.8-1.4-0.9-2.1c-0.1-0.8-0.1-1.6,0-2.4c0.2-1.3,0.8-2.6,1.5-4
		c1.1-1.8,2.4-3.4,4.1-4.7c1.7-1.3,3.5-2.2,5.6-2.8c0.7-0.2,1.4-0.3,2.1-0.4s1.4,0,2.1,0.2c0.1-0.1,0.2-0.2,0.4-0.3
		c0.1-0.1,0.2-0.2,0.4-0.3c0.2-0.1,0.5-0.2,0.9-0.2c0.7-0.1,1.3,0,1.8,0.2c0.6,0.2,1.1,0.6,1.5,1.2c0.4,0.5,0.6,1.2,0.4,1.9
		c-0.2,0.6-0.3,1.3-0.4,1.9c-0.1,0.6-0.2,1.3-0.2,2c0,0.7,0,1.4,0.1,2.1s0.2,1.4,0.3,2.1c0.1,0.4,0.2,0.8,0.3,1.2
		c0.1,0.4,0.3,0.7,0.5,1c0.1,0.2,0.2,0.4,0.2,0.5C145.3,36.3,145.4,36.5,145.5,36.7z M134.4,30.6c0.9-1.2,1.8-2.5,2.6-3.9l-0.5,0.2
		c-0.6,0.3-1.1,0.6-1.6,1s-1,0.7-1.4,1.2c-0.6,0.5-1.1,1-1.5,1.6s-0.8,1.2-1.2,1.8c-0.2,0.5-0.5,1-0.7,1.5c-0.2,0.5-0.4,1-0.5,1.6
		c0.3-0.2,0.6-0.4,0.9-0.6c0.3-0.2,0.6-0.5,0.9-0.7c0.6-0.5,1.1-1.1,1.6-1.7C133.4,31.8,133.9,31.2,134.4,30.6z"/>
</g>
</svg>
