<?xml version="1.0" encoding="utf-8"?>
<!-- Generator: Adobe Illustrator 26.0.2, SVG Export Plug-In . SVG Version: 6.00 Build 0)  -->
<svg version="1.1" id="Layer_1" xmlns="http://www.w3.org/2000/svg" xmlns:xlink="http://www.w3.org/1999/xlink" x="0px" y="0px"
	 viewBox="0 0 841.9 595.3" style="enable-background:new 0 0 841.9 595.3;" xml:space="preserve">
<style type="text/css">
	.st0{fill-rule:evenodd;clip-rule:evenodd;fill:#7A5044;}
	.st1{fill-rule:evenodd;clip-rule:evenodd;fill:#8B614B;}
	.st2{fill-rule:evenodd;clip-rule:evenodd;fill:#BD8B58;}
	.st3{fill-rule:evenodd;clip-rule:evenodd;fill:#3E2A1F;}
	.st4{fill-rule:evenodd;clip-rule:evenodd;fill:#718E20;}
	.st5{fill-rule:evenodd;clip-rule:evenodd;fill:#4A6C10;}
	.st6{fill-rule:evenodd;clip-rule:evenodd;fill:#E8D024;}
	.st7{fill-rule:evenodd;clip-rule:evenodd;fill:#F1E04A;}
	.st8{fill-rule:evenodd;clip-rule:evenodd;fill:#F9EE9A;}
	.st9{fill-rule:evenodd;clip-rule:evenodd;fill:#F6EB66;}
	.st10{fill-rule:evenodd;clip-rule:evenodd;fill:#E7BA1F;}
	.st11{fill-rule:evenodd;clip-rule:evenodd;fill:#FBE476;}
	.st12{fill-rule:evenodd;clip-rule:evenodd;fill:#BEB239;}
	.st13{fill-rule:evenodd;clip-rule:evenodd;fill:#FFFCC4;}
	.st14{fill-rule:evenodd;clip-rule:evenodd;fill:#F4EBA5;}
	.st15{fill-rule:evenodd;clip-rule:evenodd;fill:#DBC84F;}
	.st16{fill-rule:evenodd;clip-rule:evenodd;fill:#F9DE5A;}
	.st17{fill-rule:evenodd;clip-rule:evenodd;fill:#F8D04A;}
</style>
<g>
	<path class="st0" d="M422.5,497.4c55.9-6.7,210-0.8,245.5-4.6c24.8-2.7,43.6-14.7,52.7-21.7c13.7-10.6-0.4-18.2-8.9-14.3
		c-13.1,6.1-1.8,11.7-17,18.6c-15.2,6.9-18.4,8.1-44.8-2.6c-26.4-10.7-99-1.4-141.1-2c-42.2-0.6-86.6,5.7-119.4,3.5
		c-32.8-2.2-208.6,11.2-237.3,13.4c-28.7,2.2-23,2.9-34.9,0.6c-11.9-2.3-8,12.1,10.3,8C154.9,490.1,353.4,505.7,422.5,497.4
		L422.5,497.4z"/>
	<path class="st1" d="M184.6,485.3c-15.1,1.1-26.6,2-32.3,2.4c-28.7,2.2-23,2.9-34.9,0.6c-8.6-1.7-9,5.3-1.8,7.8
		c0.9-0.7,1.7-1.3,2.3-2c2.7-2.9,5.2-0.4,13.1-1.9c7.9-1.5,5.8-1.6,11.5-0.7c5.7,0.9,3.9,0.1,8.7-1c4.8-1.1,6.3-3.6,12.2-0.4
		C167.9,492.5,175.1,490.3,184.6,485.3L184.6,485.3z"/>
	<g>
		<path class="st2" d="M650.3,472.9l-0.2-0.1c-16.3-6.6-50.3-5.6-83.8-4c7.2,1.2,12.1,5.2,17.1,5.6c7.3,0.5,9.6-3.4,18.9-2.8
			C610.3,472.2,630.4,473.8,650.3,472.9L650.3,472.9z M555.1,469.4c-15,0.7-29.6,1.5-41.9,1.5c-4.5,2.1-7.1,2.7-12,0.5
			c-0.5-0.2-0.9-0.4-1.4-0.6c-36.5,0.3-74,4.8-103.5,3.8c-11.8,4.5-9,0.9-14,1.5c-4.7,0.5-6.4,0.5-10.8-2
			c-8.9,0.2-19.9,0.6-32.2,1.2c-2.9,1.1-5.5,2.3-7.6,3.2c-4.9,2.2-7-0.3-9.1-2.4c-3.6,0.2-7.3,0.4-11,0.6
			c-8.9,4.2-22.3,5.3-34.2,6.1c-13.2,0.9-20.9,2.4-28.7,2.2c-7.8-0.2-12-1.5-18.8,0.3c-6.8,1.8-17.9,3.3-22.8,2.7
			c-4.9-0.6-8-2.5-13,0.1c-3.2,1.6-18.2,4.7-28.7,6.7l2.1,0c7.4-1,17.7-2.3,29.7-3.5c24.8-2.3,41.2-3.1,65.7-4.6
			c24.5-1.5,18.8-2.4,30.3-3.8c11.5-1.4,17.9-6.1,24.5-3.6c6.6,2.5,13.7,3.4,22-0.2c8.3-3.6,15.4-3.4,27.4,0.1
			c12,3.5,23.7-2.5,26-0.2c2.4,2.3,18.4-2.9,30.8-3.1c12.4-0.2,34.5-2.7,39.5-0.6c5,2.1,13.6-0.8,20.7-2.9
			c7.1-2.1,12.9,2.3,18.2,4.2c5.3,1.9,19.1-5.2,24.1-3.9c5,1.3,13.3,0.9,28-3.2C554.6,469.5,554.9,469.4,555.1,469.4L555.1,469.4z"
			/>
	</g>
	<g>
		<path class="st1" d="M422.5,497.4c4.5-0.5,9.5-1,15.1-1.4c-0.7-0.2-1.4-0.4-2-0.6c-17.9-6.1-25.9-5.4-35-4.2
			c-9.1,1.2-22.6,8.9-33.5,4.1c-10.9-4.8-18.9,0-39.4-0.5c-8-0.2-26.6,1.5-46.3,3.6C336.3,500.1,392,501.1,422.5,497.4L422.5,497.4z
			 M472.5,494.5c49.4-1.2,114-0.1,156.9-0.4c-13.4-6.3-25.8-7.3-33.4-6.4c-10.5,1.3-29.4-0.1-35.3-2c-5.9-1.9-26.3,3.2-36.3,2.8
			c-10-0.4-15.1-4.8-33.9,0.8C484.5,491.1,478.5,493,472.5,494.5L472.5,494.5z"/>
	</g>
	<path class="st3" d="M696.7,485.1c6.2-2.7,11.6-5.6,16-8.5c-13.2,3.9-31.5,9-41.8,7.1c-23.3,2.3-51.8-9.5-67.3-8.4
		c-15.5,1.1-28.5,4.3-35.8-0.3c-7.3-4.6-9.4,2.1-19.4,1.7c-10-0.4-45.8,3.5-64.4,2.6c-18.6-0.8-67.5-2-81,2.9
		c-13.5,4.9-31.4,1.6-42.5,0.4c-11.1-1.2-44.1,2.6-68.2,4.6c-13.1,1.1-40.9,5.5-63.7,9.3l11.8,0.4c43.3-5.1,102-12,108.2-11.7
		c10,0.4,38.9,5,45,3.2c6.1-1.8,24.9-5.9,32.7-5.8c7.8,0.2,40.6,2.7,51.9,0.3c11.3-2.4,65.5,1,73.8-1.9c8.3-2.9,12.2-3.5,19.2,0.5
		c7,4.1,34.1-1.6,34.1-1.6s33.2,8.7,48.4,8.4C662.7,488.4,680.4,487.8,696.7,485.1L696.7,485.1z"/>
	<path class="st1" d="M483.7,485.3c-15.2,2.8-27.4,8.5-32.3,5.5c-4.9-3.1-9.5-6.7-13.5-4.8c-4,1.9-5.8,0.5-11.2-0.9
		c-5.4-1.5-11.2,1.1-11.2,1.1s9.2-0.1,12.9,4.2c3.8,4.2,9.9,1,11.5-0.4c1.6-1.4,8.6,3.9,11.7,4.2
		C454.7,494.4,477.7,490.9,483.7,485.3L483.7,485.3z"/>
	<path class="st1" d="M717.2,460.6c5.4,3.6-0.4,10.5-5.1,10.4c-4.7-0.1-7,0.5-9.4,3.8c-2.1,2.8-6.7,5.2-11.7,6.4
		c-4.5,1-9.3,1.9-12.4,1.5c0,0,16.4-4.2,18.9-6.8c2.6-2.6,7.4-5.7,7.9-7.3c0.6-1.6,2.9,0.1,6.4-2c3.5-2.2,1.9-4.8-0.2-5.4
		C709.7,460.5,713,457.8,717.2,460.6L717.2,460.6z"/>
	<path class="st1" d="M656.3,490.1c-13.1,3-19.1,0.5-21.3-1.3c-2.2-1.8-7.2-3.5-11.2-2.5c-4,1-13.9-1.3-15.7-2.8
		c-1.8-1.5,12,8.4,16.8,6C629.8,487.1,634.4,499.3,656.3,490.1L656.3,490.1z"/>
</g>
<g>
	<path class="st0" d="M723.2,418c-0.1-9.2-19.8-2.5-34.5,3.5c-14.7,6-104.1,11.5-168.7,25.9c-64.6,14.4-145.8,48.2-173.7,47.5
		c-27.9-0.7-205.2,30.5-233,39.6c-27.7,9.1-35.2,35-13.7,34.5c21.5-0.4,30.1-3.2,28.1,2.9c-2,6.2,26.4-1.7,21.3-10.3
		c-5.1-8.6-12.7-0.1-32.8-7.1c-20.2-6.9,25.9-10.9,58.5-6c22.6,3.4,99.1-5.4,175.7-21.1c84.3-17.2,80.2-19.8,154.2-45.5
		c81.1-28.1,165.8-40.6,181.5-48.3C705.6,424.3,723.3,429.7,723.2,418L723.2,418z"/>
	<path class="st3" d="M723.2,418c-0.1-13.4-35.6,6.8-45.5,8.8c-16.5,3.3-19.2,6-27.3,9.9c-8.1,3.9-37.7,3.5-46.9,7.3
		c-9.1,3.8-43.9,18.6-63.6,21.4c-19.7,2.7-19.1,3.7-34.2,7.8c-15.1,4-21.9,1.4-29.9,6.3c-8,4.9-17,12.6-32.8,14.7
		c-15.8,2.1-30.2,3.8-47.4,11.5c-17.2,7.7-42.3,6.7-48.9,6c-6.6-0.8-14.3,8.5-27.4,8.9c-13.1,0.3-19.1-3.2-30.6-0.3
		c-11.6,2.9-27.1,8.4-42.5,9.7c-15.4,1.3-10,4.8-42.7,8.8c-32.7,4-18.2,1.7-34,1c-15.8-0.7-63.5,2.2-57.4,10.6
		c5.7-3.9,38-5.2,62.6-1.5c22.6,3.4,99.1-5.4,175.7-21.1c84.3-17.2,80.2-19.8,154.2-45.5c81.1-28.1,165.8-40.6,181.5-48.3
		C705.6,424.3,723.3,429.7,723.2,418L723.2,418z"/>
	<path class="st1" d="M152.7,546.6c3.3,0.1,6.6,0.3,9.8,0.6c57.9-6.7,130.2-27.7,130.2-27.7s-15.8,2.5-40.8,8.2
		C228.8,532.9,202,537.5,152.7,546.6L152.7,546.6z"/>
	<path class="st3" d="M572.6,438c-2.5,0.4-5,0.7-7.4,1.1c-43.2,11.8-120,33.2-155.9,46.5c-45.8,17.1-62.8,8.3-126.2,20.4
		c-63.4,12.1-100.6,16.9-123.4,21.9c-22.8,5-45.6,13.7-48.7,20.9c27.3-17.4,85.8-27.7,118-30.9c32.2-3.2,119-17.3,143.4-19
		c24.4-1.7,89.4-27.2,123.1-37.9C514.3,455.3,549.2,444.9,572.6,438L572.6,438z"/>
	<path class="st1" d="M615.6,432.3c-2.5,0.3-5,0.6-7.5,0.9c-20.8,7.2-49.2,16.6-67.6,21c-32.1,7.7-100.9,26.8-127.1,38.4
		c-26.3,11.6-59,16.8-128.5,23.8c-69.5,7-150.3,25.6-150.3,25.6c22.2,0.4,94.2-14.9,113.2-18.4c19-3.5,100.1-12.1,130.3-16.5
		c30.2-4.4,79-31.6,142.6-45C560.4,453.6,595.2,440.7,615.6,432.3L615.6,432.3z"/>
	<path class="st1" d="M666.9,425.9c-2.7,0.4-5.6,0.8-8.7,1.2c-12.5,5.6-26.1,11-31,10.5c-10.1-1-55.3,12.1-64.2,16.6
		c-8.9,4.5-25.8,6-32.1,7.7c-6.3,1.7-23,7.7-30.3,9.3c-7.3,1.5-39.9,7.5-45.2,13.1c-5.3,5.6-60.8,18.1-64,22.8
		c-3.2,4.8-28.6,6.3-40.9,7.3c-12.3,1-18.3,1.2-24.4,4.6c-6.2,3.4-14,0.3-25.1,2c-11.1,1.7-52.3,17.2-86.8,23.6
		c27.3-1.2,57.5-11.3,80.6-18.2c23.1-6.9,23.3,2.2,32.8-4.3c9.5-6.5,8.8-6.2,34.8-6c26,0.2,30.3-8.4,38.4-11.5
		c8.1-3,45.6-11,64.1-22c18.4-11,27.1-6.6,36.3-8.6c9.1-2,21.3-10.5,32.8-10.9c11.4-0.4,27.8-4,50.6-14.2
		c22.8-10.2,25.4-7.3,47.4-9.4C643.4,438.5,656.7,431.9,666.9,425.9L666.9,425.9z"/>
	<path class="st1" d="M269.7,541.6c5.9,0.2,19.3-6.8,27.5-5.3c8.2,1.5,6.2-6.3,12.7-4.7c6.6,1.6,21.9-0.1,28-4.3
		c6.1-4.2,6.5-5,34.1-6.5c27.5-1.6,54.5-22.1,54.5-22.1s-12.3,3.9-23.3,10.1c-10.9,6.2-32.5,10.5-40.9,10.2
		c-8.4-0.3-20.7-0.1-24.8,3.3c-4,3.4-6.6,7-20.6,5.3c-14-1.7-12.5,5.1-16.6,4c-4.1-1.2-22.3,8.2-30.5,6.8
		C259.4,536.4,248.6,541,269.7,541.6L269.7,541.6z"/>
	<path class="st3" d="M186.5,518.8c-34.3,6.4-63.2,12.5-73.1,15.7c-27.7,9.1-35.2,35-13.7,34.5c21.5-0.4,30.1-3.2,28.1,2.9
		c-2,6.2,26.4-1.7,21.3-10.3c-0.3-0.6-0.7-1.1-1.1-1.5c0.4,4.7-4.8,12.8-15,9.1c-3.1-1.1-5.3-3.8-9-3.9c-7.8-0.3-12.1,0.4-18.7-2.1
		c-6.6-2.5-13.4-4.9-9.2-12.1c4.3-7.2,8.3-10.9,19.9-15.1C125.3,532.7,169,522.7,186.5,518.8L186.5,518.8z"/>
	<path class="st1" d="M133.5,562.8c-6.5-1.7-11.5-2.5-15.6-3.3c-6.4-1.2-10.2-2.4-12.9-6.7c-2.7-4.3,2.3-10.4,9.5-14.5
		c10.5-5.9,21.3-6.5,34.4-10.8c0,0-27.8,2-40.7,13.3c-12.8,11.3-4.5,18,5.4,19.7C123.5,562.1,136.9,567.3,133.5,562.8L133.5,562.8z"
		/>
	<path class="st1" d="M138.8,569.7c-7-1-8.2-2.1-6.9-3.5c1.3-1.4-14.3-1.6-21.3-2.9c-7-1.3-15-4.9-13.2-11
		c1.8-6.1,12.3-14.1,12.3-14.1s-14,6.4-15.5,15.5c-1.5,9,13.5,12.2,19.4,12c5.9-0.2,15-0.5,15.2,1.9
		C129.1,570.1,132,573.7,138.8,569.7L138.8,569.7z"/>
	<path class="st2" d="M578.4,437.8c-16.2,4.5-20.8,4.4-24.3,7.6c-3.5,3.2-5.9,0.5-12.2,3.9c-6.3,3.5-18.9,2.7-22.7,5.4
		c-3.8,2.6-9.4,3.2-19,6.6c-9.6,3.4-17,5.9-17,5.9s24.7-7.8,30.2-8.1c5.5-0.3,1.3-2.3,10.5-3.2c9.2-0.9,15.9-2.2,19.3-4.7
		c3.4-2.5,12,1.2,16.6-4.7c4.6-5.8,33.5-10.3,33.5-10.3L578.4,437.8L578.4,437.8z"/>
	<path class="st2" d="M400,495.1c-13.1,2.9-30.3,7.9-40,7.1c-9.7-0.9-15.3,4.8-21.7,4.4c-6.4-0.5-14.7-0.1-20.4,2.1
		c-5.7,2.2-9.3,2.7-15.4,1.8c-6.1-0.9-12.7,0.7-17.2,2.2c-4.4,1.5-8.7,1.6-14.6,2c-5.9,0.3-23.3,5.7-30.9,5.7
		c-7.5,0-20.6-0.7-25.4,1.9c-4.8,2.6-12.1,3.8-15.7,2.2c-3.6-1.6-20.3,4.6-27.5,6.8c-7.2,2.2-14,3-14,3s18.8,0.2,25.1-4
		c6.3-4.2,15.2-4.6,20.9-3.6c5.7,1,10.7-2,14-3.5c3.2-1.5,36-2,42-4.6c6-2.6,21-4.3,27.9-3.7c6.9,0.6,3.4-1.7,12.2-1.5
		c8.9,0.2,17.1-1.5,21.3-3.7c4.3-2.2,15.3-0.5,20.9-1.3c5.6-0.8,8.6-4.7,14.8-4.5C362.6,504,383.8,504.2,400,495.1L400,495.1z"/>
	<path class="st2" d="M105.3,550.5c0.7-4.5,7.9-10.7,10-10.3c2.1,0.4,2.7-0.5,4.8-2.8c2.1-2.4,42.3-12.1,42.3-12.1s-23,6.8-29.4,8.9
		c-6.5,2.2-11.1,4.1-13.9,6.4c-2.9,2.3-3.8,3.2-6,3.1c-2.2-0.2-8.1,5.4-3.7,8.5c4.5,3.1,10.9,4.8,10.9,4.8S111.5,557.5,105.3,550.5
		L105.3,550.5z"/>
	<g>
		<path class="st1" d="M345.4,528.6c1.7-0.3,3.4-0.7,5.1-1c4.5-0.9,8.8-1.8,12.8-2.6c-8.8,0.9-15.6,1.7-17.1,3.1
			C345.9,528.2,345.6,528.4,345.4,528.6L345.4,528.6z M414.6,512.9c3.8-1,7.4-2.1,10.9-3.1c6.1-3.5,10.7-6.7,13.1-8.4
			c8.1-6.1,6.7-2.8,18.1-4.7c11.4-1.9,15.6-16,29.7-15.2c14.2,0.8,55.4-14.9,64.1-16.2c8.7-1.3,53.4-13.1,58.4-16.9
			c5-3.8,14.8-4.5,28.7-4.2c13.9,0.4,25.3-9.9,43.7-13.4c18.4-3.5,31.3-13.9,31.3-13.9s-7.8,2.9-14.8,6.3c-7.1,3.4-23.2,4.5-37.9,12
			c-14.7,7.6-45,6.2-57.2,12.6c-12.1,6.4-59.5,15.8-78.3,22.7c-18.8,6.8-42.2,9.6-48.7,11.7c-6.5,2.1-16.2,9.8-27.2,12.3
			C439.1,496.7,427.5,505.3,414.6,512.9L414.6,512.9z"/>
	</g>
</g>
<g>
	<path class="st4" d="M483,397.5c0,0,97.3-88.8,133.1-165c35.8-76.2,32.2-188.9,32.2-188.9s-94.8,145.7-118.2,192.4
		C506.8,282.8,431.6,394.4,483,397.5L483,397.5z"/>
	<path class="st5" d="M622.3,218c29.1-75.2,26-174.3,26-174.3s-6.9,10.7-17.4,27C638.8,121.5,627.3,191.7,622.3,218L622.3,218z"/>
	<path class="st5" d="M519.5,393.6c75.4-3.9,94-109.6,120.5-143.8c26.4-34.3,68.4-37.4,85.6-4.7c17.1,32.6-9.4,40.4-9.4,40.4
		c51.2-3.3,39.9-64.2,4.5-83c-42.4-22.6-120.4-0.5-154.6,40.9C523.3,295.4,473.4,372.5,519.5,393.6L519.5,393.6z"/>
	<path class="st4" d="M531.3,392.1c65.6-13.6,83.7-110,108.8-142.3c26.4-34.3,68.4-37.4,85.6-4.7c17.1,32.6-9.4,40.4-9.4,40.4
		c30.3-2,38.7-24.1,33.3-45.6c-18.4-20.2-37.7-27-61.1-24.9c-31.5,2.8-57.5,18.2-82,72.8C585.7,334,564.5,364.7,531.3,392.1
		L531.3,392.1z"/>
</g>
<g>
	<path class="st6" d="M449.1,470c-49-95.9-91.1-277.9-52.8-376.8c20.3-52.4,84.8-70.5,98.5-68.4c13.8,2.1-13.3,16-11.3,26.7
		c2.2,10.7,3.9,22.9,8.7,67.6c4.8,44.9-10.2,167-26.5,223.7c-16.2,56.8-14.4,81.5,3,115.3C486.2,491.7,469.4,515.5,449.1,470
		L449.1,470z"/>
	<path class="st7" d="M449.1,470c-49-95.9-91.1-277.9-52.8-376.8c20.3-52.4,84.8-70.5,98.5-68.4c13.8,2.1-13.3,16-11.3,26.7
		c2.2,10.7,3.9,22.9,8.7,67.6c1.4,12.7,1.1,31.8-0.3,53.8c-1.7-7.9-3.3-16.2-4.6-24.9c-13-89.2-31.5-82.7-46.4-80.9
		c-14.9,1.9-39.1,28.8-41.8,120.9c-2.8,89.4,26.1,186.6,69.5,307.1C463.6,494.2,456.6,486.8,449.1,470L449.1,470z"/>
	<path class="st8" d="M390.1,112.3c1.8-6.7,3.8-13.1,6.1-19.1c20.3-52.4,84.8-70.5,98.5-68.4c3.3,0.5,4.2,1.6,3.8,3.3
		c-0.3,0.3-0.7,0.6-1,0.9c-27.9,22.3-27,13.1-53.9,19.6C426.4,52.6,405.7,77.7,390.1,112.3L390.1,112.3z"/>
	<path class="st9" d="M487.5,519.5c-31.3-46.6-54.2-132.2-41.8-226.3C458,199,492.2,138.1,536,119c43.8-19,34.3,10.5,26.7,36.1
		c-14.4,48.5-92.4,109-96.1,235C465.6,422.5,528.4,544.3,487.5,519.5L487.5,519.5z"/>
	<path class="st8" d="M458.7,229.2c16.9-57.9,44.4-95.9,77.2-110.1c43.8-19,34.3,10.5,26.7,36.1c-1.2,4.2-2.9,8.5-5,12.8
		c2.5-15.5,4.9-35.3,2.2-40.4c-4.8-8.6-23.8,4.8-49.4,26.6C495.1,167.2,475.2,195.6,458.7,229.2L458.7,229.2z"/>
	<path class="st6" d="M499.9,503.3c1,5.1,1.6,9.4,1.5,12.7c-18.7-32.6-42.8-82.2-45.2-120.2c-3.8-59,0-86.6,7.5-126.5
		c7.6-40,6.7,4.8,6.7,17.1c0,0.8,42.9-110.7,81.8-145.6c0.9-0.8-37.4,61-53.9,100.5c-16.9,40.7-33.3,86.9-35.2,131.2
		C460.9,421,482.1,459.8,499.9,503.3L499.9,503.3z"/>
	<path class="st10" d="M341.1,456.2c48.7-1.8,81.1-1.2,91.5,4.9c10.3,6.1,36.5,66.5,56.1,67.7c19.5,1.2,19.5-11,15.2-30.6
		c-4.2-19.5-28.7-64-32.4-67.1C467.9,428.2,464.3,455.6,341.1,456.2L341.1,456.2z"/>
	<path class="st11" d="M362.4,455.6c127.5-2.9,104.7,35.4,131.4,54.6c2.5-17.2-34.8-56-26.1-65.5c7.6-8.5,23.4,28.2,29.8,48.1
		c4.6,13.9,5.5,25.6,2.4,34.6c8-3.9,7.2-14.4,4-29c-4.2-19.5-28.7-64-32.4-67.1c-3.4-2.9-6.8,21.1-108.9,24.7L362.4,455.6z"/>
	<path class="st9" d="M187.4,102.1c-35,8.9,0,69.9,57.7,148.5c47.7,65,113.3,134.2,146.9,139c56,7.9-5-136.1-83.5-224.3
		C267.9,119.7,222.4,93.2,187.4,102.1L187.4,102.1z"/>
	<path class="st8" d="M187.4,102.1c-35,8.9,0,69.9,57.7,148.5c15.5,21.2,33,42.8,50.6,62.4C249.1,243,186.2,154.5,189.3,119.9
		c3.4-37.5,112.7,37.7,182.4,134.2c-17.8-30.9-39.7-62.4-63.2-88.8C267.9,119.7,222.4,93.2,187.4,102.1L187.4,102.1z"/>
	<path class="st7" d="M217.7,164.2C243,189.4,380.5,355.7,385.8,359c29.8,18.4-37.6-93.1-41.4-98.6c-38.7-55.2-90-117.8-108.8-131.9
		C196.5,99.3,173.9,120.3,217.7,164.2L217.7,164.2z"/>
	<path class="st6" d="M203.2,124.5c20.5,11.3,56.9,42.9,88.6,84.6c31.7,41.6,76.6,113,89.9,136.8c13.2,23.8-58.2-83.9-101.1-136.8
		C237.6,156.2,196.6,121.8,203.2,124.5L203.2,124.5z"/>
	<path class="st9" d="M219.7,363.5c-51.2,11.1-89.9,37.3-119.8,80.4c-9.5,13.9,12.8,14.9,35.2,10.7c22.3-4.2,34.1-23.5,69.3-23.5
		s51.2,26.7,107.6,29.9c56.5,3.2,120.5-16,146.1,2.1c25.6,18.2,30.9,48,37.3,48C496.7,511,459.9,311.4,219.7,363.5L219.7,363.5z"/>
	<path class="st6" d="M186.2,426.4c4.5-0.8-2.1,4.7,18.3,4.7c7.3,0,19.2-2.6,29.8,2c19.1,8.1,41.6,25.8,77.8,27.9
		c56.5,3.2,120.5-16,146.1,2.1c25.6,18.2,30.9,48,37.3,48c0.4,0-4.1-25.6-21-56.2c-36.4-27.4-70.7-38.4-70.7-38.4l-62.4-13.3
		C288.4,397.6,220.4,402.5,186.2,426.4L186.2,426.4z"/>
	<path class="st12" d="M257.7,444.9c14.5,7.4,31.7,14.8,54.5,16.1c56.5,3.2,120.5-16,146.1,2.1c25.6,18.2,30.9,48,37.3,48
		c0.4,0-4.1-25.6-21-56.2c-36.4-27.4-70.7-38.4-70.7-38.4l-62.4-13.3c-10-1-20.5-1.7-31.3-2c0.2,1.2,2,2.3,6.1,3.5
		c38.6,10.7,59.2,38.6,20.6,39.5C312.7,444.6,283.5,443.8,257.7,444.9L257.7,444.9z"/>
	<path class="st7" d="M474.5,454.8c-29.9-53.8-98.5-122.5-247.5-92.9c22,1.5,50,3.5,76,5.8c53.1,4.8,99,47.5,76.5,41.8
		c-11-2.8-24.1-4.9-38.1-6.4l62.4,13.3C403.8,416.5,438.1,427.5,474.5,454.8L474.5,454.8z"/>
	<path class="st7" d="M105.2,436.7c-1.7,2.3-3.5,4.8-5.2,7.2c-9.5,13.9,12.8,14.9,35.2,10.7c19.5-3.7,34.1-18.5,51.9-26.8
		c35-16.3,74.3-27.8,132.7-24.6c42.6,2.3-37.5-4.2-42.3-7.3c-2,0-4-0.1-5.8-0.1c-30.6,0-74.9,16.9-116.7,41
		C128.5,452.2,112.7,450.8,105.2,436.7L105.2,436.7z"/>
	<path class="st8" d="M219.7,363.5c-43.1,9.4-77.3,29.4-104.9,61.3c34.9-29.4,83.6-52.5,149.4-61.2c59.4-7.8,106.7,5.6,143,20.2
		C365.8,358.5,305.8,344.8,219.7,363.5L219.7,363.5z"/>
	<path class="st13" d="M443.1,428.6c-25.7-22.3-132.7-36.8-173.7-35.1c-41.1,1.7-97.6,28.2-113,41c-15.3,12.8,23.1-10.2,47.1-19.7
		c24-9.4,47.9-13.7,82.1-12.8c34.3,0.9,85.4,18.4,117.8,33.9C436,451.4,455.9,442.3,443.1,428.6L443.1,428.6z"/>
	<path class="st14" d="M136.4,454.3c21.6-4.8,33.5-23.2,68.1-23.2c35.2,0,51.2,26.7,107.6,29.9c24.7,1.4,50.7-1.5,74.5-3.6
		c36.3-3.4-27.7-4.8-57.4-3.9c-29.9,0.9-61.6-8.6-77.8-16.3c-16.3-7.7-50.5-23.1-78.7-4.3C164.7,438.2,151.1,446.4,136.4,454.3
		L136.4,454.3z"/>
	<path class="st15" d="M442.9,416c14.9-46.8-14.6-85.2-68.4-120.6s-57-63-57-63s-34.1,45.5-58.1,54.6c-17.8,6.8-26.2,13.3-13.2,21.4
		c4.5,2.9,13.8-0.4,23.2,5.2C305.9,335.3,354.8,450.3,442.9,416L442.9,416z"/>
	<path class="st12" d="M442.9,416c14.9-46.8-14.6-85.2-68.4-120.6c-2.9-1.9-5.5-3.7-8.1-5.5c0.1,0.9,0.5,1.6,1.4,2.4
		c15.4,13.1,47.5,67.6,30.9,52.2c-16.6-15.4-55.9-39.1-35.7-19c20.3,20.1,45,52.3,39.1,59.4c-2.9,3.6-47.5-45.1-65.8-48.7
		c-9.4-1.8,62.2,79.9-6.4,42.5C358.9,409.3,395.2,434.6,442.9,416L442.9,416z"/>
	<path class="st12" d="M451.9,419.3c-3.1-64.9-5.3-111.9,4.8-117.5c10.1-5.7,3.1,39.4,1.3,62.7C456.2,387.7,451.9,419.3,451.9,419.3
		L451.9,419.3z"/>
	<path class="st9" d="M390,441.4c11.9-24.8,28.2-23.9,44.5-28.2c16.3-4.2,23.1-30.8,27.4-44.5c4.2-13.7,29.1-20.5,54.7-4.2
		c25.7,16.3,42.8,101,35.2,123.2c-7.7,22.3-72-31.7-113-38.5C397.7,442.3,379.7,457.7,390,441.4L390,441.4z"/>
	<path class="st13" d="M536.2,491.9c-23.3-6.3-66.8-37.7-97.5-42.8c-40.8-6.8-58.8,8.4-48.9-7.4c20.9-1.6,33.7-0.2,50.7,1.8
		C460.8,445.8,513.8,475.7,536.2,491.9L536.2,491.9z"/>
	<path class="st8" d="M461.8,368.9v-0.2c4.2-13.7,29.1-20.5,54.7-4.2c18.6,11.8,32.7,59.6,36.2,93.4c-2.3-9.1-5.6-19.3-10.3-29.9
		c-19.6-44.9-34.2-67.7-65.2-62L461.8,368.9z"/>
	<path class="st13" d="M447.4,417.8c21.9,12.4,64.3,33.9,70.1,38.7c5.8,4.7-2.9-7.1-10-14c-7.1-6.9-40.9-32.7-49.4-34.7
		C449.4,405.7,437.1,412.2,447.4,417.8L447.4,417.8z"/>
	<path class="st6" d="M444.2,407.2c3.2-3.3,5.9-7.5,8.1-12.1c7.4,5.5,18.1,13.2,33.1,23.9c37.5,26.9,47.3,57.9,35.8,41.6
		C511.4,446.4,472.4,416.8,444.2,407.2L444.2,407.2z"/>
	<path class="st8" d="M420.8,333.5c-11.9-13.2-27.7-25.9-46.3-38.2c-32.3-21.3-46.3-39.7-52.4-51.2l-14.3,16.5
		C325.6,271.9,385.6,303.4,420.8,333.5L420.8,333.5z"/>
	<path class="st13" d="M231.6,305.5c0,0-9.7,1.2-9.7,9c0,7.8,11.7,11.7,18.2,5.2c6.4-6.5,16.1-2.6,16.1,7.1
		c0,9.7,14.3,16.2,21.4,5.8c7.1-10.3,2.6-1.9,13.6-5.8c11-3.9,12.3-17.5,12.3-25.2c0-7.8-3.9-5.9,7.1-13c11-7.1,14.3-14.9,2-17.5
		c-12.3-2.6-1.3-6.4,9-6.4c10.4,0,15.6-5.9,10.4-9.1c-5.2-3.2,0-2,1.3-6.5c1.3-4.5-4.5-11.6-4.5-11.6s0-0.7,2.6-5.2
		c2.5-4.6-6.5-14.9-18.8-16.2c-12.3-1.3-25.9,1.9-18.1,9.1c7.7,7.1,11.6,14.9,11.6,14.9s-10.4,12.9-9.1,5.1
		c1.3-7.7-5.1-20.7-17.4-23.3c-12.3-2.6-19.5-5.2-18.2,0c1.3,5.2,0.7,13.6-3.2,7.8c-3.9-5.8-14.9,3.9-27.2,9.7
		c-12.3,5.8-31.1,24-28.5,36.3c1.6,7.4,4.1,6,8.6,4.4c13.8-4.8-1,6.8-3.5,7.7C199,291.3,211.3,306.5,231.6,305.5L231.6,305.5z"/>
	<path class="st16" d="M231.6,305.5c0,0-9.7,1.2-9.7,9c0,7.8,11.7,11.7,18.2,5.2c6.4-6.5,16.1-2.6,16.1,7.1
		c0,9.7,14.3,16.2,21.4,5.8c7.1-10.3,2.6-1.9,13.6-5.8c0.3-0.1,0.6-0.2,0.9-0.3c5.1-9.2,5.7-19.2,5.2-23.2c-1-8.9-1-15,6.7-19.9
		c7.7-5-39.8-29.9-39.8-29.9c-15.9-3.6-65.5,3.2-61.6,22.3c1.6,7.4,4.1,6,8.6,4.4c13.8-4.8-1,6.8-3.5,7.7
		c-14.2,5.7-6.4,14.8,2.5,17.9C218.4,308.6,227.2,305.6,231.6,305.5L231.6,305.5z"/>
	<path class="st11" d="M217.7,248.5c-3.2,2.9-6.2,6-8.8,9.4c2.2,8.9,7,12.1,10.4,18.8c4.9,10,1.1,21.6,17.1,24.9
		c16,3.4,26.5,6.1,36.5,1.7c10-4.5,23.3-24.3,26-34.9c2.8-10.5,1.1-14.4-4.9-17.7c-6.1-3.3-7.2-17.1-16-19.9
		c-8.8-2.8-13.3,3.9-19.9,3.3c-6.7-0.5-20.4,1.1-20.4,5.5c0,4.4-7.2-0.5-13.3,7.2C222.3,249.3,220,249.4,217.7,248.5L217.7,248.5z"
		/>
	<path class="st17" d="M222.6,265.6c-4.7,8.9,9.9,12,15.2,22.9c5.2,11,7.8,7.3,28.6,4.2c20.9-3.1,11.3-20.4,22.9-27.6
		c3.9-2.3,8.8-6.3,7.9-7.3c-1.3-1.4-9.1-4.1-9.1-5.2c0-6.5-2.4-4.1-4.5-10.4c-2.8-8.3-19.8-7.8-20.3-2.1c-0.5,5.7,1.6,1.6-3.6,0.5
		c-5.2-1-19.7,0-16.1,3.6c3.6,3.6,1,2.1-6.2,2.1C229.9,246.3,212.7,261.9,222.6,265.6L222.6,265.6z"/>
	<path class="st10" d="M236.2,285.8c0.5,0.9,1,1.7,1.6,2.7c5.2,11,7.8,7.3,28.6,4.2c20.9-3.1,11.3-20.4,22.9-27.6
		c3.9-2.3,8.8-6.3,7.9-7.3c-0.7-0.8-3.4-1.9-5.6-2.9c-3.1-0.9-6.6-1.6-9-2.6c-4-1.6-15.2,0.3-22.3,0.8c-7,0.5-8.5,4.8-15.8,6.8
		c-7.3,2-9.7,14.5-7.3,22.4C237.2,282.3,236.7,283.9,236.2,285.8L236.2,285.8z"/>
	<path class="st13" d="M222.6,265.6c-4.7,8.9,9.9,12,15.2,22.9c5.2,11,7.8,7.3,28.6,4.2c17.9-2.7,13.3-15.8,19.1-24
		c-5.5,4.4-14.7,16.1-22.2,19c-8.4,3.2-18.1,2-20.7-2.4c-2.6-4.4-9.9-11.7-14-13.7c-4.2-2,0.5-5.2-2.7-6.8
		c-2.5-1.3-3.3-6.3-0.3-12.2C220.3,257.2,216.8,263.5,222.6,265.6L222.6,265.6z"/>
	<path class="st10" d="M239.2,306.4c14.1,4,28.1,3.4,36.3,0.8c8.1-2.6,15.7-13.3,18.6-18.9c2.9-5.5-1.6,16.3-2.8,20.9
		c-1.3,4.6-10.5,6.1-15.2,4.8c-4.8-1.4-2.6,5.8-7.4,6S242,309,239.2,306.4L239.2,306.4z"/>
</g>
</svg>
