<?xml version="1.0" encoding="utf-8"?>
<!-- Generator: Adobe Illustrator 26.0.3, SVG Export Plug-In . SVG Version: 6.00 Build 0)  -->
<svg version="1.1" id="Layer_1" xmlns="http://www.w3.org/2000/svg" xmlns:xlink="http://www.w3.org/1999/xlink" x="0px" y="0px"
	 viewBox="0 0 150 58" style="enable-background:new 0 0 150 58;" xml:space="preserve">
<style type="text/css">
	.st3{enable-background:new    ;}
	.st4{fill:#3F311C;stroke:#3F311B;stroke-width:2;stroke-miterlimit:10;}
</style>
<g class="st3">
	<path class="st4" d="M13.1,50.5c-0.9-0.5-1.7-1.2-2.3-2c-0.6-0.8-1.1-1.8-1.6-3.1c-0.5-1.2-0.8-2.5-1-3.9c-0.5-2.3-0.8-5.2-0.9-8.9
		c0-0.9-0.1-2.4-0.1-4.5v-3.6c0-1,0.1-2.1,0.1-3.2c0-2.3,0.1-4,0.4-5.4c-0.1-0.6-0.2-1.2-0.2-1.8c0-2.3,0.9-4.2,2.6-5.6
		C11.8,7,14,6.3,16.6,6.3c1,0,1.9,0.3,2.8,0.8c0.8,0.5,1.3,1.2,1.3,2c0,0.4-0.2,0.7-0.5,0.9c-0.3,0.2-0.7,0.3-1.2,0.3
		c-0.4,0-0.8-0.1-1.2-0.2c-0.4-0.1-0.7-0.3-0.8-0.5h-0.7V9.6c-1.4,0-2.6,0.3-3.6,0.9C11.9,11,11.4,11.8,11,13
		c-0.2,0.4-0.3,1-0.3,1.6c-0.1,0.7-0.1,1.2-0.1,1.8c0,0.3-0.1,0.9-0.1,1.8l0.1,2l0.1,2c0,0.6-0.1,1.2-0.2,2c-0.2,1-0.3,1.6-0.3,2
		v1.4c0,1.5,0.1,3.6,0.2,6.2c0,2.2,0.3,4.4,0.7,6.6c0.3,2,1,3.8,2,5.2c0.9,1.5,2.2,2.2,3.7,2.2c0.7,0,1.5-0.3,2.4-1
		c1-0.7,1.8-1,2.2-1c0.5,0,1.1,0.3,1.7,0.9c0,1.4-0.5,2.5-1.6,3.3c-1,0.7-2.2,1.1-3.6,1.3c-0.8,0.1-1.4,0.1-1.8,0.1
		C15,51.2,14,51,13.1,50.5z"/>
	<path class="st4" d="M35.7,40.8l0.1-3.3l0.1-2.6v-0.2v-0.6c0-0.3,0.1-0.7,0.1-1.1c0-0.1-0.1-0.2-0.2-0.3s-0.2-0.2-0.2-0.3v-0.1
		c-0.2,0.1-0.5,0.1-1,0.1c-0.5,0-1.1-0.1-1.8-0.2c-0.2,0-0.8-0.1-1.8-0.3v6.6c0,1,0.1,2.6,0.2,4.7c0.1,2.1,0.2,3.7,0.2,4.7
		c0,0.6-0.2,1.1-0.5,1.5c-0.3,0.4-0.7,0.6-1.2,0.6c-0.7,0-1.2-0.7-1.6-2.1c-0.3-1.5-0.5-3.4-0.5-5.7l0.1-4.7c0-1.3,0.1-2.7,0.1-4.1
		v-1v-0.8c0-0.6,0-1-0.1-1.2v-0.3l0.2-3.3c0-1.5-0.1-3.6-0.2-6.5c-0.1-2.9-0.2-5-0.2-6.5c0-0.5,0.2-0.9,0.5-1.2
		c0.3-0.3,0.7-0.5,1.2-0.5c1.2,0,1.8,1.2,1.8,3.5l-0.1,7.1c-0.1,2.2-0.1,4.5-0.1,7.2c0.6,0.2,1.6,0.3,3.1,0.3h2.1
		C36,30,36,29.8,36,29.6c0-1.8-0.1-4.6-0.3-8.2c-0.3-3.4-0.4-6.1-0.4-8.2c0-0.4,0.2-0.8,0.5-1.1c0.3-0.3,0.7-0.4,1.2-0.4
		c0.3,0,0.7,0.1,1.2,0.3l0.5,0.2c0,5.5,0.2,12.7,0.6,21.8l0.5,14.6c0,0.5-0.2,1-0.6,1.3s-0.9,0.5-1.4,0.5
		C36.4,50.3,35.7,47.1,35.7,40.8z"/>
	<path class="st4" d="M44.5,48.5c0-0.9,0.6-1.4,1.8-1.4h0.6l0.6,0.1c0.3,0,0.5-0.1,0.6-0.3c0.1-0.2,0.2-0.5,0.2-1
		c0-0.7,0-1.7-0.1-3.1c-0.1-0.9-0.2-2.6-0.4-5c-0.3-5.9-0.5-10.3-0.5-13.3c0-1.1,0-2.1,0.1-2.9l0.1-2.9c0-1.3-0.1-2.3-0.2-3.2
		c-0.6,0.2-1.1,0.2-1.3,0.2c-0.9,0-1.4-0.5-1.4-1.4c0-0.5,0.3-0.9,0.9-1.2c0.6-0.3,1.3-0.6,2.2-0.7c1.5-0.3,2.9-0.5,4.1-0.5
		c0.5,0,0.9,0.2,1.2,0.5c0.3,0.3,0.5,0.7,0.5,1.1c0,0.4-0.1,0.8-0.4,1.1c-0.2,0.3-0.6,0.5-1,0.5c-0.2,0-0.4,0-0.6-0.1h-0.5
		c-0.4,0-0.7,0.1-0.8,0.3c-0.2,0.2-0.3,0.5-0.3,1c0,3.7,0.2,9.3,0.7,16.8c0.1,1.4,0.2,3.4,0.5,6.1c0.2,1.8,0.3,3.6,0.3,5.4v2.2
		c0.2,0,0.6-0.1,1.2-0.1c1.6,0,2.4,0.7,2.4,2v0.3l-1.4,1c0,0-0.2,0-0.4,0c-0.2,0-0.6,0-1.2,0c-1.2,0.1-2,0.1-2.4,0.1
		C46.1,50.2,44.5,49.7,44.5,48.5z"/>
	<path class="st4" d="M74.3,50.1c-0.2-0.2-0.4-0.7-0.5-1.3l-0.3-1.1v-0.1v-0.2c0-1.3-1.3-5.6-3.9-13c-2.6-7.4-4.7-12.8-6.2-16.4v29
		l0.2,0.4c0,0.1,0.1,0.2,0.2,0.4s0.2,0.4,0.2,0.6c0,0.5-0.2,0.9-0.5,1.3c-0.3,0.3-0.8,0.5-1.3,0.5c-1.2,0-1.8-1.2-1.8-3.5l-0.1-9.8
		c0-3-0.1-6.3-0.1-9.9c0-1.2,0.1-3,0.2-5.4c0.1-2.4,0.2-4.2,0.2-5.4c0-1.8,0.7-3.2,2.1-4.3v0.3c0.2-0.1,0.4-0.1,0.5-0.1
		c0.9,0,2,1.5,3.3,4.6c1.1,2.5,2,5,2.9,7.8c0.9,2.7,2,6.6,3.4,11.6l0.6,2.1c0.9,3.1,1.6,5.3,2,6.7c0.8-8.3,1.2-18,1.2-29.2V15
		c0-0.2-0.1-0.5-0.1-0.7c0-1.2,0.5-1.7,1.4-1.7c0.5,0,1,0.2,1.2,0.6c0.3,0.4,0.4,1,0.4,1.6v4.3c-0.1,5.9-0.3,12.3-0.7,19.2
		c-0.4,6.9-0.8,10.8-1.4,11.7c-1.1,0.3-1.8,0.5-2.1,0.5C74.9,50.5,74.5,50.3,74.3,50.1z"/>
	<path class="st4" d="M85.1,48.5c0-0.9,0.6-1.4,1.8-1.4h0.6l0.6,0.1c0.3,0,0.5-0.1,0.6-0.3c0.1-0.2,0.2-0.5,0.2-1
		c0-0.7,0-1.7-0.1-3.1c-0.1-0.9-0.2-2.6-0.4-5C88,32,87.8,27.6,87.8,24.6c0-1.1,0-2.1,0.1-2.9l0.1-2.9c0-1.3-0.1-2.3-0.2-3.2
		c-0.6,0.2-1.1,0.2-1.3,0.2c-0.9,0-1.4-0.5-1.4-1.4c0-0.5,0.3-0.9,0.9-1.2c0.6-0.3,1.3-0.6,2.2-0.7c1.5-0.3,2.9-0.5,4.1-0.5
		c0.5,0,0.9,0.2,1.2,0.5c0.3,0.3,0.5,0.7,0.5,1.1c0,0.4-0.1,0.8-0.4,1.1c-0.2,0.3-0.6,0.5-1,0.5c-0.2,0-0.4,0-0.6-0.1h-0.5
		c-0.4,0-0.7,0.1-0.8,0.3c-0.2,0.2-0.3,0.5-0.3,1c0,3.7,0.2,9.3,0.7,16.8c0.1,1.4,0.2,3.4,0.5,6.1c0.2,1.8,0.3,3.6,0.3,5.4v2.2
		c0.2,0,0.6-0.1,1.2-0.1c1.6,0,2.4,0.7,2.4,2v0.3l-1.4,1c0,0-0.2,0-0.4,0s-0.6,0-1.2,0c-1.2,0.1-2,0.1-2.4,0.1
		C86.7,50.2,85.1,49.7,85.1,48.5z"/>
	<path class="st4" d="M103.9,50.5c-0.6,0.4-1.3,0.6-2,0.6c-0.5,0-0.9-0.2-1.2-0.6s-0.5-0.8-0.5-1.3c0-3.2,0.1-7.5,0.4-12.9
		c0.2-5.7,0.3-10,0.3-12.8v-0.4c-0.2-2.4-0.3-4.2-0.3-5.4c0-3.6,0.7-5.5,2-5.5c0.4,0,0.7,0.1,1,0.4c0.3,0.3,0.4,0.6,0.4,1
		c0,0.5-0.1,1.2-0.2,2.2c-0.1,1-0.2,1.7-0.2,2.2c0,2.6,0,4.9,0.1,7c0,2,0.1,4.3,0.1,6.9c-0.2,0.6-0.3,1.4-0.3,2.4V35l-0.1,4.5
		c-0.1,1.3-0.1,2.9-0.1,4.6c0,2.6,0.6,4,1.9,4c0.1,0,0.2,0,0.4,0s0.4,0,0.7,0c0.3,0,0.8-0.1,1.3-0.1c2.1,0,3.1,0.6,3.1,1.7
		c0,0.4-0.2,0.7-0.5,1c-0.3,0.3-0.8,0.4-1.3,0.5C107.7,50.8,106,50.5,103.9,50.5z"/>
	<path class="st4" d="M119.4,50.5c-0.6,0.4-1.3,0.6-2,0.6c-0.5,0-0.9-0.2-1.2-0.6s-0.5-0.8-0.5-1.3c0-3.2,0.1-7.5,0.4-12.9
		c0.2-5.7,0.3-10,0.3-12.8v-0.4c-0.2-2.4-0.3-4.2-0.3-5.4c0-3.6,0.7-5.5,2-5.5c0.4,0,0.7,0.1,1,0.4c0.3,0.3,0.4,0.6,0.4,1
		c0,0.5-0.1,1.2-0.2,2.2c-0.1,1-0.2,1.7-0.2,2.2c0,2.6,0,4.9,0.1,7c0,2,0.1,4.3,0.1,6.9c-0.2,0.6-0.3,1.4-0.3,2.4V35l-0.1,4.5
		c-0.1,1.3-0.1,2.9-0.1,4.6c0,2.6,0.6,4,1.9,4c0.1,0,0.2,0,0.4,0s0.4,0,0.7,0c0.3,0,0.8-0.1,1.3-0.1c2.1,0,3.1,0.6,3.1,1.7
		c0,0.4-0.2,0.7-0.5,1c-0.3,0.3-0.8,0.4-1.3,0.5C123.1,50.8,121.4,50.5,119.4,50.5z"/>
	<path class="st4" d="M140.4,50.4c-0.4-0.3-0.6-0.8-0.6-1.5c0-1.2-0.2-3.1-0.6-5.9l-0.2-1.2l-5.7-0.9c-0.2,0.9-0.6,2.7-1,5.4
		c-0.2,1.9-0.6,3.1-1.1,3.7c-0.3,0.3-0.7,0.5-1.2,0.5c-0.5,0-0.9-0.1-1.3-0.4s-0.6-0.6-0.6-1.1l0.1-0.3l0.1-0.2
		c2.5-9.9,4.5-19.6,5.8-29.2c0-0.2,0-0.4,0.1-0.8c0-0.4,0.1-0.9,0.1-1.6c0.1-1.4,0.2-2.6,0.4-3.4c0.1-0.8,0.4-1.5,0.7-1.9h2
		c0.5,0,1,0.1,1.4,0.4c0.4,0.2,0.6,0.6,0.6,1.1c0,2.9,0.4,7.3,1.2,13c0.8,5.9,1.2,10.1,1.2,12.4c0,0.2,0.1,0.8,0.3,1.8
		c0.2,0.9,0.3,1.5,0.3,1.7c0,0.3,0.2,1.4,0.6,3.5c0.3,1.8,0.5,3,0.5,3.6v0.1c0,0.8-0.3,1.4-0.9,1.6
		C141.5,50.8,140.9,50.7,140.4,50.4z M138.4,37.6c0-3.5-0.3-7.9-0.9-13.2l-0.6-6c-1.7,9-2.8,15.8-3.4,20.4c0.6,0.4,2.3,0.7,5.1,0.9
		C138.5,39.2,138.4,38.5,138.4,37.6z"/>
</g>
</svg>
